<svg width="26" height="26" viewBox="0 0 26 26" fill="none" xmlns="http://www.w3.org/2000/svg">
<g clip-path="url(#clip0)">
<path d="M18.9083 9.36961C19.2897 9.75108 19.2897 10.3694 18.9083 10.7507L12.3577 17.3023C11.9763 17.6835 11.3582 17.6835 10.9767 17.3023L7.85839 14.1834C7.47696 13.8021 7.47696 13.1837 7.85839 12.8025C8.23962 12.421 8.85791 12.421 9.23915 12.8025L11.6671 15.2307L17.5274 9.36961C17.9088 8.98833 18.5271 8.98833 18.9083 9.36961ZM25.8819 13.3359C25.8819 20.2453 20.291 25.8359 13.3833 25.8359C6.47476 25.8359 0.884766 20.2444 0.884766 13.3359C0.884766 6.42657 6.47571 0.835938 13.3833 0.835938C20.2919 0.835938 25.8819 6.42752 25.8819 13.3359ZM23.929 13.3359C23.929 7.50613 19.2117 2.78906 13.3833 2.78906C7.5542 2.78906 2.83767 7.50689 2.83767 13.3359C2.83767 19.1657 7.55496 23.8828 13.3833 23.8828C19.2125 23.8828 23.929 19.165 23.929 13.3359Z" fill="#05F9FF"/>
</g>
<defs>
<clipPath id="clip0">
<rect width="25" height="25" fill="white" transform="translate(0.884766 0.835938)"/>
</clipPath>
</defs>
</svg>
