<svg width="1021" height="1122" viewBox="0 0 1021 1122" fill="none" xmlns="http://www.w3.org/2000/svg">
<rect x="0.000815123" y="-2.12213" width="66.3872" height="68.4496" transform="matrix(0.707107 -0.707107 -0.706563 -0.70765 970.321 715.213)" stroke="url(#paint0_linear)" stroke-width="3"/>
<path d="M984.164 52.0751C983.603 52.12 983.155 52.5481 983.1 53.1084C982.841 55.5734 982.026 57.9357 980.676 60.0627C980.225 60.7608 979.731 61.4379 979.191 62.0615C976.3 65.3987 972.267 67.4457 967.841 67.8154C963.422 68.1763 959.132 66.8265 955.764 64.0216C952.751 61.4989 950.742 57.9233 950.15 54.0792C950.062 53.5058 949.563 53.0879 948.975 53.1103L948.958 53.1116C948.262 53.1345 947.729 53.7493 947.834 54.4277C948.512 58.8289 950.803 62.9134 954.251 65.7855C958.093 69.0022 962.989 70.5407 968.043 70.1209C973.097 69.7011 977.69 67.3806 980.991 63.5691C981.607 62.8577 982.185 62.084 982.687 61.2919C984.228 58.8553 985.174 56.1474 985.462 53.3285C985.538 52.6194 984.934 52.0382 984.215 52.0874C984.181 52.0738 984.172 52.0663 984.164 52.0751Z" fill="url(#paint1_linear)"/>
<path d="M972.586 13.2479L969.11 10.3533C968.149 9.56341 967.395 10.4167 967.387 10.4254C962.671 15.8707 954.29 16.5807 948.716 11.9896C948.297 11.6388 947.594 11.5804 947.073 12.1289L941.048 19.0848C940.63 19.5679 940.689 20.299 941.179 20.7095L960.666 37.0255L971.338 45.9759C973.736 47.9837 974.542 51.2795 973.345 54.1711C972.996 55.0002 972.508 55.7585 971.879 56.4137C969.234 59.1838 964.834 59.4697 961.872 57.0654C960.359 55.8291 959.43 54.0965 959.258 52.1645C959.084 50.2162 959.704 48.3109 960.997 46.8178C961.507 46.2294 962.114 45.723 962.788 45.3177C963.185 45.0735 963.406 44.6225 963.344 44.1615C963.296 43.8791 963.134 43.6223 962.92 43.4431L955.726 37.4198C955.289 37.0541 954.632 37.0493 954.197 37.4274C953.474 38.0493 952.797 38.7247 952.181 39.4361C950.827 40.9994 949.768 42.719 949.009 44.5536C948.767 45.1535 949.103 45.8134 949.738 45.967L949.747 45.9745C949.815 45.9855 949.891 46.0039 949.951 46.0237C950.46 46.1466 950.986 45.8756 951.181 45.4022C951.842 43.8043 952.777 42.2989 953.956 40.9376C954.283 40.56 954.628 40.1972 954.991 39.8494L960.286 44.2829C959.896 44.6084 959.543 44.9636 959.216 45.3413C957.512 47.3086 956.699 49.8098 956.922 52.3755C957.144 54.9248 958.368 57.2225 960.37 58.8532C964.275 62.0323 970.081 61.6506 973.569 57.9956C974.397 57.1283 975.041 56.1368 975.501 55.0372C977.089 51.2152 976.024 46.869 972.85 44.2119L962.178 35.2614L943.592 19.6993L945.577 17.407C946.481 16.3457 947.476 15.1789 948.124 14.4486C951.156 16.5937 954.821 17.6011 958.586 17.2842C962.335 16.9685 965.781 15.369 968.407 12.764C969.744 13.8836 972.345 16.0468 973.735 17.1949C971.925 19.0889 969.814 20.6391 967.447 21.8091C965.713 22.6752 963.876 23.3041 961.979 23.7008C961.546 23.7927 961.199 24.1229 961.083 24.5409C960.967 24.959 961.12 25.4209 961.459 25.7045L977.455 39.0371C979.222 40.5312 980.614 42.3331 981.591 44.3481C981.831 44.8521 982.416 45.0997 982.952 44.9425C982.96 44.9337 982.969 44.9412 982.976 44.9324C983.658 44.7308 984.005 43.9755 983.705 43.3454C982.589 41.0473 981.001 38.9911 978.977 37.2806L964.659 25.3837C965.965 24.9769 967.238 24.4828 968.461 23.8701C971.451 22.3888 974.081 20.3638 976.264 17.8432C976.47 17.606 976.578 17.3031 976.554 16.9944C976.529 16.6857 976.382 16.4113 976.141 16.2097L972.586 13.2479Z" fill="url(#paint2_linear)"/>
<path d="M183.124 225.153C183.205 221.308 187.417 218.99 190.709 220.979L229.984 244.708C233.28 246.7 233.183 251.512 229.809 253.368L189.567 275.516C186.194 277.373 182.076 274.88 182.157 271.03L183.124 225.153Z" stroke="url(#paint3_linear)" stroke-width="2"/>
<path d="M70.6551 1045.45C70.574 1041.6 66.3627 1039.28 63.0706 1041.27L23.7951 1065C20.4996 1066.99 20.5967 1071.8 23.97 1073.66L64.2126 1095.81C67.5858 1097.67 71.7034 1095.17 71.6222 1091.32L70.6551 1045.45Z" stroke="url(#paint4_linear)" stroke-width="2"/>
<defs>
<linearGradient id="paint0_linear" x1="69.9027" y1="0.515668" x2="34.6935" y2="35.7249" gradientUnits="userSpaceOnUse">
<stop stop-color="#05F9FF"/>
<stop offset="1" stop-color="#1A2931"/>
</linearGradient>
<linearGradient id="paint1_linear" x1="954.374" y1="46.2749" x2="970.558" y2="64.6918" gradientUnits="userSpaceOnUse">
<stop stop-color="#EA80FC"/>
<stop offset="1" stop-color="#1A1D1D"/>
</linearGradient>
<linearGradient id="paint2_linear" x1="936.014" y1="24.8978" x2="978.051" y2="35.7559" gradientUnits="userSpaceOnUse">
<stop stop-color="#00C4F6"/>
<stop offset="1" stop-color="#151515"/>
</linearGradient>
<linearGradient id="paint3_linear" x1="220.046" y1="234.036" x2="178.649" y2="273.478" gradientUnits="userSpaceOnUse">
<stop stop-color="#151515"/>
<stop offset="1" stop-color="#9E8AE7"/>
</linearGradient>
<linearGradient id="paint4_linear" x1="88.755" y1="1059.05" x2="20.8204" y2="1088.17" gradientUnits="userSpaceOnUse">
<stop stop-color="#03EFE9"/>
<stop offset="1" stop-color="#151515"/>
</linearGradient>
</defs>
</svg>
