<svg width="211" height="131" viewBox="0 0 211 131" fill="none" xmlns="http://www.w3.org/2000/svg">
<path d="M18.0486 0.835938H103.808C113.289 0.835938 120.96 8.21249 120.96 17.3042V35.1515C120.96 44.2432 113.277 51.6198 103.808 51.6198H98.659C97.4447 55.947 97.1995 61.7429 101.601 66.8325C101.601 66.8325 83.8306 63.077 79.8258 51.6198H18.0369C8.56773 51.6198 0.884987 44.2432 0.884987 35.1515V17.3042C0.884987 8.21249 8.56774 0.835938 18.0486 0.835938Z" fill="white"/>
<path d="M28.3105 21.8359H29.7195V16.6314H35.9241V21.8359H37.3332V10.1996H35.9241V15.3814H29.7195V10.1996H28.3105V21.8359ZM40.836 25.1087C42.0463 25.1087 42.8985 24.4666 43.4042 23.1087L47.1201 13.1314L45.6542 13.1087L43.2451 20.0632H43.1542L40.7451 13.1087H39.2906L42.5178 21.8814L42.2678 22.5632C41.7792 23.8928 41.1769 24.0178 40.1997 23.7678L39.8588 24.9496C39.9951 25.0178 40.3815 25.1087 40.836 25.1087ZM48.3488 21.8359H49.9624L52.9397 18.0859H53.6215V21.8359H54.9624V18.0859H55.6443L58.5988 21.8359H60.2124L56.6897 17.4041L60.167 13.1087H58.5761L55.667 16.8359H54.9624V13.1087H53.6215V16.8359H52.8943L49.9852 13.1087H48.3943L51.8943 17.4041L48.3488 21.8359ZM63.4695 13.1087H62.1286V21.8359H63.4695V18.1087H67.6514V21.8359H68.9923V13.1087H67.6514V16.8587H63.4695V13.1087ZM74.0093 22.0405C75.532 22.0405 76.3275 21.2223 76.6002 20.6541H76.6684V21.8359H78.0093V16.0859C78.0093 13.3132 75.8957 12.995 74.782 12.995C73.4639 12.995 71.9639 13.4496 71.282 15.0405L72.5548 15.495C72.8502 14.8587 73.5491 14.1768 74.8275 14.1768C76.0605 14.1768 76.6684 14.8303 76.6684 15.9496V15.995C76.6684 16.6428 76.0093 16.5859 74.4184 16.7905C72.7991 17.0007 71.032 17.3587 71.032 19.3587C71.032 21.0632 72.3502 22.0405 74.0093 22.0405ZM74.2139 20.8359C73.1457 20.8359 72.373 20.3587 72.373 19.4268C72.373 18.4041 73.3048 18.0859 74.3502 17.9496C74.9184 17.8814 76.4411 17.7223 76.6684 17.4496V18.6768C76.6684 19.7678 75.8048 20.8359 74.2139 20.8359ZM28.1286 40.8359H29.4695V33.3587H33.6514V40.8359H34.9923V32.1087H28.1286V40.8359ZM40.9866 41.0178C43.3502 41.0178 44.9411 39.2223 44.9411 36.5178C44.9411 33.7905 43.3502 31.995 40.9866 31.995C38.623 31.995 37.032 33.7905 37.032 36.5178C37.032 39.2223 38.623 41.0178 40.9866 41.0178ZM40.9866 39.8132C39.1911 39.8132 38.373 38.2678 38.373 36.5178C38.373 34.7678 39.1911 33.1996 40.9866 33.1996C42.782 33.1996 43.6002 34.7678 43.6002 36.5178C43.6002 38.2678 42.782 39.8132 40.9866 39.8132ZM51.7607 39.0178L48.7607 32.1087H46.988V40.8359H48.3289V34.0348L51.2153 40.8359H52.3062L55.1926 34.1598V40.8359H56.5335V32.1087H54.8062L51.7607 39.0178ZM62.5335 41.0178C64.8971 41.0178 66.488 39.2223 66.488 36.5178C66.488 33.7905 64.8971 31.995 62.5335 31.995C60.1698 31.995 58.5789 33.7905 58.5789 36.5178C58.5789 39.2223 60.1698 41.0178 62.5335 41.0178ZM62.5335 39.8132C60.738 39.8132 59.9198 38.2678 59.9198 36.5178C59.9198 34.7678 60.738 33.1996 62.5335 33.1996C64.3289 33.1996 65.1471 34.7678 65.1471 36.5178C65.1471 38.2678 64.3289 39.8132 62.5335 39.8132ZM80.444 39.5859H79.1485V32.1087H77.8076V39.5859H74.5122V32.1087H73.1713V39.5859H69.8758V32.1087H68.5349V40.8359H78.8985V43.3359H80.2849L80.444 39.5859ZM83.7352 35.2678V32.1087H82.3943V40.8359H86.0534C88.0988 40.8359 89.2124 39.5859 89.2124 38.0178C89.2124 36.4268 88.0988 35.2678 86.0534 35.2678H83.7352ZM83.7352 36.5178H86.0534C87.1159 36.5178 87.8715 37.1655 87.8715 38.0859C87.8715 38.9666 87.1159 39.5859 86.0534 39.5859H83.7352V36.5178ZM93.0036 37.5632H94.3673V37.495C94.39 36.0859 94.7536 35.4723 95.7536 34.8473C96.7536 34.2393 97.3445 33.3643 97.3445 32.1087C97.3445 30.3359 96.0491 29.0405 94.0491 29.0405C92.2082 29.0405 90.748 30.1768 90.6627 32.1087H92.0945C92.1798 30.7678 93.1173 30.2223 94.0491 30.2223C95.1173 30.2223 95.9809 30.9268 95.9809 32.0405C95.9809 32.9439 95.4639 33.5916 94.7991 33.995C93.6855 34.6712 93.0207 35.3303 93.0036 37.495V37.5632ZM93.7309 40.9268C94.2934 40.9268 94.7536 40.4666 94.7536 39.9041C94.7536 39.3416 94.2934 38.8814 93.7309 38.8814C93.1684 38.8814 92.7082 39.3416 92.7082 39.9041C92.7082 40.4666 93.1684 40.9268 93.7309 40.9268Z" fill="#151515"/>
<g filter="url(#filter0_d)">
<path d="M184.076 47.6392C181.153 44.6634 176.515 51.6732 178.542 62.0388C180.457 71.8383 170.881 68.7709 168.111 66.0385" stroke="black" stroke-width="9" stroke-linecap="round"/>
<path d="M125.323 60.8379C122.4 57.8621 116.808 56.1202 116.808 67.0375C116.808 77.6369 108.934 80.3694 106.164 77.637" stroke="black" stroke-width="9" stroke-linecap="round"/>
<path d="M131.375 88.1145L151.007 91.7913C158.905 93.2702 166.584 88.4545 168.159 81.0349L172.072 62.5908C173.647 55.1712 168.521 47.9566 160.623 46.4777L140.991 42.8009C133.093 41.3219 125.413 46.1377 123.839 53.5573L119.926 72.0013C118.351 79.4209 123.477 86.6356 131.375 88.1145Z" fill="black"/>
<path d="M151.664 22.6635L152.042 21.2545C152.515 19.4905 154.609 18.4655 156.717 18.9655C158.826 19.4655 160.151 21.3005 159.677 23.0645L159.3 24.4735L151.664 22.6635Z" fill="#A2F1FC"/>
<path fill-rule="evenodd" clip-rule="evenodd" d="M156.873 18.3827C154.492 17.8181 151.998 18.9598 151.422 21.1067L151.422 21.1069L150.888 23.0975L159.762 25.2011L160.296 23.2103C160.296 23.2102 160.296 23.2101 160.296 23.2101C160.872 21.0632 159.254 18.9473 156.873 18.3827ZM152.66 21.4003C153.031 20.0192 154.725 19.1109 156.561 19.5462C158.397 19.9816 159.428 21.5356 159.058 22.9167L158.836 23.7439L152.438 22.2275L152.66 21.4003Z" fill="#020202"/>
<path d="M125.099 45.4153L127.405 36.8278C130.293 26.0744 143.052 19.8267 155.906 22.8725C168.759 25.9184 176.839 37.1048 173.951 47.8582L171.645 56.4458L125.099 45.4153Z" fill="url(#paint0_linear)"/>
<path fill-rule="evenodd" clip-rule="evenodd" d="M156.063 22.2909C142.937 19.1805 129.777 25.5449 126.787 36.6812L124.325 45.8505L172.11 57.1744L174.571 48.0051C177.562 36.8688 169.189 25.4014 156.063 22.2909ZM128.025 36.9747C130.81 26.6041 143.17 20.4732 155.751 23.4544C168.332 26.4357 176.118 37.3411 173.333 47.7116L171.184 55.7174L125.876 44.9805L128.025 36.9747C128.025 36.9747 128.025 36.9747 128.025 36.9747Z" fill="#020202"/>
<path d="M139.852 43.9616C139.918 43.6976 139.986 43.4326 140.058 43.1666C143.409 30.6052 150.517 21.4557 155.933 22.7307C161.348 24.0066 163.022 35.223 159.67 47.7854C159.599 48.0513 159.526 48.3143 159.452 48.5773L139.852 43.9616Z" fill="#050505"/>
<path d="M148.568 39.1397L153.931 40.4027C155.819 40.8477 157.733 39.7697 158.206 37.9967C158.679 36.2227 157.532 34.4247 155.645 33.9807L150.282 32.7177C148.393 32.2727 146.48 33.3507 146.007 35.1237C145.533 36.8967 146.68 38.6947 148.568 39.1397Z" fill="url(#paint1_linear)"/>
<path d="M131.156 46.8318L165.36 54.8878C167.248 55.3328 169.162 54.2548 169.634 52.4818C170.108 50.7078 168.961 48.9098 167.074 48.4658L132.87 40.4098C130.982 39.9648 129.068 41.0428 128.596 42.8158C128.123 44.5898 129.269 46.3878 131.156 46.8318Z" fill="url(#paint2_linear)"/>
<path fill-rule="evenodd" clip-rule="evenodd" d="M129.214 42.9611C129.601 41.5096 131.168 40.627 132.714 40.9914L166.917 49.0474C168.462 49.4109 169.402 50.883 169.014 52.3354C168.627 53.7869 167.06 54.6698 165.514 54.3054L131.311 46.2494C129.766 45.886 128.827 44.4141 129.214 42.9611ZM133.024 39.8274C130.794 39.3018 128.533 40.5752 127.975 42.6696C127.417 44.7646 128.77 46.8887 131 47.4134L165.204 55.4694C167.434 55.995 169.694 54.7217 170.253 52.6274C170.812 50.5319 169.457 48.408 167.228 47.8834M167.228 47.8834L133.024 39.8274Z" fill="#020202"/>
<path d="M95.3151 81.58L94.355 82.2319C93.3503 82.9139 91.9474 82.7019 91.2215 81.758C90.4956 80.814 90.7213 79.4961 91.726 78.8141L98.4454 74.2523L98.4475 74.2543C98.6774 74.0014 98.9393 73.7724 99.232 73.5744C102.078 71.6425 106.796 73.2104 109.77 77.0762C112.444 80.552 112.797 84.7028 110.774 86.9097C110.757 86.9287 110.746 86.9527 110.744 86.9777L110.396 91.9554C110.315 93.1174 109.247 93.9973 108.01 93.9213C106.773 93.8453 105.836 92.8414 105.917 91.6794L106.114 88.8626C106.121 88.7636 106.002 88.7016 105.917 88.7596L99.8025 92.9114C98.7977 93.5933 97.3949 93.3813 96.669 92.4374C95.9431 91.4934 96.1687 90.1755 97.1735 89.4935L99.5641 87.8706C99.6843 87.7886 99.579 87.6126 99.4417 87.6676L97.6109 88.4036C97.017 88.6426 96.3262 88.4616 95.9494 87.9686C95.6578 87.5876 95.5162 86.8367 95.9079 86.5447L98.6466 84.4108C98.7541 84.3308 98.5891 84.1338 98.4571 84.1718L95.5854 85.4798C94.8287 85.6977 94.0112 85.3998 93.61 84.7578C93.3098 84.2768 93.396 83.6659 93.8207 83.2769L95.4758 81.758C95.5865 81.657 95.4407 81.495 95.3151 81.58Z" fill="white"/>
<path fill-rule="evenodd" clip-rule="evenodd" d="M104.666 72.5856C102.625 71.9075 100.5 71.9742 98.8587 73.0878C98.5487 73.2976 98.2697 73.537 98.0226 73.7994L91.3522 78.3279C90.0614 79.204 89.7717 80.897 90.704 82.1094C91.2703 82.8458 92.1572 83.2354 93.0554 83.2317C92.711 83.7869 92.7007 84.4869 93.0592 85.0614L93.0594 85.0617C93.5539 85.8529 94.5085 86.2636 95.4499 86.1237C95.0622 86.4544 95.0079 86.9378 95.036 87.2707C95.0671 87.6409 95.2107 88.0309 95.4309 88.3187C95.7434 88.7276 96.2036 88.9898 96.7019 89.0766C95.4947 89.9703 95.2431 91.6077 96.1515 92.7889C97.084 94.0016 98.8861 94.2737 100.177 93.3978L105.406 89.8476L105.28 91.6404C105.176 93.1327 106.379 94.4225 107.968 94.5201C109.557 94.6177 110.93 93.4877 111.034 91.9949C111.034 91.9948 111.034 91.9948 111.034 91.9947L111.371 87.1743C112.442 85.9239 112.844 84.2125 112.67 82.4144C112.489 80.5492 111.685 78.5415 110.288 76.7249C108.735 74.7057 106.71 73.2649 104.666 72.5856ZM106.291 89.2464C106.291 89.2461 106.292 89.2458 106.292 89.2454L106.291 89.2464ZM93.9812 81.7457C93.2622 82.2338 92.2586 82.0819 91.7393 81.4067C91.2199 80.7312 91.3815 79.7884 92.1002 79.3006L98.7702 74.7723C98.8312 74.7388 98.8865 74.6956 98.9334 74.644C99.1313 74.4262 99.3556 74.2303 99.6053 74.0614L99.6061 74.0608C100.811 73.2429 102.467 73.1277 104.24 73.7169C106.011 74.3051 107.832 75.5811 109.253 77.4278C110.529 79.0869 111.239 80.8925 111.398 82.5234C111.557 84.1597 111.158 85.5715 110.29 86.5182C110.289 86.5195 110.288 86.5207 110.287 86.522L110.286 86.5233C110.184 86.6368 110.121 86.7788 110.108 86.93C110.108 86.9328 110.107 86.9356 110.107 86.9385L109.759 91.9164C109.701 92.7474 108.937 93.3771 108.052 93.3228C107.167 93.2684 106.497 92.5503 106.555 91.7187L106.752 88.902L106.752 88.899C106.79 88.3065 106.075 87.9114 105.543 88.2739C105.543 88.2739 105.543 88.2739 105.543 88.2739L99.4287 92.4252C99.4286 92.4252 99.4286 92.4252 99.4286 92.4252C98.7095 92.9132 97.706 92.7613 97.1868 92.0862C96.6673 91.4107 96.8289 90.4678 97.5476 89.98L99.9383 88.357L99.9393 88.3563C100.667 87.8603 100.038 86.7767 99.1914 87.1159L97.3599 87.8521L97.3597 87.8522C97.0412 87.9804 96.6706 87.8834 96.4684 87.6188L96.4681 87.6185C96.3968 87.5253 96.3238 87.3495 96.3092 87.1761C96.2998 87.0644 96.3169 87.0151 96.3233 87.0008L99.0512 84.8753C99.2615 84.7144 99.334 84.4847 99.3177 84.288C99.3032 84.1127 99.2234 83.9742 99.1493 83.883C99.0722 83.7882 98.9651 83.6994 98.8307 83.6397C98.6957 83.5796 98.4939 83.5339 98.2702 83.5983C98.2388 83.6073 98.2082 83.6186 98.1787 83.6321L95.3565 84.9175C94.8941 85.0318 94.4047 84.8443 94.1608 84.4541C94.0087 84.21 94.0534 83.9019 94.2667 83.7066L95.9209 82.1885C95.9212 82.1882 95.9215 82.1879 95.9218 82.1876C96.2584 81.8797 96.1874 81.451 95.9715 81.2115C95.7558 80.9723 95.3205 80.8371 94.942 81.0933L94.9411 81.0938L93.9812 81.7457Z" fill="#070707"/>
<path d="M131.792 83.3374H136.162V100.448H131.792V83.3374Z" fill="black"/>
<path d="M133.15 57.5886C137.175 58.3426 141.089 55.8877 141.891 52.1069L147.357 53.1309L143.14 73.0048C142.649 75.3157 144.245 77.5626 146.705 78.0226C149.165 78.4836 151.557 76.9836 152.046 74.6728C152.536 72.3619 150.94 70.115 148.481 69.655C148.02 69.569 147.483 69.537 147.038 69.581L148.149 64.3503C148.62 64.3753 149.095 64.4313 149.571 64.5203C155.049 65.5462 158.605 70.55 157.513 75.6967C156.421 80.8434 151.095 84.1843 145.616 83.1583C140.138 82.1324 136.582 77.1286 137.674 71.9819L139.906 61.4634C137.596 62.6144 134.865 63.0524 132.101 62.5344L133.15 57.5886Z" fill="#FF1352"/>
<path d="M135.009 56.4236C139.033 57.1776 142.947 54.7227 143.749 50.9419L149.215 51.9658L144.998 71.8398C144.507 74.1507 146.104 76.3976 148.564 76.8575C151.023 77.3185 153.415 75.8186 153.905 73.5077C154.394 71.1968 152.799 68.95 150.339 68.49C149.878 68.404 149.342 68.372 148.897 68.416L150.007 63.1853C150.477 63.2103 150.953 63.2662 151.429 63.3552C156.907 64.3812 160.463 69.3849 159.371 74.5317C158.279 79.6784 152.953 83.0192 147.475 81.9933C141.996 80.9673 138.44 75.9636 139.532 70.8169L141.764 60.2984C139.455 61.4493 136.724 61.8873 133.959 61.3693L135.009 56.4236Z" fill="#00F1EA"/>
<path d="M134.734 57.722C136.572 57.694 138.299 57.023 139.613 55.899C141.221 55.1901 142.543 53.9492 143.276 52.3652L147.36 53.1302L143.142 73.0042C142.652 75.315 144.248 77.5619 146.708 78.0219C148.336 78.3269 149.932 77.7729 150.969 76.695C152.426 76.209 153.583 75.036 153.906 73.5071C154.397 71.1962 152.801 68.9494 150.341 68.4894C149.88 68.4034 149.344 68.3714 148.899 68.4154L149.719 64.5486C155.115 65.6355 158.598 70.5953 157.516 75.696C157.049 77.8989 155.805 79.7698 154.107 81.1107C152.137 82.0707 149.821 82.4317 147.477 81.9927C141.998 80.9667 138.442 75.963 139.534 70.8163L141.766 60.2978C139.457 61.4488 136.725 61.8867 133.961 61.3688L134.734 57.722Z" fill="white"/>
<path d="M122.27 110.437V109.707C122.27 103.719 126.785 98.866 132.356 98.866H134.005C139.575 98.866 144.091 103.72 144.091 109.707V110.437H122.27Z" fill="white"/>
<path fill-rule="evenodd" clip-rule="evenodd" d="M144.729 109.706C144.729 103.466 140.005 98.2654 134.005 98.2654H132.356C126.355 98.2654 121.632 103.465 121.632 109.706V111.036H144.729V109.706ZM134.005 99.4654C139.144 99.4654 143.452 103.972 143.452 109.706V109.836H122.909V109.706C122.909 103.971 127.216 99.4654 132.356 99.4654H134.005Z" fill="#0A0A0A"/>
<path d="M152.972 85.3374H157.343V102.448H152.972V85.3374Z" fill="black"/>
<path d="M191.337 45.3468L191.34 45.3478L194.438 37.3782C194.87 36.2692 194.262 35.0423 193.082 34.6373L192.831 34.5513C191.651 34.1463 190.345 34.7173 189.915 35.8253L188.813 38.6591C189.244 37.5502 188.743 36.3602 187.695 36.0002L187.471 35.9232C186.423 35.5633 185.222 36.1702 184.792 37.2792L184.976 36.8072C185.407 35.6983 184.906 34.5083 183.858 34.1483L183.634 34.0713C182.753 33.7694 181.766 34.1493 181.217 34.9353L182.761 30.9615C183.192 29.8526 182.585 28.6256 181.405 28.2207L181.154 28.1347C179.974 27.7297 178.668 28.3006 178.238 29.4086L175.316 36.9232L173.477 33.9694C172.842 32.9504 171.449 32.6074 170.365 33.2034L170.134 33.3304C169.049 33.9264 168.684 35.2353 169.318 36.2542L172.286 41.02C171.867 44.1358 174.844 47.6496 179.467 49.2355C184.586 50.9925 189.784 49.7205 191.077 46.3947C191.208 46.0527 191.294 45.7027 191.337 45.3468Z" fill="white"/>
<path fill-rule="evenodd" clip-rule="evenodd" d="M178.837 29.6146C179.146 28.8183 180.085 28.4074 180.934 28.6987L180.934 28.6989L181.185 28.7847C181.185 28.7847 181.185 28.7847 181.185 28.7848C182.033 29.0762 182.47 29.9587 182.16 30.7562L180.616 34.73C180.505 35.0162 180.639 35.3352 180.929 35.4719C181.219 35.6087 181.572 35.5197 181.75 35.2651C182.167 34.6672 182.861 34.4463 183.414 34.6354C183.414 34.6354 183.414 34.6355 183.414 34.6355L183.637 34.7124C184.29 34.9365 184.71 35.7397 184.376 36.6012C184.376 36.6013 184.376 36.6012 184.376 36.6012C184.375 36.6014 184.375 36.6017 184.375 36.6019L184.195 37.064C184.194 37.0674 184.192 37.0709 184.191 37.0743C184.07 37.3855 184.241 37.7296 184.572 37.8432C184.903 37.9569 185.269 37.7971 185.391 37.4862L185.391 37.4851C185.392 37.4825 185.393 37.4799 185.394 37.4773C185.73 36.6216 186.6 36.2639 187.251 36.4872C187.251 36.4872 187.251 36.4873 187.251 36.4873L187.474 36.5643C188.127 36.7885 188.547 37.592 188.212 38.4538C188.091 38.7651 188.262 39.1095 188.593 39.2232C188.924 39.3369 189.291 39.1767 189.412 38.8654C189.412 38.8652 189.412 38.8649 189.412 38.8646L190.514 36.0313C190.823 35.235 191.762 34.8241 192.611 35.1154L192.612 35.1155L192.862 35.2013C192.862 35.2014 192.862 35.2014 192.862 35.2014C193.71 35.4928 194.148 36.3753 193.838 37.1729C193.838 37.1729 193.838 37.1728 193.838 37.1729L190.762 45.0847C190.73 45.1455 190.709 45.2115 190.701 45.2803C190.664 45.5894 190.589 45.8932 190.476 46.1907C189.921 47.6154 188.507 48.6608 186.545 49.1411C184.584 49.6208 182.138 49.5144 179.685 48.6725C177.471 47.913 175.671 46.6977 174.48 45.3233C173.286 43.9448 172.737 42.4464 172.918 41.0956C172.936 40.9645 172.907 40.8316 172.836 40.7176L169.868 35.9518C169.868 35.9518 169.868 35.9519 169.868 35.9518C169.412 35.219 169.675 34.2775 170.455 33.8488L170.455 33.8487L170.686 33.7218C171.466 33.2932 172.468 33.5398 172.924 34.2728L174.764 37.2267C174.889 37.4273 175.126 37.5421 175.372 37.5213C175.618 37.5005 175.83 37.3479 175.915 37.1296L178.837 29.6146ZM191.959 45.5019L195.037 37.5845C195.589 36.1643 194.811 34.593 193.301 34.0743L193.049 33.9883C193.049 33.9883 193.049 33.9883 193.049 33.9883C191.538 33.4697 189.865 34.2006 189.314 35.62C189.314 35.6201 189.314 35.6201 189.314 35.6202L189.067 36.2541C188.786 35.8927 188.398 35.604 187.913 35.4374C187.913 35.4373 187.913 35.4373 187.913 35.4372L187.689 35.3603C187.012 35.1276 186.316 35.192 185.713 35.4659C185.545 34.6285 184.979 33.8956 184.076 33.5854C184.076 33.5854 184.076 33.5854 184.076 33.5853L183.853 33.5086L183.852 33.5082C183.394 33.3514 182.927 33.331 182.485 33.419L183.36 31.1678C183.36 31.1678 183.36 31.1678 183.36 31.1678C183.912 29.7476 183.134 28.1763 181.623 27.6577L181.372 27.5716C179.861 27.053 178.188 27.7839 177.637 29.2033C177.637 29.2034 177.637 29.2035 177.637 29.2036L175.181 35.52L174.027 33.667C174.027 33.667 174.027 33.667 174.027 33.667C173.215 32.3621 171.43 31.9227 170.041 32.686L170.041 32.6861L169.81 32.813C168.421 33.5762 167.953 35.2526 168.766 36.5577L171.628 41.1535C171.472 42.8526 172.197 44.5879 173.49 46.0807C174.839 47.6387 176.838 48.9732 179.247 49.7996C181.913 50.7146 184.625 50.8508 186.866 50.3023C189.105 49.7545 190.937 48.5015 191.676 46.6011L191.677 46.5983C191.814 46.2403 191.908 45.874 191.959 45.5019Z" fill="#070707"/>
<path d="M144.834 110.437V109.707C144.834 103.719 149.349 98.866 154.92 98.866H156.568C162.138 98.866 166.654 103.72 166.654 109.707V110.437H144.834Z" fill="white"/>
<path fill-rule="evenodd" clip-rule="evenodd" d="M167.294 109.706C167.294 103.466 162.57 98.2654 156.569 98.2654H154.921C148.919 98.2654 144.196 103.465 144.196 109.706V111.036H167.294V109.706ZM156.569 99.4654C161.708 99.4654 166.017 103.972 166.017 109.706V109.836H145.473V109.706C145.473 103.971 149.78 99.4654 154.921 99.4654H156.569Z" fill="#0A0A0A"/>
</g>
<defs>
<filter id="filter0_d" x="75.1572" y="7.23926" width="135.058" height="122.797" filterUnits="userSpaceOnUse" color-interpolation-filters="sRGB">
<feFlood flood-opacity="0" result="BackgroundImageFix"/>
<feColorMatrix in="SourceAlpha" type="matrix" values="0 0 0 0 0 0 0 0 0 0 0 0 0 0 0 0 0 0 127 0"/>
<feOffset dy="4"/>
<feGaussianBlur stdDeviation="7.5"/>
<feColorMatrix type="matrix" values="0 0 0 0 0.027451 0 0 0 0 0.529412 0 0 0 0 0.658824 0 0 0 0.35 0"/>
<feBlend mode="normal" in2="BackgroundImageFix" result="effect1_dropShadow"/>
<feBlend mode="normal" in="SourceGraphic" in2="effect1_dropShadow" result="shape"/>
</filter>
<linearGradient id="paint0_linear" x1="162.53" y1="22.1013" x2="153.638" y2="52.4781" gradientUnits="userSpaceOnUse">
<stop stop-color="#00C4F6"/>
<stop offset="1" stop-color="#151515"/>
</linearGradient>
<linearGradient id="paint1_linear" x1="152.146" y1="32.4785" x2="152.13" y2="40.503" gradientUnits="userSpaceOnUse">
<stop stop-color="#80D8FF"/>
<stop offset="0.0001" stop-color="#4CFEE9"/>
<stop offset="1" stop-color="#EA80FC"/>
</linearGradient>
<linearGradient id="paint2_linear" x1="149.248" y1="40.051" x2="149.232" y2="54.9882" gradientUnits="userSpaceOnUse">
<stop stop-color="#80D8FF"/>
<stop offset="0.0001" stop-color="#4CFEE9"/>
<stop offset="1" stop-color="#EA80FC"/>
</linearGradient>
</defs>
</svg>
