<svg width="141" height="115" viewBox="0 0 141 115" fill="none" xmlns="http://www.w3.org/2000/svg">
<path d="M29.811 43.046C33.2195 39.5655 38.6272 47.7642 36.2644 59.888C34.0306 71.3495 45.1963 67.7619 48.426 64.566" stroke="black" stroke-width="9" stroke-linecap="round"/>
<path d="M98.314 58.4841C101.722 55.0036 108.242 52.9663 108.242 65.7352C108.242 78.1323 117.422 81.3283 120.652 78.1325" stroke="black" stroke-width="9" stroke-linecap="round"/>
<path d="M91.2554 86.6533L68.3654 90.845C59.1572 92.5311 50.2034 87.0409 48.368 78.5821L43.8049 57.5548C41.9695 49.096 47.9461 40.8709 57.1542 39.1848L80.0443 34.993C89.2525 33.307 98.2062 38.7972 100.042 47.256L104.605 68.2833C106.44 76.7421 100.464 84.9672 91.2554 86.6533Z" fill="black"/>
<path d="M67.6028 12.032L67.1622 10.4257C66.61 8.41476 64.169 7.24626 61.7106 7.81626C59.2522 8.38626 57.7071 10.4782 58.2594 12.4891L58.6999 14.0954L67.6028 12.032Z" fill="#A2F1FC"/>
<path fill-rule="evenodd" clip-rule="evenodd" d="M61.5268 7.1538C64.303 6.51013 67.2105 7.81164 67.8827 10.2592L67.8827 10.2594L68.5051 12.5287L58.1583 14.9267L57.5359 12.6572C57.5358 12.6571 57.5358 12.6571 57.5358 12.657C56.8638 10.2096 58.7508 7.79743 61.5268 7.1538ZM66.4387 10.5938C66.0064 9.01937 64.0319 7.98388 61.8912 8.4802C59.7505 8.97656 58.5474 10.7481 58.9798 12.3226L59.2384 13.2655L66.6974 11.5368L66.4387 10.5938Z" fill="#020202"/>
<path d="M98.5747 37.9729L95.8867 28.1826C92.5199 15.9231 77.6429 8.80034 62.6567 12.2728C47.6704 15.7452 38.2501 28.4984 41.6169 40.758L44.3049 50.5483L98.5747 37.9729Z" fill="url(#paint0_linear)"/>
<path fill-rule="evenodd" clip-rule="evenodd" d="M62.471 11.6083C77.775 8.06227 93.1185 15.318 96.6051 28.0141L99.4752 38.4676L43.7615 51.3776L40.8914 40.924C37.4047 28.2279 47.1671 15.1544 62.471 11.6083ZM95.1612 28.3487C91.9142 16.5256 77.5037 9.53598 62.8352 12.9348C48.1668 16.3336 39.0884 28.7664 42.3354 40.5894L44.8413 49.7165L97.6671 37.4758L95.1612 28.3487C95.1612 28.3487 95.1612 28.3487 95.1612 28.3487Z" fill="#020202"/>
<path d="M81.3713 36.3155C81.2944 36.0146 81.215 35.7125 81.1318 35.4092C77.224 21.0885 68.9366 10.6575 62.6224 12.111C56.3083 13.5657 54.3574 26.3531 58.2653 40.6749C58.3485 40.9781 58.4328 41.2779 58.5197 41.5778L81.3713 36.3155Z" fill="#050505"/>
<path d="M71.2112 30.8182L64.9579 32.258C62.7563 32.7653 60.525 31.5364 59.974 29.5152C59.4218 27.4928 60.7596 25.4431 62.9599 24.9369L69.2132 23.4971C71.4147 22.9898 73.646 24.2187 74.197 26.24C74.7493 28.2612 73.4127 30.3109 71.2112 30.8182Z" fill="url(#paint1_linear)"/>
<path d="M91.511 39.5885L51.6317 48.7723C49.4302 49.2796 47.1989 48.0507 46.6479 46.0295C46.0956 44.0071 47.4334 41.9574 49.6337 41.4512L89.513 32.2674C91.7145 31.7601 93.9458 32.989 94.4968 35.0102C95.0478 37.0326 93.7112 39.0823 91.511 39.5885Z" fill="url(#paint2_linear)"/>
<path fill-rule="evenodd" clip-rule="evenodd" d="M93.7741 35.175C93.3231 33.5203 91.4963 32.5141 89.6938 32.9294L49.8144 42.1133C48.0131 42.5277 46.9176 44.2059 47.3697 45.8617C47.8208 47.5164 49.6477 48.5228 51.4502 48.1075L91.3296 38.9236C93.1304 38.5093 94.2254 36.8313 93.7741 35.175ZM89.3316 31.6025C91.9321 31.0033 94.5678 32.455 95.2187 34.8427C95.8694 37.231 94.2912 39.6524 91.6917 40.2506L51.8125 49.4344C49.2121 50.0336 46.5763 48.5821 45.9253 46.1945C45.273 43.8056 46.8531 41.3844 49.4523 40.7864M49.4523 40.7864L89.3316 31.6025Z" fill="#020202"/>
<path d="M133.3 79.2035L134.42 79.9468C135.591 80.7243 137.227 80.4826 138.073 79.4064C138.919 78.3303 138.656 76.8278 137.485 76.0503L129.65 70.8496L129.648 70.8519C129.38 70.5635 129.075 70.3024 128.733 70.0767C125.415 67.8742 119.914 69.6617 116.446 74.069C113.329 78.0316 112.917 82.7637 115.276 85.2797C115.296 85.3014 115.308 85.3287 115.311 85.3572L115.717 91.0321C115.811 92.3568 117.057 93.36 118.499 93.2734C119.941 93.1867 121.033 92.0422 120.939 90.7175L120.709 87.5061C120.702 87.3933 120.839 87.3226 120.939 87.3887L128.068 92.122C129.24 92.8994 130.875 92.6578 131.722 91.5816C132.568 90.5055 132.305 89.0029 131.133 88.2255L128.346 86.3752C128.206 86.2818 128.329 86.0811 128.489 86.1438L130.623 86.9829C131.316 87.2553 132.121 87.049 132.561 86.487C132.901 86.0526 133.066 85.1965 132.609 84.8636L129.416 82.4308C129.291 82.3396 129.483 82.1151 129.637 82.1584L132.985 83.6495C133.867 83.898 134.82 83.5583 135.288 82.8264C135.638 82.2781 135.538 81.5816 135.043 81.1381L133.113 79.4064C132.984 79.2913 133.154 79.1066 133.3 79.2035Z" fill="white"/>
<path fill-rule="evenodd" clip-rule="evenodd" d="M122.398 68.9485C124.777 68.1753 127.256 68.2514 129.169 69.521C129.531 69.7601 129.856 70.0331 130.144 70.3322L137.921 75.495C139.426 76.4938 139.764 78.424 138.677 79.8062C138.017 80.6457 136.983 81.0898 135.935 81.0856C136.337 81.7186 136.349 82.5166 135.931 83.1715L135.931 83.172C135.354 84.0739 134.241 84.5421 133.143 84.3826C133.595 84.7597 133.659 85.3108 133.626 85.6903C133.59 86.1124 133.422 86.557 133.166 86.8851C132.801 87.3513 132.265 87.6502 131.684 87.7492C133.091 88.7681 133.385 90.6348 132.326 91.9814C131.238 93.3639 129.137 93.6742 127.632 92.6756L121.536 88.6281L121.682 90.672C121.803 92.3733 120.401 93.8438 118.548 93.9551C116.696 94.0664 115.095 92.778 114.974 91.0761C114.974 91.0761 114.974 91.076 114.974 91.076L114.581 85.5805C113.332 84.1549 112.863 82.2038 113.066 80.1539C113.277 78.0275 114.214 75.7385 115.843 73.6675C117.654 71.3655 120.014 69.7229 122.398 68.9485ZM120.504 87.9427C120.503 87.9423 120.502 87.942 120.502 87.9416L120.504 87.9427ZM134.856 79.3915C135.694 79.9479 136.864 79.7748 137.47 79.005C138.075 78.2349 137.887 77.16 137.049 76.6039L129.272 71.4414C129.201 71.4032 129.137 71.354 129.082 71.2952C128.851 71.0469 128.59 70.8235 128.299 70.6309L128.298 70.6303C126.893 69.6978 124.962 69.5665 122.894 70.2382C120.83 70.9088 118.706 72.3635 117.05 74.4688C115.562 76.3604 114.734 78.4188 114.549 80.2781C114.364 82.1436 114.829 83.7532 115.841 84.8325C115.842 84.8339 115.843 84.8353 115.844 84.8367L115.846 84.8383C115.964 84.9676 116.038 85.1295 116.053 85.3019C116.054 85.3051 116.054 85.3083 116.054 85.3116L116.46 90.9867C116.527 91.9341 117.419 92.652 118.451 92.59C119.482 92.5281 120.263 91.7094 120.196 90.7613L119.966 87.5501L119.966 87.5467C119.922 86.8711 120.755 86.4207 121.376 86.8341C121.376 86.8341 121.376 86.834 121.376 86.8341L128.505 91.5667C128.505 91.5667 128.505 91.5668 128.505 91.5668C129.343 92.1231 130.513 91.95 131.118 91.1802C131.724 90.4101 131.536 89.3352 130.698 88.7791L127.91 86.9288L127.909 86.928C127.061 86.3624 127.794 85.1272 128.781 85.5138L130.917 86.3532L130.917 86.3533C131.288 86.4994 131.72 86.3888 131.956 86.0872L131.956 86.0868C132.04 85.9806 132.125 85.7802 132.142 85.5825C132.153 85.4551 132.133 85.399 132.125 85.3826L128.945 82.9594C128.699 82.776 128.615 82.5141 128.634 82.2898C128.651 82.09 128.744 81.9321 128.83 81.8282C128.92 81.7201 129.045 81.6188 129.202 81.5507C129.359 81.4823 129.594 81.4302 129.855 81.5036C129.892 81.5139 129.928 81.5268 129.962 81.5421L133.252 83.0075C133.792 83.1378 134.362 82.9241 134.647 82.4792C134.824 82.201 134.772 81.8497 134.523 81.627L132.594 79.8963C132.594 79.896 132.594 79.8956 132.593 79.8953C132.201 79.5442 132.284 79.0555 132.535 78.7825C132.787 78.5098 133.294 78.3557 133.736 78.6477L133.737 78.6483L134.856 79.3915Z" fill="#070707"/>
<path d="M90.7723 81.2058H85.6768V100.712H90.7723V81.2058Z" fill="black"/>
<path d="M89.1847 51.8515C84.4925 52.7111 79.9293 49.9124 78.9936 45.6021L72.6211 46.7694L77.538 69.4269C78.1101 72.0614 76.2486 74.623 73.3806 75.1474C70.5127 75.6729 67.7242 73.9629 67.1533 71.3284C66.5825 68.6939 68.4427 66.1323 71.3107 65.6079C71.848 65.5098 72.4735 65.4734 72.9922 65.5235L71.6978 59.5602C71.1481 59.5887 70.5946 59.6525 70.0399 59.754C63.6525 60.9236 59.5063 66.6282 60.7796 72.4958C62.0529 78.3633 68.2628 82.1721 74.6502 81.0024C81.0376 79.8328 85.1837 74.1282 83.9104 68.2607L81.3081 56.269C84.001 57.5812 87.1854 58.0805 90.4083 57.49L89.1847 51.8515Z" fill="#FF1352"/>
<path d="M87.0186 50.5234C82.3264 51.383 77.7633 48.5843 76.8276 44.2739L70.4551 45.4413L75.3719 68.0988C75.944 70.7333 74.0825 73.2949 71.2146 73.8193C68.3467 74.3448 65.5582 72.6348 64.9873 70.0003C64.4165 67.3658 66.2767 64.8042 69.1446 64.2798C69.682 64.1817 70.3074 64.1453 70.8262 64.1954L69.5318 58.2321C68.9833 58.2606 68.4286 58.3244 67.8739 58.4259C61.4865 59.5955 57.3403 65.3001 58.6136 71.1677C59.8868 77.0352 66.0968 80.844 72.4841 79.6743C78.8715 78.5047 83.0177 72.8002 81.7444 66.9326L79.1421 54.9409C81.835 56.2531 85.0194 56.7524 88.2422 56.1618L87.0186 50.5234Z" fill="#00F1EA"/>
<path d="M87.3409 52.003C85.1977 51.9711 83.1848 51.2061 81.6521 49.9248C79.777 49.1165 78.2357 47.7018 77.3819 45.896L72.6202 46.7681L77.537 69.4256C78.1091 72.0601 76.2476 74.6217 73.3797 75.1461C71.4822 75.4938 69.6207 74.8622 68.412 73.6333C66.7131 73.0793 65.3641 71.7421 64.9869 69.999C64.4148 67.3645 66.2763 64.8029 69.1442 64.2785C69.6815 64.1805 70.307 64.144 70.8257 64.1941L69.8689 59.7857C63.5783 61.0249 59.5166 66.6793 60.7787 72.4945C61.3235 75.0059 62.7729 77.1388 64.7536 78.6676C67.0494 79.762 69.7498 80.1735 72.4837 79.673C78.8711 78.5034 83.0172 72.7988 81.744 66.9313L79.1416 54.9396C81.8346 56.2518 85.019 56.7511 88.2418 56.1606L87.3409 52.003Z" fill="white"/>
<path d="M101.872 112.1V111.268C101.872 104.441 96.6079 98.9089 90.1126 98.9089H88.1903C81.6962 98.9089 76.4307 104.442 76.4307 111.268V112.1H101.872Z" fill="white"/>
<path fill-rule="evenodd" clip-rule="evenodd" d="M75.6855 111.268C75.6855 104.155 81.1935 98.2256 88.1898 98.2256H90.1121C97.1096 98.2256 102.616 104.154 102.616 111.268V112.784H75.6855V111.268ZM88.1898 99.5936C82.1978 99.5936 77.1747 104.732 77.1747 111.268V111.417H101.127V111.268C101.127 104.73 96.1052 99.5936 90.1121 99.5936H88.1898Z" fill="#0A0A0A"/>
<path d="M66.075 83.4863H60.9795V102.993H66.075V83.4863Z" fill="black"/>
<path d="M21.3443 37.8951L21.3406 37.8962L17.7281 28.8104C17.2255 27.5462 17.9341 26.1474 19.3091 25.6857L19.602 25.5877C20.9782 25.126 22.5009 25.7769 23.0023 27.04L24.2867 30.2708C23.7841 29.0065 24.3686 27.6499 25.591 27.2395L25.8516 27.1517C27.074 26.7413 28.4738 27.4333 28.9752 28.6976L28.7605 28.1595C28.2579 26.8952 28.8424 25.5386 30.0648 25.1282L30.3254 25.0405C31.3529 24.6962 32.5033 25.1294 33.1437 26.0254L31.343 21.4951C30.8404 20.2308 31.549 18.832 32.924 18.3703L33.2169 18.2723C34.5931 17.8106 36.1158 18.4615 36.6172 19.7246L40.0237 28.2917L42.1682 24.9242C42.9078 23.7625 44.5322 23.3715 45.7968 24.0509L46.0661 24.1957C47.3307 24.8752 47.7563 26.3674 47.0167 27.5291L43.5568 32.9623C44.0445 36.5145 40.5735 40.5205 35.1839 42.3285C29.2159 44.3315 23.1549 42.8814 21.6471 39.0898C21.4945 38.6999 21.394 38.3009 21.3443 37.8951Z" fill="white"/>
<path fill-rule="evenodd" clip-rule="evenodd" d="M35.9173 19.9595C35.557 19.0517 34.4621 18.5832 33.472 18.9154L33.4715 18.9155L33.1793 19.0133C33.1792 19.0134 33.1791 19.0134 33.1789 19.0135C32.1901 19.3457 31.6806 20.3518 32.0421 21.261L33.8428 25.7914C33.9724 26.1176 33.8154 26.4813 33.4776 26.6372C33.1397 26.7931 32.7284 26.6917 32.5209 26.4014C32.0338 25.7198 31.225 25.4679 30.5807 25.6835C30.5805 25.6835 30.5804 25.6836 30.5802 25.6836L30.32 25.7713C29.5589 26.0268 29.0692 26.9425 29.4593 27.9247C29.4593 27.9247 29.4593 27.9247 29.4593 27.9247C29.4594 27.9249 29.4595 27.9252 29.4596 27.9255L29.6698 28.4522C29.6713 28.4562 29.6729 28.4601 29.6745 28.464C29.8151 28.8187 29.6164 29.2111 29.2304 29.3406C28.8444 29.4702 28.4172 29.288 28.2757 28.9336L28.2752 28.9323C28.2741 28.9293 28.2729 28.9264 28.2717 28.9235C27.8797 27.9479 26.8658 27.5401 26.1071 27.7947C26.107 27.7947 26.1069 27.7947 26.1069 27.7948L25.8463 27.8825C25.085 28.1381 24.5952 29.0543 24.9858 30.0367C25.1269 30.3916 24.9281 30.7843 24.5418 30.9139C24.1555 31.0435 23.728 30.8608 23.587 30.506C23.5868 30.5057 23.5867 30.5054 23.5866 30.505L22.3024 27.2749C21.9421 26.367 20.8471 25.8986 19.8571 26.2307L19.8566 26.2309L19.5644 26.3287C19.5643 26.3287 19.5643 26.3288 19.5642 26.3288C18.5753 26.6609 18.0657 27.6671 18.4271 28.5764C18.4272 28.5764 18.4271 28.5764 18.4271 28.5764L22.0135 37.5964C22.0502 37.6657 22.0743 37.7409 22.0839 37.8193C22.127 38.1718 22.2142 38.5181 22.3468 38.8572C22.9934 40.4815 24.6418 41.6733 26.9303 42.2208C29.216 42.7677 32.0682 42.6465 34.928 41.6867C37.5092 40.8208 39.6087 39.4352 40.9964 37.8684C42.3885 36.2968 43.0292 34.5885 42.8178 33.0485C42.7972 32.899 42.831 32.7476 42.9138 32.6175L46.3737 27.1843C46.3737 27.1843 46.3736 27.1844 46.3737 27.1843C46.9056 26.3488 46.5995 25.2755 45.6899 24.7867L45.6897 24.7866L45.4206 24.642C44.511 24.1533 43.3426 24.4345 42.8106 25.2701L40.6661 28.6377C40.5205 28.8664 40.2441 28.9973 39.9568 28.9736C39.6695 28.9499 39.423 28.7759 39.324 28.527L35.9173 19.9595ZM20.6172 38.072L17.0283 29.0457C16.3846 27.4265 17.2921 25.6352 19.0531 25.0439L19.3462 24.9457C19.3462 24.9457 19.3462 24.9458 19.3462 24.9457C21.1085 24.3546 23.0589 25.1878 23.7014 26.806C23.7014 26.8061 23.7015 26.8062 23.7015 26.8063L23.9888 27.5289C24.3167 27.117 24.769 26.7878 25.3347 26.5978C25.3348 26.5978 25.3349 26.5977 25.3351 26.5977L25.5957 26.5099C26.3856 26.2447 27.1971 26.318 27.8993 26.6303C28.0956 25.6757 28.7556 24.8401 29.8087 24.4865C29.8087 24.4864 29.8088 24.4864 29.8088 24.4864L30.0687 24.3989L30.0699 24.3985C30.6035 24.2197 31.1487 24.1964 31.6633 24.2968L30.6432 21.7303C30.6432 21.7303 30.6433 21.7303 30.6432 21.7303C29.9996 20.1111 30.9071 18.3198 32.6681 17.7285L32.9611 17.6304C34.7234 17.0392 36.6738 17.8724 37.3163 19.4906C37.3163 19.4907 37.3164 19.4908 37.3164 19.4909L40.1798 26.6921L41.5251 24.5794C41.5251 24.5794 41.5251 24.5794 41.5251 24.5794C42.4723 23.0918 44.5528 22.5909 46.1724 23.4611L46.1726 23.4612L46.4417 23.6059C48.0612 24.476 48.6064 26.3872 47.6591 27.875L44.3226 33.1145C44.5036 35.0516 43.659 37.0299 42.1516 38.7318C40.5784 40.508 38.2474 42.0295 35.4389 42.9716C32.3309 44.0148 29.1686 44.17 26.5549 43.5447C23.9448 42.9202 21.809 41.4917 20.9474 39.3251L20.9461 39.3219C20.7863 38.9138 20.677 38.4962 20.6172 38.072Z" fill="#070707"/>
<path d="M75.5646 112.1V111.268C75.5646 104.441 70.3003 98.9089 63.805 98.9089H61.8827C55.3886 98.9089 50.123 104.442 50.123 111.268V112.1H75.5646Z" fill="white"/>
<path fill-rule="evenodd" clip-rule="evenodd" d="M49.3779 111.268C49.3779 104.155 54.8859 98.2256 61.8822 98.2256H63.8045C70.802 98.2256 76.3087 104.154 76.3087 111.268V112.784H49.3779V111.268ZM61.8822 99.5936C55.8902 99.5936 50.8671 104.732 50.8671 111.268V111.417H74.8195V111.268C74.8195 104.73 69.7976 99.5936 63.8045 99.5936H61.8822Z" fill="#0A0A0A"/>
<defs>
<linearGradient id="paint0_linear" x1="54.9333" y1="11.3936" x2="64.8801" y2="46.1453" gradientUnits="userSpaceOnUse">
<stop stop-color="#00C4F6"/>
<stop offset="1" stop-color="#151515"/>
</linearGradient>
<linearGradient id="paint1_linear" x1="67.0388" y1="23.2244" x2="67.0569" y2="32.3724" gradientUnits="userSpaceOnUse">
<stop stop-color="#80D8FF"/>
<stop offset="0.0001" stop-color="#4CFEE9"/>
<stop offset="1" stop-color="#EA80FC"/>
</linearGradient>
<linearGradient id="paint2_linear" x1="70.4167" y1="31.8583" x2="70.4355" y2="48.8868" gradientUnits="userSpaceOnUse">
<stop stop-color="#80D8FF"/>
<stop offset="0.0001" stop-color="#4CFEE9"/>
<stop offset="1" stop-color="#EA80FC"/>
</linearGradient>
</defs>
</svg>
