<svg width="117" height="117" viewBox="0 0 117 117" fill="none" xmlns="http://www.w3.org/2000/svg">
<g filter="url(#filter0_dddf)">
<rect x="-0.476511" y="-0.150213" width="50.6892" height="17.3618" rx="3.92188" transform="matrix(0.882764 -0.469816 0.453745 0.891131 48.5699 39.9525)" stroke="url(#paint0_linear)" stroke-width="0.713068"/>
</g>
<path opacity="0.5" fill-rule="evenodd" clip-rule="evenodd" d="M53.2089 46.835L50.253 41.5773L50.2479 41.5685C50.1619 41.4154 50.1307 41.2472 50.1478 41.0846C50.1765 40.8112 50.3418 40.5534 50.6127 40.4092L50.6241 40.4033L90.9715 18.9339L90.9828 18.9277C91.4149 18.6978 91.9522 18.844 92.1828 19.2542L95.1896 24.6023C95.2044 24.6287 95.2176 24.6556 95.2293 24.6828L98.1798 29.9308C98.1832 29.9365 98.1865 29.9423 98.1898 29.9481C98.3916 30.3071 98.2917 30.7494 97.974 31.0083C97.9358 31.0395 97.8945 31.068 97.8502 31.0933C97.8418 31.0981 97.8334 31.1028 97.8248 31.1073L97.8166 31.1116L57.4568 52.5877L57.4548 52.5887C57.0227 52.8187 56.4855 52.6725 56.2548 52.2623L53.248 46.9141C53.2334 46.8882 53.2204 46.8618 53.2089 46.835ZM93.5784 25.3523L91.0357 20.8297L52.2303 41.4786L54.8195 46.0838C54.8341 46.1098 54.8471 46.1362 54.8586 46.163L57.402 50.6868L96.2072 30.038L93.6181 25.4327C93.6032 25.4063 93.59 25.3795 93.5784 25.3523Z" fill="url(#paint1_linear)"/>
<path d="M52.0518 41.2191L91.2865 20.3418L96.7366 30.0357L57.5019 50.9131L52.0518 41.2191Z" fill="url(#paint2_linear)"/>
<path d="M65.8045 41.4782C65.7327 41.3505 65.6297 41.2774 65.4955 41.2589C65.3627 41.2397 65.1531 41.2604 64.8668 41.3212C64.5804 41.3819 64.3401 41.4078 64.1457 41.3989C63.7732 41.381 63.5118 41.2383 63.3615 40.9708C63.2298 40.7366 63.2215 40.4903 63.3367 40.232C63.4532 39.9729 63.672 39.7579 63.9929 39.5871C64.206 39.4738 64.4168 39.41 64.6255 39.3957C64.8342 39.3815 65.0251 39.4182 65.1982 39.5059C65.3706 39.5922 65.5039 39.7193 65.5982 39.8869L65.0684 40.1688C64.9831 40.0171 64.866 39.9256 64.7172 39.8941C64.5691 39.8605 64.4018 39.8934 64.2154 39.9926C64.0416 40.085 63.9262 40.1923 63.8691 40.3143C63.8135 40.4355 63.8212 40.5593 63.8922 40.6858C63.9521 40.7922 64.0541 40.8538 64.1982 40.8704C64.3416 40.8858 64.5515 40.864 64.8279 40.8051C65.1036 40.7448 65.3379 40.7195 65.5309 40.7292C65.7231 40.7375 65.8843 40.7797 66.0145 40.8557C66.1438 40.9303 66.2504 41.0422 66.3342 41.1912C66.4704 41.4334 66.4807 41.6786 66.3653 41.9267C66.2505 42.1727 66.0257 42.3849 65.6907 42.5631C65.4692 42.681 65.2436 42.7509 65.0138 42.7729C64.7846 42.7929 64.5797 42.7619 64.3989 42.68C64.2195 42.5974 64.0786 42.4649 63.9761 42.2826L64.508 41.9996C64.6008 42.1646 64.7301 42.2618 64.8959 42.2911C65.0617 42.3204 65.2518 42.278 65.4662 42.1639C65.6512 42.0655 65.7702 41.9564 65.823 41.8366C65.8765 41.7148 65.8704 41.5954 65.8045 41.4782Z" fill="white"/>
<path d="M67.8291 37.5977L68.921 39.5399C69.0946 39.8486 69.1278 40.149 69.0207 40.4411C68.9143 40.7311 68.688 40.9682 68.3418 41.1524C67.9914 41.3389 67.6634 41.3985 67.3579 41.3311C67.0516 41.2624 66.8098 41.0704 66.6325 40.755L65.5417 38.8149L66.0715 38.5329L67.1645 40.4771C67.2738 40.6714 67.4091 40.7922 67.5704 40.8394C67.7317 40.8867 67.9133 40.8566 68.1151 40.7492C68.5244 40.5315 68.6138 40.2177 68.3834 39.8078L67.2993 37.8796L67.8291 37.5977Z" fill="white"/>
<path d="M70.0328 40.2008L68.3989 37.2945L69.448 36.7363C69.7942 36.5521 70.0947 36.4777 70.3496 36.5133C70.6044 36.5488 70.8052 36.697 70.9518 36.9578C71.0266 37.0908 71.0561 37.2307 71.0403 37.3775C71.0245 37.5242 70.9601 37.6656 70.8473 37.8017C71.0366 37.7563 71.2094 37.769 71.3657 37.8397C71.5226 37.9083 71.6475 38.0251 71.7403 38.1901C71.8936 38.4629 71.9189 38.7217 71.8162 38.9665C71.7149 39.2106 71.4926 39.424 71.1492 39.6067L70.0328 40.2008ZM69.8274 38.6063L70.338 39.5145L70.9288 39.2002C71.0956 39.1114 71.2039 39.0028 71.2536 38.8743C71.3034 38.7459 71.289 38.6117 71.2105 38.472C71.0406 38.17 70.7913 38.1021 70.4623 38.2685L69.8274 38.6063ZM69.6187 38.2351L70.1401 37.9576C70.3055 37.8696 70.4146 37.7657 70.4674 37.646C70.521 37.5242 70.511 37.398 70.4377 37.2676C70.3569 37.1239 70.2551 37.0432 70.1323 37.0256C70.0109 37.0072 69.8591 37.0465 69.6769 37.1435L69.1597 37.4187L69.6187 38.2351Z" fill="white"/>
<path d="M73.9282 37.1555C73.8564 37.0278 73.7534 36.9547 73.6191 36.9362C73.4863 36.917 73.2768 36.9377 72.9904 36.9985C72.7041 37.0592 72.4637 37.0851 72.2693 37.0762C71.8969 37.0582 71.6355 36.9155 71.4851 36.6481C71.3534 36.4139 71.3452 36.1676 71.4603 35.9092C71.5769 35.6501 71.7956 35.4352 72.1166 35.2644C72.3296 35.151 72.5405 35.0872 72.7492 35.073C72.9579 35.0588 73.1488 35.0955 73.3219 35.1832C73.4942 35.2695 73.6276 35.3965 73.7218 35.5642L73.192 35.8461C73.1067 35.6944 72.9897 35.6028 72.8409 35.5714C72.6928 35.5378 72.5255 35.5707 72.3391 35.6698C72.1653 35.7623 72.0498 35.8696 71.9928 35.9916C71.9371 36.1128 71.9448 36.2366 72.0159 36.363C72.0758 36.4695 72.1777 36.5311 72.3219 36.5477C72.4652 36.5631 72.6751 36.5413 72.9516 36.4823C73.2272 36.4221 73.4616 36.3968 73.6546 36.4065C73.8468 36.4148 74.008 36.457 74.1381 36.533C74.2675 36.6076 74.3741 36.7195 74.4579 36.8685C74.594 37.1107 74.6044 37.3559 74.489 37.604C74.3742 37.85 74.1493 38.0622 73.8143 38.2404C73.5929 38.3583 73.3673 38.4282 73.1374 38.4502C72.9083 38.4701 72.7033 38.4392 72.5226 38.3573C72.3432 38.2747 72.2022 38.1422 72.0997 37.9599L72.6317 37.6769C72.7244 37.8419 72.8537 37.9391 73.0195 37.9684C73.1853 37.9977 73.3754 37.9553 73.5899 37.8412C73.7749 37.7428 73.8938 37.6337 73.9467 37.5139C74.0002 37.3921 73.994 37.2726 73.9282 37.1555Z" fill="white"/>
<path d="M77.1515 35.1836C77.295 35.5101 77.3106 35.8164 77.1984 36.1026C77.0854 36.3875 76.8544 36.6228 76.5054 36.8085C76.2615 36.9383 76.0157 36.9982 75.7679 36.9882C75.5208 36.9762 75.29 36.896 75.0753 36.7474C74.8607 36.5988 74.6761 36.3919 74.5215 36.1267L74.3689 35.8552C74.2148 35.5811 74.1301 35.3124 74.115 35.049C74.0999 34.7856 74.1558 34.5467 74.2828 34.3321C74.4113 34.1169 74.6009 33.9425 74.8518 33.809C75.1896 33.6292 75.5105 33.5717 75.8145 33.6364C76.1186 33.7011 76.3768 33.8835 76.5893 34.1836L76.0595 34.4655C75.9168 34.27 75.7678 34.154 75.6124 34.1174C75.4577 34.0786 75.2809 34.1122 75.0819 34.2182C74.8506 34.3412 74.7178 34.5164 74.6836 34.7438C74.6501 34.9691 74.719 35.2376 74.8906 35.5491L75.0353 35.8066C75.2119 36.1207 75.4054 36.3289 75.6159 36.4312C75.8278 36.5328 76.048 36.5229 76.2765 36.4013C76.4853 36.2902 76.6172 36.1621 76.6722 36.017C76.7272 35.8719 76.7104 35.6881 76.6217 35.4656L77.1515 35.1836Z" fill="white"/>
<path d="M78.6559 34.1575L78.063 34.473L78.6926 35.5928L78.1607 35.8758L76.5267 32.9696L77.6032 32.3968C77.9564 32.2088 78.2712 32.139 78.5478 32.1872C78.8244 32.2354 79.0427 32.4018 79.2028 32.6866C79.312 32.8809 79.3539 33.0704 79.3285 33.2551C79.3037 33.4377 79.2228 33.6112 79.0858 33.7757L80.4545 34.6215L80.4691 34.6475L79.8993 34.9506L78.6559 34.1575ZM77.8352 34.0678L78.3818 33.7769C78.5612 33.6815 78.6774 33.5643 78.7305 33.4254C78.7828 33.2853 78.767 33.1406 78.6832 32.9916C78.5957 32.8359 78.481 32.7405 78.3392 32.7053C78.1989 32.6693 78.0354 32.6992 77.8489 32.795L77.2876 33.0937L77.8352 34.0678Z" fill="white"/>
<path d="M81.4089 34.1474L80.8791 34.4293L79.2451 31.5231L79.7749 31.2412L81.4089 34.1474Z" fill="white"/>
<path d="M82.0627 33.7995L80.4288 30.8932L81.4779 30.335C81.8241 30.1508 82.1246 30.0764 82.3795 30.112C82.6343 30.1475 82.8351 30.2957 82.9817 30.5565C83.0565 30.6896 83.086 30.8295 83.0702 30.9762C83.0544 31.1229 82.99 31.2643 82.8772 31.4005C83.0665 31.355 83.2393 31.3677 83.3956 31.4384C83.5525 31.507 83.6774 31.6238 83.7702 31.7888C83.9235 32.0616 83.9489 32.3204 83.8461 32.5652C83.7448 32.8093 83.5225 33.0227 83.1791 33.2055L82.0627 33.7995ZM81.8573 32.205L82.3679 33.1133L82.9587 32.7989C83.1255 32.7101 83.2338 32.6015 83.2835 32.473C83.3333 32.3446 83.3189 32.2105 83.2404 32.0707C83.0705 31.7687 82.8212 31.7008 82.4923 31.8672L81.8573 32.205ZM81.6486 31.8338L82.17 31.5563C82.3354 31.4683 82.4445 31.3645 82.4974 31.2447C82.5509 31.1229 82.541 30.9968 82.4676 30.8664C82.3868 30.7226 82.285 30.642 82.1622 30.6243C82.0408 30.6059 81.889 30.6452 81.7068 30.7422L81.1896 31.0174L81.6486 31.8338Z" fill="white"/>
<path d="M85.8387 30.1046L84.5815 30.7736L85.0842 31.6679L86.5538 30.8859L86.7805 31.2891L84.779 32.3541L83.1451 29.4479L85.1318 28.3907L85.3608 28.7979L83.9059 29.572L84.357 30.3744L85.6143 29.7054L85.8387 30.1046Z" fill="white"/>
<path opacity="0.5" fill-rule="evenodd" clip-rule="evenodd" d="M36.9414 85.5509L34.9232 81.9612L34.9198 81.9552C34.861 81.8507 34.8397 81.7358 34.8514 81.6248C34.871 81.4381 34.9839 81.2621 35.1688 81.1637L35.1766 81.1596L62.7236 66.5015L62.7313 66.4973C63.0264 66.3403 63.3932 66.4401 63.5506 66.7202L65.6035 70.3716C65.6136 70.3896 65.6227 70.408 65.6306 70.4265L67.6451 74.0096C67.6474 74.0135 67.6496 74.0174 67.6519 74.0214C67.7897 74.2665 67.7215 74.5685 67.5046 74.7453C67.4785 74.7665 67.4503 74.786 67.42 74.8033C67.4143 74.8066 67.4085 74.8098 67.4027 74.8129L67.3971 74.8158L39.8416 89.4785L39.8403 89.4792C39.5452 89.6362 39.1784 89.5364 39.021 89.2563L36.9681 85.6049C36.9581 85.5872 36.9492 85.5691 36.9414 85.5509ZM64.5035 70.8837L62.7675 67.7959L36.2733 81.8938L38.041 85.038C38.0509 85.0558 38.0598 85.0738 38.0677 85.0921L39.8042 88.1807L66.2983 74.0828L64.5305 70.9386C64.5204 70.9206 64.5114 70.9022 64.5035 70.8837Z" fill="url(#paint3_linear)"/>
<path d="M36.1494 81.7151L62.9367 67.4612L66.6578 74.0797L39.8704 88.3336L36.1494 81.7151Z" fill="url(#paint4_linear)"/>
<path d="M45.5412 81.8909C45.4921 81.8036 45.4218 81.7537 45.3302 81.7411C45.2395 81.728 45.0964 81.7422 44.9009 81.7836C44.7054 81.8251 44.5413 81.8428 44.4086 81.8367C44.1543 81.8244 43.9758 81.727 43.8732 81.5444C43.7833 81.3845 43.7776 81.2164 43.8562 81.04C43.9358 80.8631 44.0851 80.7163 44.3043 80.5997C44.4497 80.5223 44.5937 80.4788 44.7362 80.469C44.8787 80.4593 45.009 80.4844 45.1272 80.5443C45.2449 80.6032 45.3359 80.6899 45.4003 80.8044L45.0385 80.9969C44.9803 80.8933 44.9004 80.8308 44.7988 80.8093C44.6977 80.7864 44.5835 80.8088 44.4562 80.8765C44.3375 80.9397 44.2587 81.0129 44.2198 81.0962C44.1818 81.1789 44.187 81.2635 44.2355 81.3498C44.2764 81.4225 44.346 81.4645 44.4444 81.4759C44.5423 81.4864 44.6856 81.4715 44.8744 81.4313C45.0626 81.3901 45.2226 81.3728 45.3543 81.3795C45.4856 81.3852 45.5956 81.4139 45.6845 81.4658C45.7728 81.5168 45.8456 81.5931 45.9028 81.6949C45.9957 81.8603 46.0028 82.0276 45.924 82.197C45.8457 82.365 45.6921 82.5099 45.4634 82.6316C45.3122 82.712 45.1582 82.7598 45.0013 82.7748C44.8448 82.7884 44.7049 82.7673 44.5815 82.7114C44.459 82.655 44.3628 82.5645 44.2928 82.4401L44.6559 82.2468C44.7193 82.3595 44.8076 82.4258 44.9208 82.4458C45.034 82.4659 45.1638 82.4369 45.3102 82.359C45.4365 82.2918 45.5177 82.2173 45.5538 82.1356C45.5903 82.0524 45.5861 81.9708 45.5412 81.8909Z" fill="white"/>
<path d="M46.9234 79.2414L47.6689 80.5674C47.7874 80.7782 47.8101 80.9833 47.737 81.1828C47.6643 81.3808 47.5098 81.5427 47.2735 81.6684C47.0342 81.7957 46.8103 81.8364 46.6017 81.7904C46.3926 81.7435 46.2275 81.6124 46.1064 81.3971L45.3617 80.0724L45.7234 79.88L46.4697 81.2073C46.5443 81.34 46.6366 81.4224 46.7468 81.4547C46.8569 81.487 46.9809 81.4665 47.1187 81.3931C47.3981 81.2445 47.4592 81.0302 47.3018 80.7504L46.5617 79.4339L46.9234 79.2414Z" fill="white"/>
<path d="M48.428 81.0187L47.3124 79.0344L48.0287 78.6533C48.265 78.5275 48.4702 78.4768 48.6442 78.501C48.8183 78.5253 48.9553 78.6265 49.0554 78.8045C49.1065 78.8954 49.1267 78.9909 49.1158 79.0911C49.105 79.1913 49.0611 79.2878 48.9841 79.3808C49.1133 79.3497 49.2313 79.3584 49.338 79.4066C49.4452 79.4535 49.5304 79.5332 49.5937 79.6459C49.6985 79.8322 49.7157 80.0089 49.6456 80.176C49.5764 80.3426 49.4246 80.4883 49.1902 80.6131L48.428 81.0187ZM48.2878 79.9301L48.6364 80.5502L49.0397 80.3355C49.1536 80.2749 49.2275 80.2008 49.2615 80.1131C49.2955 80.0253 49.2857 79.9338 49.232 79.8384C49.1161 79.6321 48.9458 79.5858 48.7212 79.6994L48.2878 79.9301ZM48.1452 79.6766L48.5012 79.4872C48.6141 79.4271 48.6886 79.3562 48.7247 79.2744C48.7613 79.1912 48.7545 79.1051 48.7044 79.0161C48.6493 78.918 48.5798 78.8629 48.4959 78.8509C48.413 78.8383 48.3094 78.8651 48.185 78.9313L47.8319 79.1192L48.1452 79.6766Z" fill="white"/>
<path d="M51.0875 78.9396C51.0385 78.8523 50.9682 78.8024 50.8765 78.7898C50.7859 78.7767 50.6428 78.7908 50.4473 78.8323C50.2518 78.8738 50.0877 78.8915 49.955 78.8854C49.7007 78.8731 49.5222 78.7757 49.4195 78.5931C49.3296 78.4332 49.324 78.265 49.4026 78.0887C49.4822 77.9118 49.6315 77.765 49.8507 77.6484C49.9961 77.571 50.1401 77.5274 50.2826 77.5177C50.4251 77.508 50.5554 77.5331 50.6736 77.5929C50.7913 77.6519 50.8823 77.7386 50.9466 77.8531L50.5849 78.0456C50.5267 77.942 50.4468 77.8795 50.3452 77.858C50.2441 77.8351 50.1298 77.8575 50.0026 77.9252C49.8839 77.9883 49.8051 78.0616 49.7661 78.1448C49.7281 78.2276 49.7334 78.3122 49.7819 78.3985C49.8228 78.4712 49.8924 78.5132 49.9908 78.5246C50.0887 78.535 50.232 78.5202 50.4207 78.4799C50.609 78.4388 50.769 78.4215 50.9007 78.4281C51.032 78.4338 51.142 78.4626 51.2309 78.5145C51.3192 78.5655 51.392 78.6418 51.4492 78.7436C51.5421 78.9089 51.5492 79.0763 51.4704 79.2457C51.392 79.4137 51.2385 79.5586 51.0098 79.6803C50.8586 79.7607 50.7046 79.8085 50.5477 79.8235C50.3912 79.8371 50.2513 79.816 50.1279 79.7601C50.0054 79.7036 49.9092 79.6132 49.8392 79.4887L50.2023 79.2955C50.2657 79.4082 50.3539 79.4745 50.4671 79.4945C50.5804 79.5146 50.7102 79.4856 50.8566 79.4077C50.9829 79.3405 51.0641 79.266 51.1002 79.1842C51.1367 79.1011 51.1325 79.0195 51.0875 78.9396Z" fill="white"/>
<path d="M53.2882 77.5933C53.3862 77.8161 53.3969 78.0253 53.3202 78.2207C53.2431 78.4152 53.0854 78.5758 52.8471 78.7026C52.6806 78.7912 52.5128 78.8321 52.3436 78.8253C52.1749 78.8171 52.0173 78.7623 51.8707 78.6609C51.7242 78.5595 51.5982 78.4182 51.4926 78.2371L51.3884 78.0518C51.2832 77.8646 51.2254 77.6811 51.2151 77.5013C51.2047 77.3215 51.2429 77.1584 51.3297 77.0119C51.4174 76.8649 51.5468 76.7458 51.7181 76.6547C51.9488 76.532 52.1679 76.4927 52.3754 76.5369C52.583 76.581 52.7593 76.7056 52.9044 76.9105L52.5427 77.103C52.4452 76.9695 52.3435 76.8903 52.2374 76.8652C52.1318 76.8388 52.0111 76.8618 51.8752 76.9341C51.7173 77.0181 51.6267 77.1377 51.6033 77.293C51.5804 77.4468 51.6275 77.6301 51.7446 77.8428L51.8434 78.0186C51.964 78.233 52.0961 78.3751 52.2398 78.445C52.3845 78.5144 52.5348 78.5076 52.6908 78.4246C52.8334 78.3487 52.9235 78.2613 52.961 78.1622C52.9986 78.0631 52.9871 77.9376 52.9265 77.7857L53.2882 77.5933Z" fill="white"/>
<path d="M54.3154 76.8927L53.9106 77.1081L54.3404 77.8726L53.9772 78.0658L52.8617 76.0816L53.5966 75.6905C53.8377 75.5622 54.0527 75.5145 54.2416 75.5474C54.4304 75.5803 54.5794 75.694 54.6887 75.8884C54.7633 76.0211 54.7919 76.1504 54.7745 76.2765C54.7576 76.4012 54.7024 76.5197 54.6089 76.632L55.5434 77.2095L55.5533 77.2272L55.1643 77.4342L54.3154 76.8927ZM53.755 76.8314L54.1282 76.6328C54.2507 76.5677 54.3301 76.4877 54.3663 76.3929C54.402 76.2971 54.3912 76.1984 54.334 76.0966C54.2743 75.9903 54.196 75.9252 54.0992 75.9012C54.0033 75.8766 53.8917 75.897 53.7644 75.9624L53.3811 76.1664L53.755 76.8314Z" fill="white"/>
<path d="M56.1949 76.8858L55.8332 77.0782L54.7176 75.094L55.0794 74.9015L56.1949 76.8858Z" fill="white"/>
<path d="M56.6413 76.6482L55.5258 74.664L56.242 74.2829C56.4784 74.1571 56.6836 74.1063 56.8576 74.1306C57.0316 74.1549 57.1687 74.256 57.2688 74.4341C57.3199 74.5249 57.34 74.6205 57.3292 74.7206C57.3184 74.8208 57.2745 74.9174 57.1974 75.0103C57.3267 74.9793 57.4447 74.9879 57.5514 75.0362C57.6585 75.083 57.7438 75.1628 57.8071 75.2755C57.9118 75.4617 57.9291 75.6384 57.859 75.8056C57.7898 75.9722 57.638 76.1179 57.4035 76.2427L56.6413 76.6482ZM56.5011 75.5596L56.8497 76.1797L57.2531 75.9651C57.367 75.9045 57.4409 75.8303 57.4749 75.7426C57.5088 75.6549 57.499 75.5633 57.4454 75.4679C57.3294 75.2617 57.1592 75.2154 56.9346 75.329L56.5011 75.5596ZM56.3586 75.3062L56.7146 75.1167C56.8275 75.0566 56.902 74.9857 56.9381 74.904C56.9746 74.8208 56.9679 74.7347 56.9178 74.6456C56.8626 74.5475 56.7931 74.4924 56.7093 74.4804C56.6264 74.4679 56.5227 74.4947 56.3983 74.5609L56.0452 74.7488L56.3586 75.3062Z" fill="white"/>
<path d="M59.2194 74.1256L58.361 74.5823L58.7043 75.1929L59.7076 74.659L59.8624 74.9343L58.4959 75.6614L57.3803 73.6772L58.7368 72.9554L58.8931 73.2334L57.8998 73.7619L58.2078 74.3098L59.0662 73.853L59.2194 74.1256Z" fill="white"/>
<path fill-rule="evenodd" clip-rule="evenodd" d="M34.5557 83.6373L35.733 80.0052L35.7349 79.999C35.7692 79.8933 35.8347 79.8054 35.9189 79.7414C36.0604 79.634 36.2546 79.5943 36.4418 79.6517L36.4496 79.6541L64.3221 88.2045L64.33 88.2069C64.6285 88.2985 64.796 88.6024 64.7041 88.8858L63.5066 92.5804C63.5007 92.5986 63.4939 92.6163 63.4862 92.6335L62.3111 96.2589C62.3099 96.2629 62.3086 96.2669 62.3073 96.2709C62.227 96.5189 61.9746 96.669 61.7127 96.6412C61.6812 96.6379 61.6496 96.632 61.6182 96.6234C61.6122 96.6218 61.6063 96.6201 61.6004 96.6182L61.5948 96.6165L33.7137 88.0634L33.7123 88.063C33.4138 87.9714 33.2463 87.6675 33.3382 87.3841L34.5356 83.6895C34.5415 83.6716 34.5482 83.6542 34.5557 83.6373ZM62.4442 92.1917L63.4569 89.0674L36.6496 80.8438L35.6184 84.0251C35.6126 84.0431 35.6059 84.0605 35.5983 84.0774L34.5854 87.2025L61.3926 95.4262L62.4237 92.2448C62.4297 92.2265 62.4365 92.2088 62.4442 92.1917Z" fill="url(#paint5_linear)"/>
<path d="M36.6934 80.6481L63.7972 88.9627L61.6266 95.6594L34.5228 87.3448L36.6934 80.6481Z" fill="url(#paint6_linear)"/>
<path d="M42.623 86.8984C42.6516 86.8101 42.6407 86.732 42.5904 86.664C42.541 86.5963 42.439 86.5119 42.2844 86.4109C42.1298 86.3099 42.0118 86.2141 41.9305 86.1235C41.775 85.9495 41.7273 85.7701 41.7871 85.5853C41.8396 85.4235 41.952 85.3115 42.1244 85.2491C42.2978 85.1871 42.4954 85.1901 42.7171 85.2581C42.8643 85.3033 42.9871 85.3693 43.0857 85.4561C43.1842 85.5429 43.2509 85.6442 43.2858 85.76C43.3209 85.8749 43.3197 85.9903 43.2822 86.1061L42.9162 85.9938C42.9501 85.889 42.9418 85.7965 42.8912 85.7163C42.8418 85.6354 42.7527 85.5753 42.6239 85.5358C42.5039 85.4989 42.4025 85.4946 42.3199 85.5229C42.2383 85.5514 42.1833 85.6093 42.155 85.6966C42.1312 85.7702 42.1471 85.8428 42.2026 85.9144C42.2585 85.9851 42.3611 86.0691 42.5105 86.1665C42.6602 86.263 42.7753 86.3564 42.8556 86.4467C42.9363 86.5361 42.9873 86.6266 43.0088 86.7181C43.0305 86.8086 43.0247 86.9054 42.9913 87.0083C42.9371 87.1756 42.8261 87.2881 42.6584 87.3458C42.4919 87.4029 42.293 87.396 42.0616 87.325C41.9086 87.278 41.7764 87.2082 41.6649 87.1153C41.5546 87.0219 41.479 86.9168 41.4381 86.8002C41.3981 86.6838 41.3985 86.5627 41.4393 86.4367L41.8068 86.5494C41.7698 86.6634 41.7809 86.7639 41.8401 86.8507C41.8992 86.9376 42.0028 87.0037 42.151 87.0492C42.2788 87.0884 42.3825 87.0934 42.4622 87.0643C42.5432 87.0346 42.5968 86.9793 42.623 86.8984Z" fill="white"/>
<path d="M45.3428 86.0939L44.9079 87.4356C44.8388 87.6488 44.7118 87.7959 44.527 87.8766C44.3435 87.9568 44.1322 87.9602 43.893 87.8868C43.6509 87.8125 43.4786 87.6924 43.3759 87.5265C43.2735 87.3597 43.2576 87.1673 43.3282 86.9495L43.7626 85.6092L44.1286 85.7214L43.6933 87.0645C43.6498 87.1987 43.6524 87.3122 43.7011 87.405C43.7498 87.4977 43.8439 87.5655 43.9833 87.6083C44.266 87.695 44.4533 87.5968 44.545 87.3137L44.9768 85.9816L45.3428 86.0939Z" fill="white"/>
<path d="M45.0856 88.2223L45.7364 86.2147L46.4611 86.437C46.7002 86.5103 46.8675 86.6117 46.9629 86.741C47.0583 86.8703 47.0768 87.0251 47.0184 87.2053C46.9886 87.2972 46.9357 87.3719 46.8596 87.4294C46.7834 87.4869 46.6885 87.5204 46.5747 87.53C46.6794 87.5945 46.7495 87.6771 46.7849 87.7779C46.8216 87.8781 46.8215 87.9852 46.7846 88.0992C46.7235 88.2877 46.6127 88.4128 46.4521 88.4748C46.2925 88.537 46.094 88.5317 45.8568 88.4589L45.0856 88.2223ZM45.7467 87.4291L45.5433 88.0565L45.9515 88.1817C46.0667 88.2171 46.1655 88.2176 46.248 88.1832C46.3304 88.1489 46.3873 88.0835 46.4186 87.9869C46.4862 87.7783 46.4085 87.6372 46.1853 87.5637L45.7467 87.4291ZM45.8298 87.1726L46.19 87.2831C46.3043 87.3182 46.4012 87.3211 46.4809 87.292C46.5619 87.2623 46.617 87.2024 46.6462 87.1123C46.6784 87.013 46.6716 86.9321 46.6259 86.8696C46.5811 86.8073 46.4958 86.7569 46.3699 86.7183L46.0126 86.6087L45.8298 87.1726Z" fill="white"/>
<path d="M48.2349 88.6199C48.2635 88.5317 48.2527 88.4536 48.2023 88.3856C48.1529 88.3179 48.0509 88.2335 47.8963 88.1325C47.7417 88.0315 47.6237 87.9357 47.5424 87.8451C47.3869 87.671 47.3392 87.4916 47.3991 87.3069C47.4515 87.1451 47.5639 87.033 47.7364 86.9707C47.9098 86.9087 48.1073 86.9117 48.329 86.9797C48.4762 87.0248 48.5991 87.0908 48.6976 87.1777C48.7961 87.2645 48.8628 87.3658 48.8977 87.4816C48.9328 87.5965 48.9316 87.7118 48.8941 87.8277L48.5281 87.7154C48.5621 87.6106 48.5537 87.5181 48.5031 87.4379C48.4537 87.357 48.3646 87.2968 48.2359 87.2573C48.1158 87.2205 48.0145 87.2162 47.9319 87.2444C47.8502 87.273 47.7953 87.3309 47.767 87.4182C47.7431 87.4918 47.759 87.5643 47.8145 87.636C47.8704 87.7067 47.973 87.7907 48.1224 87.8881C48.2721 87.9845 48.3872 88.0779 48.4675 88.1683C48.5482 88.2577 48.5993 88.3482 48.6207 88.4396C48.6424 88.5302 48.6366 88.6269 48.6033 88.7299C48.549 88.8972 48.4381 89.0097 48.2703 89.0674C48.1039 89.1245 47.9049 89.1175 47.6735 89.0465C47.5205 88.9996 47.3883 88.9297 47.2768 88.8369C47.1666 88.7435 47.091 88.6384 47.05 88.5217C47.01 88.4054 47.0104 88.2842 47.0512 88.1583L47.4187 88.271C47.3817 88.385 47.3928 88.4854 47.452 88.5723C47.5111 88.6592 47.6147 88.7253 47.7629 88.7708C47.8907 88.81 47.9944 88.815 48.0741 88.7859C48.1551 88.7561 48.2087 88.7008 48.2349 88.6199Z" fill="white"/>
<path d="M50.5826 89.1901C50.4919 89.3977 50.3544 89.5395 50.1701 89.6153C49.9862 89.6903 49.7736 89.6908 49.5325 89.6168C49.3641 89.5651 49.2276 89.4819 49.1233 89.367C49.0202 89.2515 48.9565 89.1132 48.932 88.952C48.9076 88.7909 48.9239 88.6175 48.9809 88.4319L49.0417 88.2443C49.103 88.055 49.1925 87.899 49.3099 87.7763C49.4274 87.6537 49.5646 87.5735 49.7216 87.5358C49.8796 87.4983 50.0453 87.5062 50.2186 87.5593C50.4519 87.6309 50.6202 87.7488 50.7235 87.9128C50.8268 88.0769 50.8545 88.2724 50.8065 88.4992L50.4405 88.3869C50.4699 88.2373 50.459 88.1197 50.4079 88.0343C50.3581 87.9483 50.2644 87.8842 50.1269 87.842C49.9672 87.793 49.8262 87.8109 49.704 87.8957C49.583 87.9799 49.4868 88.1287 49.4155 88.3423L49.3578 88.5202C49.2875 88.7372 49.2745 88.9151 49.3189 89.0541C49.3643 89.1933 49.4659 89.2871 49.6237 89.3355C49.768 89.3798 49.8864 89.3823 49.979 89.3429C50.0716 89.3036 50.1508 89.2152 50.2166 89.0778L50.5826 89.1901Z" fill="white"/>
<path d="M51.7282 89.4096L51.3186 89.2839L51.0679 90.0575L50.7005 89.9448L51.3512 87.9371L52.0948 88.1652C52.3388 88.2401 52.5103 88.3498 52.6093 88.4944C52.7082 88.6389 52.7258 88.8096 52.6621 89.0063C52.6186 89.1405 52.5477 89.2426 52.4495 89.3125C52.3525 89.3818 52.2351 89.4221 52.0973 89.4334L52.301 90.4161L52.2951 90.434L51.9016 90.3132L51.7282 89.4096ZM51.4094 89.004L51.787 89.1199C51.9109 89.1579 52.0173 89.1582 52.106 89.1207C52.1951 89.0824 52.2564 89.0117 52.2897 88.9087C52.3246 88.8012 52.3191 88.708 52.2733 88.6293C52.2285 88.5509 52.1424 88.4911 52.0152 88.4501L51.6275 88.3311L51.4094 89.004Z" fill="white"/>
<path d="M52.9443 90.6331L52.5784 90.5209L53.2291 88.5132L53.5951 88.6255L52.9443 90.6331Z" fill="white"/>
<path d="M53.396 90.7717L54.0468 88.764L54.7715 88.9864C55.0107 89.0597 55.1779 89.1611 55.2733 89.2904C55.3687 89.4197 55.3872 89.5745 55.3288 89.7546C55.2991 89.8466 55.2461 89.9213 55.17 89.9788C55.0938 90.0363 54.9989 90.0698 54.8851 90.0794C54.9898 90.1438 55.0599 90.2265 55.0953 90.3273C55.132 90.4275 55.1319 90.5346 55.095 90.6486C55.0339 90.837 54.9231 90.9622 54.7625 91.0241C54.6029 91.0863 54.4045 91.0811 54.1672 91.0083L53.396 90.7717ZM54.0571 89.9785L53.8538 90.6059L54.2619 90.7311C54.3771 90.7664 54.4759 90.7669 54.5584 90.7326C54.6408 90.6983 54.6977 90.6328 54.729 90.5363C54.7966 90.3276 54.7189 90.1866 54.4957 90.113L54.0571 89.9785ZM54.1402 89.722L54.5004 89.8325C54.6147 89.8676 54.7117 89.8705 54.7914 89.8414C54.8723 89.8117 54.9274 89.7518 54.9566 89.6617C54.9888 89.5624 54.982 89.4815 54.9363 89.4189C54.8915 89.3567 54.8062 89.3063 54.6803 89.2677L54.323 89.158L54.1402 89.722Z" fill="white"/>
<path d="M56.7989 90.8302L55.9304 90.5638L55.7302 91.1815L56.7454 91.493L56.6551 91.7715L55.2725 91.3473L55.9232 89.3397L57.2957 89.7607L57.2045 90.042L56.1995 89.7337L56.0198 90.288L56.8883 90.5544L56.7989 90.8302Z" fill="white"/>
<g filter="url(#filter1_dddf)">
<mask id="path-11-inside-1" fill="white">
<path fill-rule="evenodd" clip-rule="evenodd" d="M71.7063 53.0002H27.4961V92.5266C27.4961 96.4648 30.6886 99.6573 34.6268 99.6573H64.5756C68.5138 99.6573 71.7063 96.4648 71.7063 92.5266V53.0002ZM38.3049 56.1849C36.6377 56.1849 35.2861 57.5364 35.2861 59.2036V93.6397C35.2861 95.3069 36.6377 96.6585 38.3049 96.6585C39.9721 96.6585 41.3237 95.3069 41.3237 93.6397V59.2036C41.3237 57.5364 39.9721 56.1849 38.3049 56.1849ZM46.584 59.2036C46.584 57.5364 47.9355 56.1849 49.6027 56.1849C51.27 56.1849 52.6215 57.5364 52.6215 59.2036V93.6397C52.6215 95.3069 51.27 96.6585 49.6027 96.6585C47.9355 96.6585 46.584 95.3069 46.584 93.6397V59.2036ZM60.8977 56.1849C59.2305 56.1849 57.8789 57.5364 57.8789 59.2036V93.6397C57.8789 95.3069 59.2305 96.6585 60.8977 96.6585C62.5649 96.6585 63.9164 95.3069 63.9164 93.6397V59.2036C63.9164 57.5364 62.5649 56.1849 60.8977 56.1849Z"/>
</mask>
<path d="M27.4961 53.0002V52.2872H26.783V53.0002H27.4961ZM71.7063 53.0002H72.4194V52.2872H71.7063V53.0002ZM27.4961 53.7133H71.7063V52.2872H27.4961V53.7133ZM28.2092 92.5266V53.0002H26.783V92.5266H28.2092ZM34.6268 98.9442C31.0824 98.9442 28.2092 96.071 28.2092 92.5266H26.783C26.783 96.8586 30.2948 100.37 34.6268 100.37V98.9442ZM64.5756 98.9442H34.6268V100.37H64.5756V98.9442ZM70.9933 92.5266C70.9933 96.071 68.12 98.9442 64.5756 98.9442V100.37C68.9076 100.37 72.4194 96.8586 72.4194 92.5266H70.9933ZM70.9933 53.0002V92.5266H72.4194V53.0002H70.9933ZM35.9992 59.2036C35.9992 57.9302 37.0315 56.8979 38.3049 56.8979V55.4718C36.2439 55.4718 34.5731 57.1426 34.5731 59.2036H35.9992ZM35.9992 93.6397V59.2036H34.5731V93.6397H35.9992ZM38.3049 95.9454C37.0315 95.9454 35.9992 94.9131 35.9992 93.6397H34.5731C34.5731 95.7007 36.2439 97.3715 38.3049 97.3715V95.9454ZM40.6106 93.6397C40.6106 94.9131 39.5783 95.9454 38.3049 95.9454V97.3715C40.3659 97.3715 42.0367 95.7007 42.0367 93.6397H40.6106ZM40.6106 59.2036V93.6397H42.0367V59.2036H40.6106ZM38.3049 56.8979C39.5783 56.8979 40.6106 57.9302 40.6106 59.2036H42.0367C42.0367 57.1426 40.3659 55.4718 38.3049 55.4718V56.8979ZM49.6027 55.4718C47.5417 55.4718 45.8709 57.1426 45.8709 59.2036H47.2971C47.2971 57.9302 48.3293 56.8979 49.6027 56.8979V55.4718ZM53.3346 59.2036C53.3346 57.1426 51.6638 55.4718 49.6027 55.4718V56.8979C50.8761 56.8979 51.9084 57.9302 51.9084 59.2036H53.3346ZM53.3346 93.6397V59.2036H51.9084V93.6397H53.3346ZM49.6027 97.3715C51.6638 97.3715 53.3346 95.7007 53.3346 93.6397H51.9084C51.9084 94.9131 50.8761 95.9454 49.6027 95.9454V97.3715ZM45.8709 93.6397C45.8709 95.7007 47.5417 97.3715 49.6027 97.3715V95.9454C48.3293 95.9454 47.2971 94.9131 47.2971 93.6397H45.8709ZM45.8709 59.2036V93.6397H47.2971V59.2036H45.8709ZM58.592 59.2036C58.592 57.9302 59.6243 56.8979 60.8977 56.8979V55.4718C58.8366 55.4718 57.1658 57.1426 57.1658 59.2036H58.592ZM58.592 93.6397V59.2036H57.1658V93.6397H58.592ZM60.8977 95.9454C59.6243 95.9454 58.592 94.9131 58.592 93.6397H57.1658C57.1658 95.7007 58.8366 97.3715 60.8977 97.3715V95.9454ZM63.2034 93.6397C63.2034 94.9131 62.1711 95.9454 60.8977 95.9454V97.3715C62.9587 97.3715 64.6295 95.7007 64.6295 93.6397H63.2034ZM63.2034 59.2036V93.6397H64.6295V59.2036H63.2034ZM60.8977 56.8979C62.1711 56.8979 63.2034 57.9302 63.2034 59.2036H64.6295C64.6295 57.1426 62.9587 55.4718 60.8977 55.4718V56.8979Z" fill="url(#paint7_linear)" mask="url(#path-11-inside-1)"/>
</g>
<path fill-rule="evenodd" clip-rule="evenodd" d="M70.1927 53.8848H27.5371V92.2739C27.5371 96.212 30.7296 99.4046 34.6678 99.4046H63.062C67.0002 99.4046 70.1927 96.212 70.1927 92.2739V53.8848ZM37.9663 56.9913C36.3577 56.9913 35.0537 58.2953 35.0537 59.9039V93.5658C35.0537 95.1743 36.3577 96.4784 37.9663 96.4784C39.5749 96.4784 40.8789 95.1743 40.8789 93.5658V59.9039C40.8789 58.2953 39.5749 56.9913 37.9663 56.9913ZM45.9531 59.9039C45.9531 58.2953 47.2571 56.9913 48.8657 56.9913C50.4743 56.9913 51.7783 58.2953 51.7783 59.9039V93.5658C51.7783 95.1743 50.4743 96.4784 48.8657 96.4784C47.2571 96.4784 45.9531 95.1743 45.9531 93.5658V59.9039ZM59.7642 56.9913C58.1556 56.9913 56.8516 58.2953 56.8516 59.9039V93.5658C56.8516 95.1743 58.1556 96.4784 59.7642 96.4784C61.3728 96.4784 62.6768 95.1743 62.6768 93.5658V59.9039C62.6768 58.2953 61.3728 56.9913 59.7642 56.9913Z" fill="url(#paint8_linear)"/>
<g filter="url(#filter2_dddf)">
<mask id="path-14-inside-2" fill="white">
<path fill-rule="evenodd" clip-rule="evenodd" d="M43.4695 34.4579L44.458 33.6763C48.6892 30.3305 54.9247 30.9713 58.3854 35.1075L19.9408 65.5066C16.4801 61.3704 17.1048 55.3051 21.336 51.9594L22.5077 51.0329C21.9493 47.7397 23.1641 44.2642 26.0069 42.0163L33.6762 35.952C36.519 33.7041 40.2666 33.2557 43.4695 34.4579Z"/>
</mask>
<path d="M43.4695 34.4579L43.2127 35.1142L43.6032 35.2608L43.9266 35.005L43.4695 34.4579ZM44.458 33.6763L44.9151 34.2234L44.458 33.6763ZM58.3854 35.1075L58.8425 35.6546L59.4023 35.212L58.9445 34.6648L58.3854 35.1075ZM19.9408 65.5066L19.3817 65.9493L19.8389 66.4958L20.3979 66.0537L19.9408 65.5066ZM21.336 51.9594L21.7932 52.5065L21.336 51.9594ZM22.5077 51.0329L22.9649 51.58L23.2887 51.324L23.2205 50.9218L22.5077 51.0329ZM26.0069 42.0163L25.5498 41.4691L26.0069 42.0163ZM33.6762 35.952L34.1334 36.4991L33.6762 35.952ZM43.9266 35.005L44.9151 34.2234L44.0008 33.1291L43.0123 33.9108L43.9266 35.005ZM44.9151 34.2234C48.8376 31.1218 54.6182 31.7159 57.8263 35.5502L58.9445 34.6648C55.2312 30.2267 48.5409 29.5392 44.0008 33.1291L44.9151 34.2234ZM57.9282 34.5604L19.4836 64.9595L20.3979 66.0537L58.8425 35.6546L57.9282 34.5604ZM20.4999 65.0639C17.292 61.2299 17.871 55.6078 21.7932 52.5065L20.8789 51.4122C16.3386 55.0024 15.6682 61.511 19.3817 65.9493L20.4999 65.0639ZM21.7932 52.5065L22.9649 51.58L22.0505 50.4858L20.8789 51.4122L21.7932 52.5065ZM23.2205 50.9218C22.7025 47.8672 23.8296 44.6466 26.4641 42.5634L25.5498 41.4691C22.4987 43.8817 21.1961 47.6121 21.7949 51.144L23.2205 50.9218ZM26.4641 42.5634L34.1334 36.4991L33.2191 35.4048L25.5498 41.4691L26.4641 42.5634ZM34.1334 36.4991C36.768 34.4159 40.2414 33.9989 43.2127 35.1142L43.7262 33.8016C40.2917 32.5125 36.2701 32.9923 33.2191 35.4048L34.1334 36.4991Z" fill="url(#paint9_linear)" mask="url(#path-14-inside-2)"/>
</g>
<path fill-rule="evenodd" clip-rule="evenodd" d="M44.8292 35.4843L46.8977 33.8461C50.315 31.1396 55.3503 31.6571 58.1443 35.0019L20.6971 64.6597C17.9031 61.3148 18.4084 56.4093 21.8258 53.7028L24.0747 51.9217C23.6248 49.2587 24.6064 46.4483 26.9019 44.6303L36.9222 36.6944C39.2177 34.8763 42.2433 34.513 44.8292 35.4843Z" fill="url(#paint10_linear)"/>
<defs>
<filter id="filter0_dddf" x="31.9616" y="0.14088" width="84.8633" height="71.4604" filterUnits="userSpaceOnUse" color-interpolation-filters="sRGB">
<feFlood flood-opacity="0" result="BackgroundImageFix"/>
<feColorMatrix in="SourceAlpha" type="matrix" values="0 0 0 0 0 0 0 0 0 0 0 0 0 0 0 0 0 0 127 0"/>
<feOffset/>
<feGaussianBlur stdDeviation="7.13068"/>
<feColorMatrix type="matrix" values="0 0 0 0 1 0 0 0 0 1 0 0 0 0 1 0 0 0 0.3 0"/>
<feBlend mode="normal" in2="BackgroundImageFix" result="effect1_dropShadow"/>
<feColorMatrix in="SourceAlpha" type="matrix" values="0 0 0 0 0 0 0 0 0 0 0 0 0 0 0 0 0 0 127 0"/>
<feOffset dx="-2.85227" dy="-2.85227"/>
<feGaussianBlur stdDeviation="7.13068"/>
<feColorMatrix type="matrix" values="0 0 0 0 0.0117647 0 0 0 0 0.937255 0 0 0 0 0.913725 0 0 0 0.3 0"/>
<feBlend mode="normal" in2="effect1_dropShadow" result="effect2_dropShadow"/>
<feColorMatrix in="SourceAlpha" type="matrix" values="0 0 0 0 0 0 0 0 0 0 0 0 0 0 0 0 0 0 127 0"/>
<feOffset dx="2.85227" dy="2.85227"/>
<feGaussianBlur stdDeviation="7.13068"/>
<feColorMatrix type="matrix" values="0 0 0 0 0.917647 0 0 0 0 0.501961 0 0 0 0 0.988235 0 0 0 0.3 0"/>
<feBlend mode="normal" in2="effect2_dropShadow" result="effect3_dropShadow"/>
<feBlend mode="normal" in="SourceGraphic" in2="effect3_dropShadow" result="shape"/>
<feGaussianBlur stdDeviation="1.0696" result="effect4_foregroundBlur"/>
</filter>
<filter id="filter1_dddf" x="10.3825" y="35.8866" width="78.4375" height="80.8843" filterUnits="userSpaceOnUse" color-interpolation-filters="sRGB">
<feFlood flood-opacity="0" result="BackgroundImageFix"/>
<feColorMatrix in="SourceAlpha" type="matrix" values="0 0 0 0 0 0 0 0 0 0 0 0 0 0 0 0 0 0 127 0"/>
<feOffset/>
<feGaussianBlur stdDeviation="7.13068"/>
<feColorMatrix type="matrix" values="0 0 0 0 1 0 0 0 0 1 0 0 0 0 1 0 0 0 0.3 0"/>
<feBlend mode="normal" in2="BackgroundImageFix" result="effect1_dropShadow"/>
<feColorMatrix in="SourceAlpha" type="matrix" values="0 0 0 0 0 0 0 0 0 0 0 0 0 0 0 0 0 0 127 0"/>
<feOffset dx="-2.85227" dy="-2.85227"/>
<feGaussianBlur stdDeviation="7.13068"/>
<feColorMatrix type="matrix" values="0 0 0 0 0.0117647 0 0 0 0 0.937255 0 0 0 0 0.913725 0 0 0 0.3 0"/>
<feBlend mode="normal" in2="effect1_dropShadow" result="effect2_dropShadow"/>
<feColorMatrix in="SourceAlpha" type="matrix" values="0 0 0 0 0 0 0 0 0 0 0 0 0 0 0 0 0 0 127 0"/>
<feOffset dx="2.85227" dy="2.85227"/>
<feGaussianBlur stdDeviation="7.13068"/>
<feColorMatrix type="matrix" values="0 0 0 0 0.917647 0 0 0 0 0.501961 0 0 0 0 0.988235 0 0 0 0.3 0"/>
<feBlend mode="normal" in2="effect2_dropShadow" result="effect3_dropShadow"/>
<feBlend mode="normal" in="SourceGraphic" in2="effect3_dropShadow" result="shape"/>
<feGaussianBlur stdDeviation="0.713068" result="effect4_foregroundBlur"/>
</filter>
<filter id="filter2_dddf" x="0.590465" y="14.4188" width="74.9083" height="68.2014" filterUnits="userSpaceOnUse" color-interpolation-filters="sRGB">
<feFlood flood-opacity="0" result="BackgroundImageFix"/>
<feColorMatrix in="SourceAlpha" type="matrix" values="0 0 0 0 0 0 0 0 0 0 0 0 0 0 0 0 0 0 127 0"/>
<feOffset/>
<feGaussianBlur stdDeviation="7.13068"/>
<feColorMatrix type="matrix" values="0 0 0 0 1 0 0 0 0 1 0 0 0 0 1 0 0 0 0.3 0"/>
<feBlend mode="normal" in2="BackgroundImageFix" result="effect1_dropShadow"/>
<feColorMatrix in="SourceAlpha" type="matrix" values="0 0 0 0 0 0 0 0 0 0 0 0 0 0 0 0 0 0 127 0"/>
<feOffset dx="-2.85227" dy="-2.85227"/>
<feGaussianBlur stdDeviation="7.13068"/>
<feColorMatrix type="matrix" values="0 0 0 0 0.0117647 0 0 0 0 0.937255 0 0 0 0 0.913725 0 0 0 0.3 0"/>
<feBlend mode="normal" in2="effect1_dropShadow" result="effect2_dropShadow"/>
<feColorMatrix in="SourceAlpha" type="matrix" values="0 0 0 0 0 0 0 0 0 0 0 0 0 0 0 0 0 0 127 0"/>
<feOffset dx="2.85227" dy="2.85227"/>
<feGaussianBlur stdDeviation="7.13068"/>
<feColorMatrix type="matrix" values="0 0 0 0 0.917647 0 0 0 0 0.501961 0 0 0 0 0.988235 0 0 0 0.3 0"/>
<feBlend mode="normal" in2="effect2_dropShadow" result="effect3_dropShadow"/>
<feBlend mode="normal" in="SourceGraphic" in2="effect3_dropShadow" result="shape"/>
<feGaussianBlur stdDeviation="1.0696" result="effect4_foregroundBlur"/>
</filter>
<linearGradient id="paint0_linear" x1="24.8266" y1="-0.293296" x2="24.8445" y2="16.6489" gradientUnits="userSpaceOnUse">
<stop stop-color="#4CFEE9"/>
<stop offset="0.0001" stop-color="#80D8FF"/>
<stop offset="1" stop-color="#EA80FC"/>
</linearGradient>
<linearGradient id="paint1_linear" x1="57.4452" y1="53.0004" x2="60.8522" y2="11.2502" gradientUnits="userSpaceOnUse">
<stop stop-color="#05F9FF"/>
<stop offset="0.570591" stop-color="#AB57FF"/>
<stop offset="1" stop-color="#151515"/>
</linearGradient>
<linearGradient id="paint2_linear" x1="47.1055" y1="40.9735" x2="69.0327" y2="61.1541" gradientUnits="userSpaceOnUse">
<stop stop-color="#00C4F6"/>
<stop offset="1" stop-color="#151515"/>
</linearGradient>
<linearGradient id="paint3_linear" x1="36.756" y1="64.1979" x2="57.9543" y2="85.4324" gradientUnits="userSpaceOnUse">
<stop stop-color="#05F9FF"/>
<stop offset="0.436913" stop-color="#AB57FF"/>
<stop offset="1" stop-color="#151515"/>
</linearGradient>
<linearGradient id="paint4_linear" x1="42.6551" y1="78.2533" x2="46.7237" y2="84.274" gradientUnits="userSpaceOnUse">
<stop stop-color="#00C4F6"/>
<stop offset="1" stop-color="#151515"/>
</linearGradient>
<linearGradient id="paint5_linear" x1="49.1762" y1="69.7542" x2="48.9709" y2="97.2954" gradientUnits="userSpaceOnUse">
<stop stop-color="#05F9FF"/>
<stop offset="0.436913" stop-color="#AB57FF"/>
<stop offset="1" stop-color="#151515"/>
</linearGradient>
<linearGradient id="paint6_linear" x1="43.2759" y1="82.6674" x2="41.9847" y2="89.2535" gradientUnits="userSpaceOnUse">
<stop stop-color="#00C4F6"/>
<stop offset="1" stop-color="#151515"/>
</linearGradient>
<linearGradient id="paint7_linear" x1="49.4584" y1="52.1783" x2="49.6175" y2="99.6573" gradientUnits="userSpaceOnUse">
<stop stop-color="#80D8FF"/>
<stop offset="0.0001" stop-color="#4CFEE9"/>
<stop offset="1" stop-color="#EA80FC"/>
</linearGradient>
<linearGradient id="paint8_linear" x1="16.4435" y1="44.2523" x2="79.8198" y2="104.817" gradientUnits="userSpaceOnUse">
<stop stop-color="#9682E8"/>
<stop offset="1"/>
</linearGradient>
<linearGradient id="paint9_linear" x1="29.3996" y1="38.9748" x2="38.8052" y2="50.736" gradientUnits="userSpaceOnUse">
<stop stop-color="#80D8FF"/>
<stop offset="0.0001" stop-color="#4CFEE9"/>
<stop offset="1" stop-color="#EA80FC"/>
</linearGradient>
<linearGradient id="paint10_linear" x1="58.1574" y1="22.0172" x2="11.359" y2="68.6412" gradientUnits="userSpaceOnUse">
<stop stop-color="#9682E8"/>
<stop offset="1"/>
</linearGradient>
</defs>
</svg>
