<svg width="442" height="394" viewBox="0 0 442 394" fill="none" xmlns="http://www.w3.org/2000/svg">
<g filter="url(#filter0_f)">
<ellipse cx="4.90352" cy="281.629" rx="2.01875" ry="1.99686" fill="#05F9FF"/>
<ellipse cx="21.0539" cy="281.629" rx="2.01875" ry="1.99686" fill="#05F9FF"/>
<ellipse cx="37.2033" cy="281.629" rx="2.01875" ry="1.99686" fill="#05F9FF"/>
<ellipse cx="53.3537" cy="281.629" rx="2.01875" ry="1.99686" fill="#05F9FF"/>
<ellipse cx="69.5031" cy="281.629" rx="2.01875" ry="1.99686" fill="#05F9FF"/>
<ellipse cx="85.6535" cy="281.629" rx="2.01875" ry="1.99686" fill="#05F9FF"/>
<ellipse cx="35.1848" cy="295.607" rx="2.01875" ry="1.99686" fill="#CF64B5"/>
<ellipse cx="51.3352" cy="295.607" rx="2.01875" ry="1.99686" fill="#CF64B5"/>
<ellipse cx="67.4846" cy="295.607" rx="2.01875" ry="1.99686" fill="#CF64B5"/>
<ellipse cx="83.635" cy="295.607" rx="2.01875" ry="1.99686" fill="#CF64B5"/>
<ellipse cx="99.7844" cy="295.607" rx="2.01875" ry="1.99686" fill="#CF64B5"/>
<ellipse cx="115.935" cy="295.607" rx="2.01875" ry="1.99686" fill="#CF64B5"/>
</g>
<g filter="url(#filter1_f)">
<ellipse cx="326.835" cy="53.5623" rx="2.01875" ry="1.99686" fill="#05F9FF"/>
<ellipse cx="342.986" cy="53.5623" rx="2.01875" ry="1.99686" fill="#05F9FF"/>
<ellipse cx="359.135" cy="53.5623" rx="2.01875" ry="1.99686" fill="#05F9FF"/>
<ellipse cx="375.285" cy="53.5623" rx="2.01875" ry="1.99686" fill="#05F9FF"/>
<ellipse cx="391.435" cy="53.5623" rx="2.01875" ry="1.99686" fill="#05F9FF"/>
<ellipse cx="407.585" cy="53.5623" rx="2.01875" ry="1.99686" fill="#05F9FF"/>
<ellipse cx="357.116" cy="67.5398" rx="2.01875" ry="1.99686" fill="#CF64B5"/>
<ellipse cx="373.267" cy="67.5398" rx="2.01875" ry="1.99686" fill="#CF64B5"/>
<ellipse cx="389.416" cy="67.5398" rx="2.01875" ry="1.99686" fill="#CF64B5"/>
<ellipse cx="405.567" cy="67.5398" rx="2.01875" ry="1.99686" fill="#CF64B5"/>
<ellipse cx="421.716" cy="67.5398" rx="2.01875" ry="1.99686" fill="#CF64B5"/>
<ellipse cx="437.866" cy="67.5398" rx="2.01875" ry="1.99686" fill="#CF64B5"/>
</g>
<g filter="url(#filter2_ddf)">
<rect x="2.13285" width="247.98" height="247.98" rx="8.5" transform="matrix(0.71095 -0.703242 0.71095 0.703242 39.7796 198.835)" stroke="url(#paint0_linear)" stroke-width="3"/>
</g>
<g filter="url(#filter3_dd)">
<rect width="250.98" height="250.98" rx="10" transform="matrix(0.71095 -0.703242 0.71095 0.703242 29.0693 197.336)" fill="#151515"/>
<rect x="2.13285" width="247.98" height="247.98" rx="8.5" transform="matrix(0.71095 -0.703242 0.71095 0.703242 29.6858 198.836)" stroke="url(#paint1_linear)" stroke-width="3"/>
</g>
<path d="M364.604 282.797H281.699V284.794H362.765L364.604 282.797Z" fill="url(#paint2_linear)"/>
<path d="M314.136 73.1262H231.23V75.1231H312.297L314.136 73.1262Z" fill="url(#paint3_linear)"/>
<path d="M277.621 273.811H386.447L384.489 276.806H270.616L277.621 273.811Z" fill="url(#paint4_linear)"/>
<path d="M151.946 82.9712H107.86L114.242 78.9775H159.338L151.946 82.9712Z" fill="url(#paint5_linear)"/>
<path d="M378.905 140.021H304.211L308.249 145.013H382.942L378.905 140.021Z" fill="url(#paint6_linear)"/>
<path d="M43.2352 236.869H112.338L103.847 241.861H38.7812L43.2352 236.869Z" fill="url(#paint7_linear)"/>
<defs>
<filter id="filter0_f" x="0.884766" y="277.632" width="119.069" height="21.9715" filterUnits="userSpaceOnUse" color-interpolation-filters="sRGB">
<feFlood flood-opacity="0" result="BackgroundImageFix"/>
<feBlend mode="normal" in="SourceGraphic" in2="BackgroundImageFix" result="shape"/>
<feGaussianBlur stdDeviation="1" result="effect1_foregroundBlur"/>
</filter>
<filter id="filter1_f" x="322.816" y="49.5654" width="119.069" height="21.9713" filterUnits="userSpaceOnUse" color-interpolation-filters="sRGB">
<feFlood flood-opacity="0" result="BackgroundImageFix"/>
<feBlend mode="normal" in="SourceGraphic" in2="BackgroundImageFix" result="shape"/>
<feGaussianBlur stdDeviation="1" result="effect1_foregroundBlur"/>
</filter>
<filter id="filter2_ddf" x="19.3281" y="0.955322" width="396.539" height="392.76" filterUnits="userSpaceOnUse" color-interpolation-filters="sRGB">
<feFlood flood-opacity="0" result="BackgroundImageFix"/>
<feColorMatrix in="SourceAlpha" type="matrix" values="0 0 0 0 0 0 0 0 0 0 0 0 0 0 0 0 0 0 127 0"/>
<feOffset dx="4" dy="4"/>
<feGaussianBlur stdDeviation="10"/>
<feColorMatrix type="matrix" values="0 0 0 0 0.917647 0 0 0 0 0.501961 0 0 0 0 0.988235 0 0 0 0.3 0"/>
<feBlend mode="normal" in2="BackgroundImageFix" result="effect1_dropShadow"/>
<feColorMatrix in="SourceAlpha" type="matrix" values="0 0 0 0 0 0 0 0 0 0 0 0 0 0 0 0 0 0 127 0"/>
<feOffset dx="-4" dy="-4"/>
<feGaussianBlur stdDeviation="10"/>
<feColorMatrix type="matrix" values="0 0 0 0 0.501961 0 0 0 0 0.847059 0 0 0 0 1 0 0 0 0.3 0"/>
<feBlend mode="normal" in2="effect1_dropShadow" result="effect2_dropShadow"/>
<feBlend mode="normal" in="SourceGraphic" in2="effect2_dropShadow" result="shape"/>
<feGaussianBlur stdDeviation="5" result="effect3_foregroundBlur"/>
</filter>
<filter id="filter3_dd" x="9.23438" y="0.956299" width="396.539" height="392.76" filterUnits="userSpaceOnUse" color-interpolation-filters="sRGB">
<feFlood flood-opacity="0" result="BackgroundImageFix"/>
<feColorMatrix in="SourceAlpha" type="matrix" values="0 0 0 0 0 0 0 0 0 0 0 0 0 0 0 0 0 0 127 0"/>
<feOffset dx="4" dy="4"/>
<feGaussianBlur stdDeviation="10"/>
<feColorMatrix type="matrix" values="0 0 0 0 0.917647 0 0 0 0 0.501961 0 0 0 0 0.988235 0 0 0 0.3 0"/>
<feBlend mode="normal" in2="BackgroundImageFix" result="effect1_dropShadow"/>
<feColorMatrix in="SourceAlpha" type="matrix" values="0 0 0 0 0 0 0 0 0 0 0 0 0 0 0 0 0 0 127 0"/>
<feOffset dx="-4" dy="-4"/>
<feGaussianBlur stdDeviation="10"/>
<feColorMatrix type="matrix" values="0 0 0 0 0.501961 0 0 0 0 0.847059 0 0 0 0 1 0 0 0 0.3 0"/>
<feBlend mode="normal" in2="effect1_dropShadow" result="effect2_dropShadow"/>
<feBlend mode="normal" in="SourceGraphic" in2="effect2_dropShadow" result="shape"/>
</filter>
<linearGradient id="paint0_linear" x1="124.679" y1="-4.42144" x2="125.49" y2="250.98" gradientUnits="userSpaceOnUse">
<stop stop-color="#80D8FF"/>
<stop offset="0.0001" stop-color="#4CFEE9"/>
<stop offset="1" stop-color="#EA80FC"/>
</linearGradient>
<linearGradient id="paint1_linear" x1="124.679" y1="-4.42144" x2="125.49" y2="250.98" gradientUnits="userSpaceOnUse">
<stop stop-color="#80D8FF"/>
<stop offset="0.0001" stop-color="#4CFEE9"/>
<stop offset="1" stop-color="#EA80FC"/>
</linearGradient>
<linearGradient id="paint2_linear" x1="362.766" y1="283.795" x2="294.843" y2="283.795" gradientUnits="userSpaceOnUse">
<stop stop-color="#00FFFF"/>
<stop offset="0.5625" stop-color="#FB43FB"/>
<stop offset="1" stop-color="#151515"/>
</linearGradient>
<linearGradient id="paint3_linear" x1="312.297" y1="74.1247" x2="244.375" y2="74.1247" gradientUnits="userSpaceOnUse">
<stop stop-color="#00FFFF"/>
<stop offset="0.5625" stop-color="#FB43FB"/>
<stop offset="1" stop-color="#151515"/>
</linearGradient>
<linearGradient id="paint4_linear" x1="389.635" y1="274.695" x2="321.564" y2="281.096" gradientUnits="userSpaceOnUse">
<stop stop-color="#04E2DC"/>
<stop offset="1" stop-color="#151515"/>
</linearGradient>
<linearGradient id="paint5_linear" x1="101.965" y1="81.7919" x2="148.868" y2="80.3472" gradientUnits="userSpaceOnUse">
<stop stop-color="#4EF8E5"/>
<stop offset="1" stop-color="#151515"/>
</linearGradient>
<linearGradient id="paint6_linear" x1="321.834" y1="152.435" x2="328.831" y2="165.827" gradientUnits="userSpaceOnUse">
<stop stop-color="#151515"/>
<stop offset="0.536458" stop-color="#9E8AE7"/>
<stop offset="1" stop-color="#4CFEE9"/>
</linearGradient>
<linearGradient id="paint7_linear" x1="92.9692" y1="249.282" x2="85.1664" y2="261.24" gradientUnits="userSpaceOnUse">
<stop stop-color="#151515"/>
<stop offset="0.447917" stop-color="#4CFEE9"/>
<stop offset="1" stop-color="#9E8AE7"/>
</linearGradient>
</defs>
</svg>
