<svg width="21" height="24" viewBox="0 0 21 24" fill="none" xmlns="http://www.w3.org/2000/svg">
<path fill-rule="evenodd" clip-rule="evenodd" d="M17.1978 7.23014C17.1978 10.7616 14.3713 13.6243 10.8848 13.6243C7.39818 13.6243 4.57174 10.7616 4.57174 7.23014C4.57174 3.69872 7.39818 0.835938 10.8848 0.835938C14.3713 0.835938 17.1978 3.69872 17.1978 7.23014ZM15.002 7.23014C15.002 9.53325 13.1586 11.4003 10.8848 11.4003C8.6109 11.4003 6.76757 9.53325 6.76757 7.23014C6.76757 4.92704 8.6109 3.06001 10.8848 3.06001C13.1586 3.06001 15.002 4.92704 15.002 7.23014Z" fill="#151515"/>
<path fill-rule="evenodd" clip-rule="evenodd" d="M17.1978 7.23014C17.1978 10.7616 14.3713 13.6243 10.8848 13.6243C7.39818 13.6243 4.57174 10.7616 4.57174 7.23014C4.57174 3.69872 7.39818 0.835938 10.8848 0.835938C14.3713 0.835938 17.1978 3.69872 17.1978 7.23014ZM15.002 7.23014C15.002 9.53325 13.1586 11.4003 10.8848 11.4003C8.6109 11.4003 6.76757 9.53325 6.76757 7.23014C6.76757 4.92704 8.6109 3.06001 10.8848 3.06001C13.1586 3.06001 15.002 4.92704 15.002 7.23014Z" fill="url(#paint0_linear)"/>
<path d="M0.90729 22.7684C0.825027 23.0414 0.975334 23.3269 1.24013 23.4245L2.26469 23.8022C2.57568 23.9169 2.91411 23.7279 3.01116 23.4074C4.04422 19.9965 7.17854 17.5165 10.8847 17.5165C14.5909 17.5165 17.7253 19.9965 18.7584 23.4074C18.8554 23.7279 19.1938 23.9169 19.5048 23.8022L20.5294 23.4245C20.7942 23.3269 20.9445 23.0414 20.8622 22.7684C19.5581 18.4406 15.5844 15.2924 10.8847 15.2924C6.18513 15.2924 2.21146 18.4406 0.90729 22.7684Z" fill="#151515"/>
<path d="M0.90729 22.7684C0.825027 23.0414 0.975334 23.3269 1.24013 23.4245L2.26469 23.8022C2.57568 23.9169 2.91411 23.7279 3.01116 23.4074C4.04422 19.9965 7.17854 17.5165 10.8847 17.5165C14.5909 17.5165 17.7253 19.9965 18.7584 23.4074C18.8554 23.7279 19.1938 23.9169 19.5048 23.8022L20.5294 23.4245C20.7942 23.3269 20.9445 23.0414 20.8622 22.7684C19.5581 18.4406 15.5844 15.2924 10.8847 15.2924C6.18513 15.2924 2.21146 18.4406 0.90729 22.7684Z" fill="url(#paint1_linear)"/>
<defs>
<linearGradient id="paint0_linear" x1="-3.91735" y1="-6.08915" x2="39.4364" y2="-6.4434" gradientUnits="userSpaceOnUse">
<stop stop-color="#05F9FF"/>
<stop offset="0.666667" stop-color="#AB57FF"/>
<stop offset="0.975293" stop-color="#151515"/>
</linearGradient>
<linearGradient id="paint1_linear" x1="-3.91735" y1="-6.08915" x2="39.4364" y2="-6.4434" gradientUnits="userSpaceOnUse">
<stop stop-color="#05F9FF"/>
<stop offset="0.666667" stop-color="#AB57FF"/>
<stop offset="0.975293" stop-color="#151515"/>
</linearGradient>
</defs>
</svg>
