<svg width="155" height="99" viewBox="0 0 155 99" fill="none" xmlns="http://www.w3.org/2000/svg">
<g filter="url(#filter0_ddf)">
<path d="M19.488 61.8501C18.4243 60.1089 18.9962 57.8743 20.765 56.8589L31.6404 50.6157C38.4722 59.3807 41.4659 64.4123 45.4359 73.1924L34.5579 79.4371C32.7891 80.4525 30.4928 79.8644 29.4291 78.1231L19.488 61.8501Z" stroke="url(#paint0_linear)" stroke-width="0.72807"/>
</g>
<path d="M32.4675 54.8422C34.3023 52.2907 34.3023 49.3746 34.3023 49.3746C34.3023 49.3746 34.8347 45.4233 34.6693 42.8937C34.5924 41.7174 34.5681 41.0462 34.3023 39.8974C33.771 37.6009 32.1006 35.3193 32.1006 33.781C32.1006 32.8807 32.4675 32.2427 32.4675 32.2427C32.4675 32.2427 33.0331 31.4355 33.5684 31.1492C34.4517 30.6768 35.1723 30.5922 36.1371 30.8649C37.3228 31.2001 37.9719 31.8782 38.7058 32.9717C39.4398 34.0653 43.4763 43.907 45.3111 43.907C47.1459 43.907 49.6639 39.3565 53.0173 39.8974C53.9119 40.0417 54.471 40.118 55.219 40.6264C55.7208 40.9674 55.9766 41.2215 56.3199 41.7199C56.8317 42.4629 57.182 43.0157 57.0538 43.907C56.9632 44.5372 55.9529 45.4452 56.3199 45.365C56.6868 45.2848 57.7313 45.0286 58.5216 45.365C59.2668 45.6822 59.528 46.161 59.9895 46.823C60.3543 47.3465 60.6053 47.6554 60.7234 48.2811C60.8026 48.7008 60.8026 48.9549 60.7234 49.3746C60.6053 50.0003 59.6225 50.9129 59.9895 50.8326C60.3564 50.7524 61.4573 51.1971 61.8243 51.5616C62.1912 51.9262 62.5582 52.6552 62.5582 52.6552C62.5582 52.6552 63.4483 53.9554 63.2921 54.8422C63.134 55.7401 62.1912 56.22 61.8243 56.6648C61.4573 57.1095 63.2921 57.3938 63.2921 57.3938C63.2921 57.3938 64.393 57.6781 64.7599 58.1228C65.1269 58.5676 65.1269 59.8651 64.7599 60.6744C64.393 61.4836 64.026 61.8481 63.2921 62.4969C62.5582 63.1457 55.2861 68.184 49.3477 69.7871C48.0727 70.1313 46.045 70.5161 46.045 70.5161C46.045 70.5161 42.7424 71.2451 41.6415 70.5161C40.5406 69.7871 40.5406 68.329 40.5406 67.2355V65.0485C40.5406 63.8413 39.5732 62.6411 38.2989 61.4836L36.5041 59.9907C36.5041 59.9907 31.4571 56.2474 32.4675 54.8422Z" fill="#9682E8"/>
<g filter="url(#filter1_d)">
<path d="M21.121 61.8609C20.0914 60.1339 20.6617 57.9076 22.3946 56.8883L32.4262 50.9873C38.6878 59.1681 41.3539 63.77 44.9517 71.9972L34.9201 77.8981C33.1872 78.9175 30.9478 78.3439 29.9182 76.617L21.121 61.8609Z" fill="url(#paint1_linear)"/>
</g>
<g filter="url(#filter2_d)">
<path fill-rule="evenodd" clip-rule="evenodd" d="M106.593 44.5619C129.697 44.5619 148.426 38.3604 148.426 30.7106C148.426 30.195 148.341 29.686 148.176 29.1851C147.518 30.4032 146.695 31.5651 145.693 32.6295C142.465 36.0556 137.529 38.308 130.728 38.308C130.682 38.308 130.637 38.3063 130.592 38.3031C130.522 38.3112 130.451 38.3154 130.379 38.3154H91.2606L86.9368 42.9407C92.7969 43.9754 99.4881 44.5619 106.593 44.5619ZM143.028 30.1518C144.245 28.8607 145.131 27.3681 145.717 25.7965C139.729 20.5724 124.471 16.8593 106.593 16.8593C89.1603 16.8593 74.2181 20.3899 67.9329 25.4094C68.2287 27.2672 68.8047 28.614 69.6839 29.725C71.0888 31.5001 73.4774 32.9503 77.6702 34.6297C77.7509 34.662 77.828 34.6994 77.9013 34.7413C78.1657 34.8591 78.4058 35.0413 78.5961 35.2845L83.3869 41.4075L89.1242 35.2701C89.4888 34.8801 89.9858 34.6851 90.4823 34.6902C90.5597 34.6802 90.6385 34.675 90.7186 34.675H130.379C130.447 34.675 130.513 34.6786 130.578 34.6857C130.629 34.6814 130.681 34.6792 130.733 34.6792C136.675 34.6792 140.59 32.7399 143.028 30.1518ZM75.9994 37.8714C71.8666 36.1936 68.7983 34.476 66.8126 31.9669C66.0773 31.0378 65.5162 30.0345 65.0978 28.9413C64.8748 29.5206 64.7598 30.1111 64.7598 30.7106C64.7598 34.7648 70.0203 38.4122 78.4045 40.9452L75.9994 37.8714Z" fill="url(#paint2_linear)"/>
</g>
<g filter="url(#filter3_d)">
<path fill-rule="evenodd" clip-rule="evenodd" d="M68.0525 21.0484C68.0719 24.7735 68.708 26.9989 70.0406 28.6827C71.4454 30.4579 73.834 31.908 78.0268 33.5874C78.1063 33.6192 78.1822 33.656 78.2545 33.6971C78.5206 33.8149 78.7623 33.9977 78.9537 34.2423L83.7445 40.3652L89.4808 34.2288C89.8454 33.8388 90.3424 33.6439 90.8389 33.6489C90.9163 33.6389 90.9951 33.6337 91.0752 33.6337H130.736C130.802 33.6337 130.866 33.6372 130.93 33.6439C130.983 33.6393 131.037 33.637 131.091 33.637C137.033 33.637 140.948 31.6976 143.386 29.1095C145.855 26.4887 146.965 23.0372 146.965 19.7805C146.965 19.594 146.993 19.414 147.046 19.2446C146.988 19.0678 146.957 18.8792 146.957 18.6833C146.957 15.7057 146.413 13.618 145.586 12.1339C144.771 10.6741 143.617 9.67817 142.162 8.97817C139.107 7.50787 134.878 7.38357 130.077 7.38357C130.063 7.38357 130.048 7.38341 130.034 7.38308H85.6742C85.5863 7.38308 85.4999 7.37695 85.4154 7.36509C85.3722 7.36913 85.3287 7.37169 85.2848 7.37273C80.6464 7.48214 76.2339 8.12152 73.0535 10.0631C70.0571 11.8923 67.9218 15.0199 68.0607 20.8261C68.0624 20.9013 68.0596 20.9755 68.0525 21.0484ZM150.538 19.2456C150.595 19.0685 150.627 18.8795 150.627 18.6833C150.627 15.2821 150.007 12.54 148.796 10.3676C147.57 8.171 145.811 6.6837 143.762 5.69784C139.93 3.85368 134.99 3.74365 130.494 3.73869C130.477 3.73823 130.46 3.738 130.443 3.738H85.6742C85.6154 3.738 85.5574 3.74074 85.5 3.7461C85.4015 3.73227 85.3004 3.72625 85.1976 3.72867C80.4315 3.8411 75.1841 4.48395 71.1321 6.95766C66.8959 9.54377 64.226 13.9646 64.3921 20.9126C64.3931 20.9567 64.3958 21.0003 64.3999 21.0435C64.4187 25.1467 65.1125 28.3259 67.1693 30.9247C69.1552 33.434 72.224 35.1518 76.3575 36.8297L82.074 44.1358C82.4856 44.6618 83.13 44.902 83.7494 44.8239C84.244 44.8274 84.7385 44.6325 85.1017 44.2439L91.6173 37.2741H130.736C130.81 37.2741 130.883 37.2697 130.954 37.2611C130.998 37.2642 131.041 37.2657 131.085 37.2657C137.887 37.2657 142.823 35.0134 146.05 31.5872C149.247 28.1939 150.617 23.8085 150.617 19.7751C150.617 19.5909 150.589 19.4131 150.538 19.2456Z" fill="url(#paint3_linear)"/>
</g>
<path d="M93.6771 13.1463C92.6106 12.0167 90.3923 11.5058 88.4033 12.811C87.4519 13.4316 86.7406 14.3544 86.3855 15.4286C85.4819 14.7411 84.3703 14.3783 83.2323 14.3995C80.8469 14.4486 79.3081 16.103 79.0697 17.6335C78.734 19.7768 79.7658 21.7544 82.1373 23.5112C83.9949 24.8854 86.4199 26.1118 89.7776 27.3696C89.8838 27.4096 90.0004 27.4132 90.1089 27.3799C90.2174 27.3465 90.3116 27.2782 90.3765 27.1856C92.4299 24.2709 93.744 21.9118 94.4903 19.7166C95.4445 16.9381 95.1723 14.7272 93.6771 13.1463Z" fill="url(#paint4_linear)"/>
<path d="M115.693 12.4178C114.626 11.2882 112.408 10.7773 110.419 12.0825C109.468 12.7031 108.756 13.6259 108.401 14.7001C107.498 14.0126 106.386 13.6498 105.248 13.6709C102.863 13.7201 101.324 15.3745 101.085 16.905C100.75 19.0483 101.781 21.0259 104.153 22.7827C106.01 24.1569 108.436 25.3833 111.793 26.6411C111.899 26.6811 112.016 26.6847 112.125 26.6514C112.233 26.618 112.327 26.5496 112.392 26.4571C114.446 23.5424 115.76 21.1833 116.506 18.9881C117.46 16.2096 117.188 13.9987 115.693 12.4178Z" fill="url(#paint5_linear)"/>
<path d="M137.711 12.4178C136.645 11.2882 134.426 10.7773 132.437 12.0825C131.486 12.7031 130.775 13.6259 130.42 14.7001C129.516 14.0126 128.404 13.6498 127.266 13.6709C124.881 13.7201 123.342 15.3745 123.104 16.905C122.768 19.0483 123.8 21.0259 126.171 22.7827C128.029 24.1569 130.454 25.3833 133.812 26.6411C133.918 26.6811 134.035 26.6847 134.143 26.6514C134.252 26.618 134.346 26.5496 134.411 26.4571C136.464 23.5424 137.778 21.1833 138.524 18.9881C139.479 16.2096 139.206 13.9987 137.711 12.4178Z" fill="url(#paint6_linear)"/>
<g filter="url(#filter4_ddf)">
<path d="M18.8336 61.984C17.7332 60.1826 18.3788 57.8101 20.3201 56.6956L32.1148 49.9247C39.263 59.004 42.3675 64.2284 46.4462 73.3783L34.6487 80.1508C32.7074 81.2652 30.2509 80.6735 29.1505 78.8721L18.8336 61.984Z" stroke="url(#paint7_linear)" stroke-width="0.72807"/>
</g>
<defs>
<filter id="filter0_ddf" x="1.11127" y="32.6699" width="62.2672" height="65.0982" filterUnits="userSpaceOnUse" color-interpolation-filters="sRGB">
<feFlood flood-opacity="0" result="BackgroundImageFix"/>
<feColorMatrix in="SourceAlpha" type="matrix" values="0 0 0 0 0 0 0 0 0 0 0 0 0 0 0 0 0 0 127 0"/>
<feOffset dx="2.91228" dy="2.91228"/>
<feGaussianBlur stdDeviation="7.2807"/>
<feColorMatrix type="matrix" values="0 0 0 0 0.0196078 0 0 0 0 0.976471 0 0 0 0 1 0 0 0 1 0"/>
<feBlend mode="normal" in2="BackgroundImageFix" result="effect1_dropShadow"/>
<feColorMatrix in="SourceAlpha" type="matrix" values="0 0 0 0 0 0 0 0 0 0 0 0 0 0 0 0 0 0 127 0"/>
<feOffset dx="-2.91228" dy="-2.91228"/>
<feGaussianBlur stdDeviation="7.2807"/>
<feColorMatrix type="matrix" values="0 0 0 0 0.8125 0 0 0 0 0.392708 0 0 0 0 0.708634 0 0 0 0.3 0"/>
<feBlend mode="normal" in2="effect1_dropShadow" result="effect2_dropShadow"/>
<feBlend mode="normal" in="SourceGraphic" in2="effect2_dropShadow" result="shape"/>
<feGaussianBlur stdDeviation="0.72807" result="effect3_foregroundBlur"/>
</filter>
<filter id="filter1_d" x="8.95927" y="39.3382" width="53.4661" height="56.5383" filterUnits="userSpaceOnUse" color-interpolation-filters="sRGB">
<feFlood flood-opacity="0" result="BackgroundImageFix"/>
<feColorMatrix in="SourceAlpha" type="matrix" values="0 0 0 0 0 0 0 0 0 0 0 0 0 0 0 0 0 0 127 0"/>
<feOffset dx="2.91228" dy="2.91228"/>
<feGaussianBlur stdDeviation="7.2807"/>
<feColorMatrix type="matrix" values="0 0 0 0 0.0117647 0 0 0 0 0.937255 0 0 0 0 0.913725 0 0 0 0.3 0"/>
<feBlend mode="normal" in2="BackgroundImageFix" result="effect1_dropShadow"/>
<feBlend mode="normal" in="SourceGraphic" in2="effect1_dropShadow" result="shape"/>
</filter>
<filter id="filter2_d" x="60.3913" y="12.4908" width="92.4035" height="36.4395" filterUnits="userSpaceOnUse" color-interpolation-filters="sRGB">
<feFlood flood-opacity="0" result="BackgroundImageFix"/>
<feColorMatrix in="SourceAlpha" type="matrix" values="0 0 0 0 0 0 0 0 0 0 0 0 0 0 0 0 0 0 127 0"/>
<feOffset/>
<feGaussianBlur stdDeviation="2.18421"/>
<feColorMatrix type="matrix" values="0 0 0 0 1 0 0 0 0 1 0 0 0 0 1 0 0 0 1 0"/>
<feBlend mode="normal" in2="BackgroundImageFix" result="effect1_dropShadow"/>
<feBlend mode="normal" in="SourceGraphic" in2="effect1_dropShadow" result="shape"/>
</filter>
<filter id="filter3_d" x="60.7444" y="0.0877981" width="93.5226" height="48.3909" filterUnits="userSpaceOnUse" color-interpolation-filters="sRGB">
<feFlood flood-opacity="0" result="BackgroundImageFix"/>
<feColorMatrix in="SourceAlpha" type="matrix" values="0 0 0 0 0 0 0 0 0 0 0 0 0 0 0 0 0 0 127 0"/>
<feOffset/>
<feGaussianBlur stdDeviation="1.82018"/>
<feColorMatrix type="matrix" values="0 0 0 0 1 0 0 0 0 1 0 0 0 0 1 0 0 0 1 0"/>
<feBlend mode="normal" in2="BackgroundImageFix" result="effect1_dropShadow"/>
<feBlend mode="normal" in="SourceGraphic" in2="effect1_dropShadow" result="shape"/>
</filter>
<filter id="filter4_ddf" x="0.456002" y="31.9797" width="63.9311" height="66.5687" filterUnits="userSpaceOnUse" color-interpolation-filters="sRGB">
<feFlood flood-opacity="0" result="BackgroundImageFix"/>
<feColorMatrix in="SourceAlpha" type="matrix" values="0 0 0 0 0 0 0 0 0 0 0 0 0 0 0 0 0 0 127 0"/>
<feOffset dx="-2.91228" dy="-2.91228"/>
<feGaussianBlur stdDeviation="7.2807"/>
<feColorMatrix type="matrix" values="0 0 0 0 0.501961 0 0 0 0 0.847059 0 0 0 0 1 0 0 0 0.3 0"/>
<feBlend mode="normal" in2="BackgroundImageFix" result="effect1_dropShadow"/>
<feColorMatrix in="SourceAlpha" type="matrix" values="0 0 0 0 0 0 0 0 0 0 0 0 0 0 0 0 0 0 127 0"/>
<feOffset dx="2.91228" dy="2.91228"/>
<feGaussianBlur stdDeviation="7.2807"/>
<feColorMatrix type="matrix" values="0 0 0 0 0.917647 0 0 0 0 0.501961 0 0 0 0 0.988235 0 0 0 0.3 0"/>
<feBlend mode="normal" in2="effect1_dropShadow" result="effect2_dropShadow"/>
<feBlend mode="normal" in="SourceGraphic" in2="effect2_dropShadow" result="shape"/>
<feGaussianBlur stdDeviation="1.45614" result="effect3_foregroundBlur"/>
</filter>
<linearGradient id="paint0_linear" x1="24.511" y1="53.7368" x2="38.3965" y2="77.6569" gradientUnits="userSpaceOnUse">
<stop stop-color="#80D8FF"/>
<stop offset="0.0001" stop-color="#4CFEE9"/>
<stop offset="1" stop-color="#EA80FC"/>
</linearGradient>
<linearGradient id="paint1_linear" x1="4.98518" y1="24.7741" x2="48.2304" y2="26.2779" gradientUnits="userSpaceOnUse">
<stop stop-color="#05F9FF"/>
<stop offset="0.436913" stop-color="#AB57FF"/>
<stop offset="1" stop-color="#151515"/>
</linearGradient>
<linearGradient id="paint2_linear" x1="64.7612" y1="7.74654" x2="92.2291" y2="71.0267" gradientUnits="userSpaceOnUse">
<stop stop-color="#00C4F6"/>
<stop offset="1" stop-color="#151515"/>
</linearGradient>
<linearGradient id="paint3_linear" x1="42.3753" y1="31.0716" x2="137.877" y2="-44.4231" gradientUnits="userSpaceOnUse">
<stop stop-color="#05F9FF"/>
<stop offset="0.313531" stop-color="#AB57FF"/>
<stop offset="1" stop-color="#151515"/>
</linearGradient>
<linearGradient id="paint4_linear" x1="76.435" y1="-6.54543" x2="106.851" y2="11.1063" gradientUnits="userSpaceOnUse">
<stop stop-color="#05F9FF"/>
<stop offset="0.436913" stop-color="#AB57FF"/>
<stop offset="1" stop-color="#151515"/>
</linearGradient>
<linearGradient id="paint5_linear" x1="98.4506" y1="-7.27394" x2="128.866" y2="10.3777" gradientUnits="userSpaceOnUse">
<stop stop-color="#05F9FF"/>
<stop offset="0.436913" stop-color="#AB57FF"/>
<stop offset="1" stop-color="#151515"/>
</linearGradient>
<linearGradient id="paint6_linear" x1="120.469" y1="-7.27394" x2="150.885" y2="10.3777" gradientUnits="userSpaceOnUse">
<stop stop-color="#05F9FF"/>
<stop offset="0.436913" stop-color="#AB57FF"/>
<stop offset="1" stop-color="#151515"/>
</linearGradient>
<linearGradient id="paint7_linear" x1="24.401" y1="53.3604" x2="38.8064" y2="78.1874" gradientUnits="userSpaceOnUse">
<stop stop-color="#80D8FF"/>
<stop offset="0.0001" stop-color="#4CFEE9"/>
<stop offset="1" stop-color="#EA80FC"/>
</linearGradient>
</defs>
</svg>
