<svg width="442" height="377" viewBox="0 0 442 377" fill="none" xmlns="http://www.w3.org/2000/svg">
<g filter="url(#filter0_f)">
<ellipse cx="327.885" cy="135.651" rx="2.00001" ry="1.99628" fill="#05F9FF"/>
<ellipse cx="343.886" cy="135.651" rx="2.00001" ry="1.99628" fill="#05F9FF"/>
<ellipse cx="359.886" cy="135.651" rx="2.00001" ry="1.99628" fill="#05F9FF"/>
<ellipse cx="375.885" cy="135.651" rx="2.00001" ry="1.99628" fill="#05F9FF"/>
<ellipse cx="391.885" cy="135.651" rx="2.00001" ry="1.99628" fill="#05F9FF"/>
<ellipse cx="407.884" cy="135.651" rx="2.00001" ry="1.99628" fill="#05F9FF"/>
<ellipse cx="357.885" cy="149.626" rx="2.00001" ry="1.99628" fill="#CF64B5"/>
<ellipse cx="373.885" cy="149.626" rx="2.00001" ry="1.99628" fill="#CF64B5"/>
<ellipse cx="389.885" cy="149.626" rx="2.00001" ry="1.99628" fill="#CF64B5"/>
<ellipse cx="405.884" cy="149.626" rx="2.00001" ry="1.99628" fill="#CF64B5"/>
<ellipse cx="421.884" cy="149.626" rx="2.00001" ry="1.99628" fill="#CF64B5"/>
<ellipse cx="437.885" cy="149.626" rx="2.00001" ry="1.99628" fill="#CF64B5"/>
</g>
<g filter="url(#filter1_f)">
<ellipse cx="327.885" cy="165.595" rx="2.00001" ry="1.99628" fill="#05F9FF"/>
<ellipse cx="343.886" cy="165.595" rx="2.00001" ry="1.99628" fill="#05F9FF"/>
<ellipse cx="359.886" cy="165.595" rx="2.00001" ry="1.99628" fill="#05F9FF"/>
<ellipse cx="375.886" cy="165.595" rx="2.00001" ry="1.99628" fill="#05F9FF"/>
<ellipse cx="391.886" cy="165.595" rx="2.00001" ry="1.99628" fill="#05F9FF"/>
<ellipse cx="407.885" cy="165.595" rx="2.00001" ry="1.99628" fill="#05F9FF"/>
<ellipse cx="357.885" cy="179.57" rx="2.00001" ry="1.99628" fill="#CF64B5"/>
<ellipse cx="373.885" cy="179.57" rx="2.00001" ry="1.99628" fill="#CF64B5"/>
<ellipse cx="389.885" cy="179.57" rx="2.00001" ry="1.99628" fill="#CF64B5"/>
<ellipse cx="405.885" cy="179.57" rx="2.00001" ry="1.99628" fill="#CF64B5"/>
<ellipse cx="421.885" cy="179.57" rx="2.00001" ry="1.99628" fill="#CF64B5"/>
<ellipse cx="437.885" cy="179.57" rx="2.00001" ry="1.99628" fill="#CF64B5"/>
</g>
<g filter="url(#filter2_f)">
<ellipse cx="327.885" cy="195.54" rx="2.00001" ry="1.99628" fill="#05F9FF"/>
<ellipse cx="343.886" cy="195.54" rx="2.00001" ry="1.99628" fill="#05F9FF"/>
<ellipse cx="359.886" cy="195.54" rx="2.00001" ry="1.99628" fill="#05F9FF"/>
<ellipse cx="375.886" cy="195.54" rx="2.00001" ry="1.99628" fill="#05F9FF"/>
<ellipse cx="391.886" cy="195.54" rx="2.00001" ry="1.99628" fill="#05F9FF"/>
<ellipse cx="407.885" cy="195.54" rx="2.00001" ry="1.99628" fill="#05F9FF"/>
<ellipse cx="357.885" cy="209.513" rx="2.00001" ry="1.99628" fill="#CF64B5"/>
<ellipse cx="373.885" cy="209.513" rx="2.00001" ry="1.99628" fill="#CF64B5"/>
<ellipse cx="389.885" cy="209.513" rx="2.00001" ry="1.99628" fill="#CF64B5"/>
<ellipse cx="405.885" cy="209.513" rx="2.00001" ry="1.99628" fill="#CF64B5"/>
<ellipse cx="421.885" cy="209.513" rx="2.00001" ry="1.99628" fill="#CF64B5"/>
<ellipse cx="437.885" cy="209.513" rx="2.00001" ry="1.99628" fill="#CF64B5"/>
</g>
<g filter="url(#filter3_f)">
<ellipse cx="4.88476" cy="314.199" rx="2" ry="2.00004" fill="#05F9FF"/>
<ellipse cx="20.8848" cy="314.199" rx="2" ry="2.00004" fill="#05F9FF"/>
<ellipse cx="36.8857" cy="314.199" rx="2" ry="2.00004" fill="#05F9FF"/>
<ellipse cx="52.8848" cy="314.199" rx="2" ry="2.00004" fill="#05F9FF"/>
<ellipse cx="68.8848" cy="314.199" rx="2" ry="2.00004" fill="#05F9FF"/>
<ellipse cx="84.8848" cy="314.199" rx="2" ry="2.00004" fill="#05F9FF"/>
<ellipse cx="34.8848" cy="328.199" rx="2" ry="2.00004" fill="#CF64B5"/>
<ellipse cx="50.8857" cy="328.199" rx="2" ry="2.00004" fill="#CF64B5"/>
<ellipse cx="66.8848" cy="328.199" rx="2" ry="2.00004" fill="#CF64B5"/>
<ellipse cx="82.8848" cy="328.199" rx="2" ry="2.00004" fill="#CF64B5"/>
<ellipse cx="98.8848" cy="328.199" rx="2" ry="2.00004" fill="#CF64B5"/>
<ellipse cx="114.885" cy="328.199" rx="2" ry="2.00004" fill="#CF64B5"/>
</g>
<g filter="url(#filter4_f)">
<ellipse cx="327.885" cy="225.484" rx="2.00001" ry="1.99628" fill="#05F9FF"/>
<ellipse cx="343.886" cy="225.484" rx="2.00001" ry="1.99628" fill="#05F9FF"/>
<ellipse cx="359.886" cy="225.484" rx="2.00001" ry="1.99628" fill="#05F9FF"/>
<ellipse cx="375.886" cy="225.484" rx="2.00001" ry="1.99628" fill="#05F9FF"/>
<ellipse cx="391.886" cy="225.484" rx="2.00001" ry="1.99628" fill="#05F9FF"/>
<ellipse cx="407.885" cy="225.484" rx="2.00001" ry="1.99628" fill="#05F9FF"/>
<ellipse cx="357.885" cy="239.458" rx="2.00001" ry="1.99628" fill="#CF64B5"/>
<ellipse cx="373.885" cy="239.458" rx="2.00001" ry="1.99628" fill="#CF64B5"/>
<ellipse cx="389.885" cy="239.458" rx="2.00001" ry="1.99628" fill="#CF64B5"/>
<ellipse cx="405.885" cy="239.458" rx="2.00001" ry="1.99628" fill="#CF64B5"/>
<ellipse cx="421.885" cy="239.458" rx="2.00001" ry="1.99628" fill="#CF64B5"/>
<ellipse cx="437.885" cy="239.458" rx="2.00001" ry="1.99628" fill="#CF64B5"/>
</g>
<g filter="url(#filter5_ddf)">
<path d="M338.99 180.701C334.499 185.192 334.499 192.48 338.99 196.971L387.895 245.87C391.214 249.189 391.214 254.578 387.895 257.897L296.927 348.854C293.618 352.163 288.26 352.163 284.951 348.854L235.994 299.903C231.514 295.422 224.257 295.422 219.776 299.903L170.819 348.854C167.509 352.163 162.152 352.163 158.842 348.854L67.875 257.897C64.5556 254.578 64.5556 249.189 67.875 245.87L116.78 196.971C121.271 192.48 121.271 185.192 116.78 180.701L67.8743 131.802C64.5549 128.483 64.5549 123.094 67.8743 119.775L158.842 28.8176C162.151 25.5087 167.509 25.5087 170.818 28.8176L219.776 77.77C224.257 82.2502 231.514 82.2502 235.994 77.77L284.952 28.8181C288.261 25.5093 293.619 25.5093 296.928 28.8182L387.895 119.775C391.215 123.094 391.215 128.483 387.895 131.802L338.99 180.701Z" stroke="url(#paint0_linear)" stroke-width="3"/>
</g>
<g filter="url(#filter6_dd)">
<path d="M330.05 195.91C326.145 192.006 326.145 185.667 330.05 181.762L378.956 132.862C382.861 128.957 382.861 122.619 378.956 118.714L287.988 27.7568C284.093 23.8623 277.786 23.8623 273.891 27.7568L224.933 76.7095C221.038 80.604 214.73 80.604 210.835 76.7095L161.878 27.7582C157.983 23.8637 151.676 23.8637 147.781 27.7582L56.8137 118.715C52.9085 122.62 52.9085 128.959 56.8137 132.863L105.718 181.762C109.623 185.667 109.623 192.006 105.718 195.91L56.8143 244.808C52.9091 248.713 52.9091 255.052 56.8144 258.957L147.782 349.914C151.677 353.808 157.984 353.808 161.879 349.914L210.835 300.963C214.73 297.068 221.038 297.068 224.933 300.963L273.89 349.915C277.785 353.81 284.093 353.81 287.988 349.915L378.955 258.958C382.86 255.053 382.86 248.715 378.955 244.81L330.05 195.91Z" fill="#151515"/>
<path d="M377.895 131.801L328.989 180.701C324.498 185.192 324.498 192.48 328.989 196.971L377.895 245.871C381.214 249.19 381.214 254.578 377.895 257.897L286.927 348.854C283.618 352.163 278.26 352.163 274.951 348.854L225.993 299.902C221.513 295.422 214.256 295.422 209.775 299.902L160.819 348.853C157.509 352.162 152.152 352.162 148.842 348.853L57.875 257.896C54.5556 254.577 54.5556 249.188 57.8749 245.869L106.779 196.971C111.27 192.48 111.27 185.192 106.779 180.701L57.8743 131.803C54.5549 128.484 54.5549 123.095 57.8743 119.776L148.842 28.8189C152.151 25.5101 157.509 25.5101 160.818 28.8189L209.775 77.7702C214.256 82.2505 221.513 82.2505 225.993 77.7702L274.952 28.8176C278.261 25.5087 283.619 25.5087 286.928 28.8176L377.895 119.775C381.215 123.094 381.215 128.482 377.895 131.801Z" stroke="url(#paint1_linear)" stroke-width="3"/>
</g>
<path d="M341.42 58.1628H282.879L286.226 53.1721H344.767L341.42 58.1628Z" fill="url(#paint2_linear)"/>
<path d="M49.8342 301.219H120.724L115.752 295.23H45.8604L49.8342 301.219Z" fill="url(#paint3_linear)"/>
<path d="M372.728 65.4656H304.832L306.81 62.4712H374.705L372.728 65.4656Z" fill="url(#paint4_linear)"/>
<path d="M360.743 327.319H292.848L294.826 325.322H362.721L360.743 327.319Z" fill="url(#paint5_linear)"/>
<path d="M336.723 334.41H279.098L282.151 330.418H339.776L336.723 334.41Z" fill="url(#paint6_linear)"/>
<path d="M106.359 88.7004H58.8069L61.1641 90.7055H107.718L106.359 88.7004Z" fill="url(#paint7_linear)"/>
<defs>
<filter id="filter0_f" x="323.885" y="131.655" width="118" height="21.9672" filterUnits="userSpaceOnUse" color-interpolation-filters="sRGB">
<feFlood flood-opacity="0" result="BackgroundImageFix"/>
<feBlend mode="normal" in="SourceGraphic" in2="BackgroundImageFix" result="shape"/>
<feGaussianBlur stdDeviation="1" result="effect1_foregroundBlur"/>
</filter>
<filter id="filter1_f" x="323.885" y="161.599" width="118" height="21.9672" filterUnits="userSpaceOnUse" color-interpolation-filters="sRGB">
<feFlood flood-opacity="0" result="BackgroundImageFix"/>
<feBlend mode="normal" in="SourceGraphic" in2="BackgroundImageFix" result="shape"/>
<feGaussianBlur stdDeviation="1" result="effect1_foregroundBlur"/>
</filter>
<filter id="filter2_f" x="323.885" y="191.543" width="118" height="21.9662" filterUnits="userSpaceOnUse" color-interpolation-filters="sRGB">
<feFlood flood-opacity="0" result="BackgroundImageFix"/>
<feBlend mode="normal" in="SourceGraphic" in2="BackgroundImageFix" result="shape"/>
<feGaussianBlur stdDeviation="1" result="effect1_foregroundBlur"/>
</filter>
<filter id="filter3_f" x="0.884766" y="310.199" width="118" height="22.0001" filterUnits="userSpaceOnUse" color-interpolation-filters="sRGB">
<feFlood flood-opacity="0" result="BackgroundImageFix"/>
<feBlend mode="normal" in="SourceGraphic" in2="BackgroundImageFix" result="shape"/>
<feGaussianBlur stdDeviation="1" result="effect1_foregroundBlur"/>
</filter>
<filter id="filter4_f" x="323.885" y="221.488" width="118" height="21.9662" filterUnits="userSpaceOnUse" color-interpolation-filters="sRGB">
<feFlood flood-opacity="0" result="BackgroundImageFix"/>
<feBlend mode="normal" in="SourceGraphic" in2="BackgroundImageFix" result="shape"/>
<feGaussianBlur stdDeviation="1" result="effect1_foregroundBlur"/>
</filter>
<filter id="filter5_ddf" x="39.8848" y="0.835938" width="376" height="376" filterUnits="userSpaceOnUse" color-interpolation-filters="sRGB">
<feFlood flood-opacity="0" result="BackgroundImageFix"/>
<feColorMatrix in="SourceAlpha" type="matrix" values="0 0 0 0 0 0 0 0 0 0 0 0 0 0 0 0 0 0 127 0"/>
<feOffset dx="4" dy="4"/>
<feGaussianBlur stdDeviation="10"/>
<feColorMatrix type="matrix" values="0 0 0 0 0.917647 0 0 0 0 0.501961 0 0 0 0 0.988235 0 0 0 0.3 0"/>
<feBlend mode="normal" in2="BackgroundImageFix" result="effect1_dropShadow"/>
<feColorMatrix in="SourceAlpha" type="matrix" values="0 0 0 0 0 0 0 0 0 0 0 0 0 0 0 0 0 0 127 0"/>
<feOffset dx="-4" dy="-4"/>
<feGaussianBlur stdDeviation="10"/>
<feColorMatrix type="matrix" values="0 0 0 0 0.501961 0 0 0 0 0.847059 0 0 0 0 1 0 0 0 0.3 0"/>
<feBlend mode="normal" in2="effect1_dropShadow" result="effect2_dropShadow"/>
<feBlend mode="normal" in="SourceGraphic" in2="effect2_dropShadow" result="shape"/>
<feGaussianBlur stdDeviation="5" result="effect3_foregroundBlur"/>
</filter>
<filter id="filter6_dd" x="29.8848" y="0.835938" width="376" height="376" filterUnits="userSpaceOnUse" color-interpolation-filters="sRGB">
<feFlood flood-opacity="0" result="BackgroundImageFix"/>
<feColorMatrix in="SourceAlpha" type="matrix" values="0 0 0 0 0 0 0 0 0 0 0 0 0 0 0 0 0 0 127 0"/>
<feOffset dx="4" dy="4"/>
<feGaussianBlur stdDeviation="10"/>
<feColorMatrix type="matrix" values="0 0 0 0 0.917647 0 0 0 0 0.501961 0 0 0 0 0.988235 0 0 0 0.3 0"/>
<feBlend mode="normal" in2="BackgroundImageFix" result="effect1_dropShadow"/>
<feColorMatrix in="SourceAlpha" type="matrix" values="0 0 0 0 0 0 0 0 0 0 0 0 0 0 0 0 0 0 127 0"/>
<feOffset dx="-4" dy="-4"/>
<feGaussianBlur stdDeviation="10"/>
<feColorMatrix type="matrix" values="0 0 0 0 0.501961 0 0 0 0 0.847059 0 0 0 0 1 0 0 0 0.3 0"/>
<feBlend mode="normal" in2="effect1_dropShadow" result="effect2_dropShadow"/>
<feBlend mode="normal" in="SourceGraphic" in2="effect2_dropShadow" result="shape"/>
</filter>
<linearGradient id="paint0_linear" x1="346.743" y1="68.272" x2="111.936" y2="304.161" gradientUnits="userSpaceOnUse">
<stop stop-color="#4CFEE9"/>
<stop offset="0.0001" stop-color="#80D8FF"/>
<stop offset="1" stop-color="#EA80FC"/>
</linearGradient>
<linearGradient id="paint1_linear" x1="336.744" y1="68.2729" x2="101.939" y2="304.162" gradientUnits="userSpaceOnUse">
<stop stop-color="#4CFEE9"/>
<stop offset="0.0001" stop-color="#80D8FF"/>
<stop offset="1" stop-color="#EA80FC"/>
</linearGradient>
<linearGradient id="paint2_linear" x1="296.838" y1="45.7531" x2="304.714" y2="33.9754" gradientUnits="userSpaceOnUse">
<stop stop-color="#151515"/>
<stop offset="0.630208" stop-color="#BC78FF"/>
<stop offset="1" stop-color="#4CFEE9"/>
</linearGradient>
<linearGradient id="paint3_linear" x1="90.5065" y1="298.224" x2="87.9668" y2="288.039" gradientUnits="userSpaceOnUse">
<stop stop-color="#151515"/>
<stop offset="0.507543" stop-color="#AEB1FD"/>
<stop offset="1" stop-color="#EA80FC"/>
</linearGradient>
<linearGradient id="paint4_linear" x1="313.591" y1="63.9684" x2="314.673" y2="55.2949" gradientUnits="userSpaceOnUse">
<stop stop-color="#151515"/>
<stop offset="0.410438" stop-color="#80D8FF"/>
<stop offset="1" stop-color="#4CFEE9"/>
</linearGradient>
<linearGradient id="paint5_linear" x1="301.607" y1="326.32" x2="302.092" y2="320.489" gradientUnits="userSpaceOnUse">
<stop stop-color="#151515"/>
<stop offset="0.410438" stop-color="#AEB1FD"/>
<stop offset="1" stop-color="#EA80FC"/>
</linearGradient>
<linearGradient id="paint6_linear" x1="297.596" y1="330.418" x2="301.014" y2="320.041" gradientUnits="userSpaceOnUse">
<stop stop-color="#151515"/>
<stop offset="0.447199" stop-color="#AEB1FD"/>
</linearGradient>
<linearGradient id="paint7_linear" x1="46.4481" y1="89.2925" x2="102.42" y2="93.4087" gradientUnits="userSpaceOnUse">
<stop offset="0.200098" stop-color="#E980FC"/>
<stop offset="0.668337" stop-color="#151515"/>
</linearGradient>
</defs>
</svg>
