<svg width="21" height="25" viewBox="0 0 21 25" fill="none" xmlns="http://www.w3.org/2000/svg">
<path fill-rule="evenodd" clip-rule="evenodd" d="M10.8848 12.8359C14.1985 12.8359 16.8848 10.1496 16.8848 6.83594C16.8848 3.52223 14.1985 0.835938 10.8848 0.835938C7.57106 0.835938 4.88477 3.52223 4.88477 6.83594C4.88477 10.1496 7.57106 12.8359 10.8848 12.8359ZM10.8848 14.8359C16.4076 14.8359 20.8848 19.3131 20.8848 24.8359H0.884766C0.884766 19.3131 5.3619 14.8359 10.8848 14.8359Z" fill="#151515"/>
<path fill-rule="evenodd" clip-rule="evenodd" d="M10.8848 12.8359C14.1985 12.8359 16.8848 10.1496 16.8848 6.83594C16.8848 3.52223 14.1985 0.835938 10.8848 0.835938C7.57106 0.835938 4.88477 3.52223 4.88477 6.83594C4.88477 10.1496 7.57106 12.8359 10.8848 12.8359ZM10.8848 14.8359C16.4076 14.8359 20.8848 19.3131 20.8848 24.8359H0.884766C0.884766 19.3131 5.3619 14.8359 10.8848 14.8359Z" fill="url(#paint0_linear)"/>
<defs>
<linearGradient id="paint0_linear" x1="-3.91735" y1="-6.39024" x2="39.4366" y2="-6.72973" gradientUnits="userSpaceOnUse">
<stop stop-color="#05F9FF"/>
<stop offset="0.666667" stop-color="#AB57FF"/>
<stop offset="0.975293" stop-color="#151515"/>
</linearGradient>
</defs>
</svg>
