<svg width="188" height="116" viewBox="0 0 188 116" fill="none" xmlns="http://www.w3.org/2000/svg">
<g filter="url(#filter0_df)">
<path d="M17.4468 79.587C16.4119 77.8434 16.9716 75.6138 18.682 74.6032L29.2414 68.3642C35.8768 77.1262 38.7853 82.1576 42.6414 90.9347L32.0794 97.1752C30.369 98.1858 28.1404 97.6036 27.1055 95.86L17.4468 79.587Z" stroke="url(#paint0_linear)" stroke-width="0.729651"/>
</g>
<rect x="70.8926" y="23.6666" width="94.125" height="23.3285" fill="url(#paint1_linear)"/>
<path d="M94.6648 37.9772C94.6648 37.6478 94.5479 37.3939 94.314 37.2155C94.0836 37.0371 93.6658 36.8569 93.0605 36.6751C92.4552 36.4932 91.9738 36.2908 91.6161 36.0678C90.9317 35.6388 90.5896 35.0796 90.5896 34.3899C90.5896 33.786 90.8354 33.2885 91.3272 32.8973C91.8225 32.5061 92.4638 32.3105 93.2514 32.3105C93.7741 32.3105 94.2401 32.4066 94.6494 32.5988C95.0586 32.7909 95.3801 33.0654 95.614 33.4223C95.8479 33.7757 95.9648 34.1686 95.9648 34.6009H94.6648C94.6648 34.2097 94.541 33.9044 94.2934 33.6848C94.0492 33.4617 93.6985 33.3502 93.2411 33.3502C92.8146 33.3502 92.4828 33.4411 92.2455 33.623C92.0116 33.8049 91.8947 34.0588 91.8947 34.3847C91.8947 34.6592 92.0219 34.8891 92.2764 35.0744C92.5309 35.2563 92.9505 35.4347 93.5351 35.6097C94.1197 35.7812 94.5892 35.9785 94.9434 36.2016C95.2976 36.4212 95.5573 36.6751 95.7223 36.9633C95.8874 37.2481 95.9699 37.5826 95.9699 37.9669C95.9699 38.5914 95.7292 39.089 95.2477 39.4595C94.7697 39.8267 94.1197 40.0103 93.2978 40.0103C92.7544 40.0103 92.2541 39.9107 91.7967 39.7117C91.3427 39.5093 90.9885 39.2314 90.734 38.8779C90.4829 38.5245 90.3574 38.1128 90.3574 37.6427H91.6625C91.6625 38.0682 91.8035 38.3976 92.0855 38.6309C92.3675 38.8642 92.7716 38.9809 93.2978 38.9809C93.7518 38.9809 94.0922 38.89 94.3192 38.7081C94.5496 38.5228 94.6648 38.2792 94.6648 37.9772Z" fill="url(#paint2_linear)"/>
<path d="M102.609 32.4135V37.4214C102.609 38.2174 102.353 38.8488 101.84 39.3154C101.331 39.7786 100.652 40.0103 99.8028 40.0103C98.943 40.0103 98.2603 39.7821 97.7548 39.3257C97.2493 38.8659 96.9965 38.2294 96.9965 37.4162V32.4135H98.2965V37.4265C98.2965 37.9275 98.4237 38.3101 98.6782 38.5743C98.9327 38.8385 99.3075 38.9706 99.8028 38.9706C100.807 38.9706 101.309 38.4422 101.309 37.3854V32.4135H102.609Z" fill="url(#paint3_linear)"/>
<path d="M104.007 39.9073V32.4135H106.581C107.431 32.4135 108.077 32.5833 108.521 32.923C108.964 33.2627 109.186 33.7688 109.186 34.4413C109.186 34.7845 109.093 35.0933 108.908 35.3678C108.722 35.6423 108.45 35.855 108.093 36.006C108.498 36.1158 108.811 36.3234 109.031 36.6288C109.255 36.9307 109.367 37.2944 109.367 37.7199C109.367 38.4233 109.14 38.9637 108.686 39.3412C108.235 39.7186 107.589 39.9073 106.746 39.9073H104.007ZM105.312 36.5258V38.8676H106.762C107.171 38.8676 107.491 38.7664 107.721 38.564C107.952 38.3615 108.067 38.0802 108.067 37.7199C108.067 36.941 107.668 36.543 106.87 36.5258H105.312ZM105.312 35.5685H106.591C106.997 35.5685 107.314 35.4776 107.541 35.2957C107.771 35.1104 107.886 34.8497 107.886 34.5134C107.886 34.1428 107.78 33.8752 107.566 33.7105C107.357 33.5458 107.028 33.4634 106.581 33.4634H105.312V35.5685Z" fill="url(#paint4_linear)"/>
<path d="M114.598 37.9772C114.598 37.6478 114.481 37.3939 114.247 37.2155C114.016 37.0371 113.598 36.8569 112.993 36.6751C112.388 36.4932 111.906 36.2908 111.549 36.0678C110.864 35.6388 110.522 35.0796 110.522 34.3899C110.522 33.786 110.768 33.2885 111.26 32.8973C111.755 32.5061 112.397 32.3105 113.184 32.3105C113.707 32.3105 114.173 32.4066 114.582 32.5988C114.991 32.7909 115.313 33.0654 115.547 33.4223C115.781 33.7757 115.897 34.1686 115.897 34.6009H114.598C114.598 34.2097 114.474 33.9044 114.226 33.6848C113.982 33.4617 113.631 33.3502 113.174 33.3502C112.747 33.3502 112.415 33.4411 112.178 33.623C111.944 33.8049 111.827 34.0588 111.827 34.3847C111.827 34.6592 111.955 34.8891 112.209 35.0744C112.464 35.2563 112.883 35.4347 113.468 35.6097C114.052 35.7812 114.522 35.9785 114.876 36.2016C115.23 36.4212 115.49 36.6751 115.655 36.9633C115.82 37.2481 115.903 37.5826 115.903 37.9669C115.903 38.5914 115.662 39.089 115.18 39.4595C114.702 39.8267 114.052 40.0103 113.231 40.0103C112.687 40.0103 112.187 39.9107 111.729 39.7117C111.275 39.5093 110.921 39.2314 110.667 38.8779C110.416 38.5245 110.29 38.1128 110.29 37.6427H111.595C111.595 38.0682 111.736 38.3976 112.018 38.6309C112.3 38.8642 112.704 38.9809 113.231 38.9809C113.684 38.9809 114.025 38.89 114.252 38.7081C114.482 38.5228 114.598 38.2792 114.598 37.9772Z" fill="url(#paint5_linear)"/>
<path d="M122.779 37.4677C122.703 38.2672 122.408 38.8917 121.892 39.3412C121.376 39.7872 120.69 40.0103 119.833 40.0103C119.235 40.0103 118.707 39.8696 118.25 39.5882C117.796 39.3034 117.445 38.9002 117.197 38.3787C116.95 37.8571 116.821 37.2515 116.811 36.5619V35.8619C116.811 35.155 116.936 34.5323 117.187 33.9936C117.438 33.4549 117.798 33.0397 118.265 32.748C118.736 32.4564 119.28 32.3105 119.895 32.3105C120.724 32.3105 121.391 32.5353 121.897 32.9848C122.402 33.4343 122.696 34.0691 122.779 34.8891H121.479C121.417 34.3504 121.259 33.9627 121.004 33.7259C120.753 33.4857 120.384 33.3657 119.895 33.3657C119.328 33.3657 118.891 33.5732 118.585 33.9884C118.282 34.4002 118.128 35.0058 118.121 35.8053V36.4692C118.121 37.279 118.265 37.8966 118.554 38.3221C118.846 38.7476 119.273 38.9603 119.833 38.9603C120.346 38.9603 120.731 38.8453 120.989 38.6155C121.247 38.3856 121.41 38.003 121.479 37.4677H122.779Z" fill="url(#paint6_linear)"/>
<path d="M126.71 37.0199H125.255V39.9073H123.95V32.4135H126.591C127.458 32.4135 128.127 32.6073 128.598 32.9951C129.069 33.3828 129.305 33.9438 129.305 34.6781C129.305 35.1791 129.183 35.5994 128.938 35.9391C128.698 36.2753 128.361 36.5344 127.927 36.7163L129.614 39.8404V39.9073H128.216L126.71 37.0199ZM125.255 35.9751H126.596C127.037 35.9751 127.38 35.8653 127.628 35.6457C127.876 35.4227 127.999 35.119 127.999 34.7347C127.999 34.3333 127.884 34.0227 127.654 33.8031C127.427 33.5835 127.086 33.4703 126.632 33.4634H125.255V35.9751Z" fill="url(#paint7_linear)"/>
<path d="M131.92 39.9073H130.62V32.4135H131.92V39.9073Z" fill="url(#paint8_linear)"/>
<path d="M133.524 39.9073V32.4135H136.098C136.948 32.4135 137.594 32.5833 138.038 32.923C138.482 33.2627 138.704 33.7688 138.704 34.4413C138.704 34.7845 138.611 35.0933 138.425 35.3678C138.239 35.6423 137.968 35.855 137.61 36.006C138.016 36.1158 138.329 36.3234 138.549 36.6288C138.772 36.9307 138.884 37.2944 138.884 37.7199C138.884 38.4233 138.657 38.9637 138.203 39.3412C137.753 39.7186 137.106 39.9073 136.264 39.9073H133.524ZM134.829 36.5258V38.8676H136.279C136.688 38.8676 137.008 38.7664 137.238 38.564C137.469 38.3615 137.584 38.0802 137.584 37.7199C137.584 36.941 137.185 36.543 136.387 36.5258H134.829ZM134.829 35.5685H136.109C136.515 35.5685 136.831 35.4776 137.058 35.2957C137.288 35.1104 137.404 34.8497 137.404 34.5134C137.404 34.1428 137.297 33.8752 137.084 33.7105C136.874 33.5458 136.546 33.4634 136.098 33.4634H134.829V35.5685Z" fill="url(#paint9_linear)"/>
<path d="M144.579 36.5619H141.494V38.8676H145.1V39.9073H140.189V32.4135H145.064V33.4634H141.494V35.5325H144.579V36.5619Z" fill="url(#paint10_linear)"/>
<path opacity="0.5" fill-rule="evenodd" clip-rule="evenodd" d="M71.1126 35.4563L71.1126 46.6967H164.685V35.4561V35.0273V23.7867H71.1126L71.1126 35.0271C71.1126 35.0271 71.1126 35.0272 71.1126 35.0273V35.4561C71.1126 35.4562 71.1126 35.4562 71.1126 35.4563ZM168.458 35.0273V21.939C168.458 21.9331 168.458 21.9273 168.458 21.9214C168.459 21.9157 168.459 21.9101 168.459 21.9044C168.459 21.6443 168.406 21.3966 168.31 21.1713C168.024 20.4955 167.353 20.0214 166.572 20.0214C166.554 20.0214 166.536 20.0216 166.518 20.0221H69.2793C69.2616 20.0216 69.2438 20.0214 69.226 20.0214C68.6129 20.0214 68.0681 20.3131 67.7235 20.7651C67.4822 21.0814 67.3389 21.4762 67.3389 21.9044C67.3389 21.9199 67.3391 21.9354 67.3394 21.9509V35.0273V35.4561V48.5325C67.3391 48.5479 67.3389 48.5634 67.3389 48.579C67.3389 49.0077 67.4825 49.4029 67.7244 49.7194C68.069 50.1707 68.6134 50.462 69.226 50.462C69.2438 50.462 69.2616 50.4618 69.2793 50.4613H166.518C166.536 50.4618 166.554 50.462 166.572 50.462C167.321 50.462 167.968 50.0267 168.272 49.3958C168.285 49.3683 168.298 49.3405 168.31 49.3124C168.406 49.087 168.459 48.8392 168.459 48.579C168.459 48.5674 168.458 48.5559 168.458 48.5444V35.4561V35.0273Z" fill="url(#paint11_linear)"/>
<path d="M30.7381 71.6217C32.6247 68.9865 33.7566 66.2746 33.7566 66.2746C33.7566 66.2746 34.3899 64.6425 34.8885 63.6394C35.4163 62.5776 36.3978 61.0043 36.3978 61.0043C36.3978 61.0043 36.8716 60.167 38.2843 59.122C39.6669 58.0993 42.6798 57.9966 44.9298 59.4041C48.4581 56.2249 59.9867 46.2415 62.8096 46.6989C63.7295 46.848 63.9416 47.1521 64.3189 48.2048C64.5294 48.7921 63.9416 51.2164 61.3004 53.4751C60.5928 54.0802 56.0714 59.5612 55.9396 60.4816C55.2634 61.5752 54.8861 61.9167 55.2634 61.8338C55.6407 61.751 56.7147 61.4864 57.5273 61.8338C58.2934 62.1614 58.5621 62.6559 59.0365 63.3396C59.4116 63.8802 59.6697 64.1993 59.7911 64.8455C59.8726 65.279 59.8726 65.5413 59.7911 65.9748C59.6697 66.6211 58.6592 67.5635 59.0365 67.4807C59.4138 67.3978 60.5458 67.8571 60.9231 68.2336C61.3004 68.61 61.6777 69.3629 61.6777 69.3629C61.6777 69.3629 62.5929 70.7058 62.4323 71.6217C62.2698 72.549 61.3004 73.0446 60.9231 73.504C60.5458 73.9633 62.4323 74.2569 62.4323 74.2569C62.4323 74.2569 63.5643 74.5505 63.9416 75.0098C64.3189 75.4691 64.3189 76.8092 63.9416 77.645C63.5643 78.4808 63.187 78.8572 62.4323 79.5273C61.6777 80.1973 54.2004 85.4008 48.0945 87.0564C46.7835 87.4118 44.6986 87.8093 44.6986 87.8093C44.6986 87.8093 41.3028 88.5622 40.1709 87.8093C39.039 87.0564 39.039 85.5505 39.039 84.4212V82.1625C39.039 80.9157 38.0442 79.6762 36.734 78.4808L34.8885 76.9389C34.8885 76.9389 29.6992 73.0729 30.7381 71.6217Z" fill="#9682E8"/>
<g filter="url(#filter1_dd)">
<path d="M18.699 79.4743C17.6371 77.6853 18.2299 75.3763 20.0229 74.3169L30.3173 68.2345C36.7555 76.6834 39.4969 81.4362 43.1962 89.933L32.9018 96.0154C31.1088 97.0748 28.7945 96.4834 27.7327 94.6944L18.699 79.4743Z" fill="url(#paint12_linear)"/>
<path d="M19.013 79.2887C18.0543 77.6733 18.5893 75.5877 20.2091 74.6306L30.2235 68.7136C36.4301 76.8818 39.1478 81.5845 42.7326 89.7831L32.7156 95.7017C31.0958 96.6588 29.0056 96.1242 28.0468 94.5088L19.013 79.2887Z" stroke="url(#paint13_linear)" stroke-width="0.729651"/>
</g>
<g filter="url(#filter2_dddf)">
<rect x="-0.363302" y="-0.366412" width="104.329" height="34.2221" rx="4.01308" transform="matrix(0.99999 0.00435648 -0.00416796 0.999991 66.1108 18.3901)" stroke="url(#paint14_linear)" stroke-width="0.729651"/>
</g>
<defs>
<filter id="filter0_df" x="4.8871" y="56.2103" width="55.7298" height="59.3369" filterUnits="userSpaceOnUse" color-interpolation-filters="sRGB">
<feFlood flood-opacity="0" result="BackgroundImageFix"/>
<feColorMatrix in="SourceAlpha" type="matrix" values="0 0 0 0 0 0 0 0 0 0 0 0 0 0 0 0 0 0 127 0"/>
<feOffset dx="2.9186" dy="2.9186"/>
<feGaussianBlur stdDeviation="7.29651"/>
<feColorMatrix type="matrix" values="0 0 0 0 0.8125 0 0 0 0 0.392708 0 0 0 0 0.708634 0 0 0 0.3 0"/>
<feBlend mode="normal" in2="BackgroundImageFix" result="effect1_dropShadow"/>
<feBlend mode="normal" in="SourceGraphic" in2="effect1_dropShadow" result="shape"/>
<feGaussianBlur stdDeviation="0.729651" result="effect2_foregroundBlur"/>
</filter>
<filter id="filter1_dd" x="0.660247" y="50.7229" width="54.2104" height="57.4929" filterUnits="userSpaceOnUse" color-interpolation-filters="sRGB">
<feFlood flood-opacity="0" result="BackgroundImageFix"/>
<feColorMatrix in="SourceAlpha" type="matrix" values="0 0 0 0 0 0 0 0 0 0 0 0 0 0 0 0 0 0 127 0"/>
<feOffset dx="-2.9186" dy="-2.9186"/>
<feGaussianBlur stdDeviation="7.29651"/>
<feColorMatrix type="matrix" values="0 0 0 0 0.0196078 0 0 0 0 0.976471 0 0 0 0 1 0 0 0 0.3 0"/>
<feBlend mode="normal" in2="BackgroundImageFix" result="effect1_dropShadow"/>
<feColorMatrix in="SourceAlpha" type="matrix" values="0 0 0 0 0 0 0 0 0 0 0 0 0 0 0 0 0 0 127 0"/>
<feOffset dy="2.9186"/>
<feGaussianBlur stdDeviation="1.4593"/>
<feColorMatrix type="matrix" values="0 0 0 0 0 0 0 0 0 0 0 0 0 0 0 0 0 0 0.25 0"/>
<feBlend mode="normal" in2="effect1_dropShadow" result="effect2_dropShadow"/>
<feBlend mode="normal" in="SourceGraphic" in2="effect2_dropShadow" result="shape"/>
</filter>
<filter id="filter2_dddf" x="47.7462" y="0.163177" width="140.19" height="70.3943" filterUnits="userSpaceOnUse" color-interpolation-filters="sRGB">
<feFlood flood-opacity="0" result="BackgroundImageFix"/>
<feColorMatrix in="SourceAlpha" type="matrix" values="0 0 0 0 0 0 0 0 0 0 0 0 0 0 0 0 0 0 127 0"/>
<feOffset dx="2.9186" dy="2.9186"/>
<feGaussianBlur stdDeviation="7.29651"/>
<feColorMatrix type="matrix" values="0 0 0 0 0.0117647 0 0 0 0 0.937255 0 0 0 0 0.913725 0 0 0 0.3 0"/>
<feBlend mode="normal" in2="BackgroundImageFix" result="effect1_dropShadow"/>
<feColorMatrix in="SourceAlpha" type="matrix" values="0 0 0 0 0 0 0 0 0 0 0 0 0 0 0 0 0 0 127 0"/>
<feOffset dx="-2.9186" dy="-2.9186"/>
<feGaussianBlur stdDeviation="7.29651"/>
<feColorMatrix type="matrix" values="0 0 0 0 1 0 0 0 0 1 0 0 0 0 1 0 0 0 0.3 0"/>
<feBlend mode="normal" in2="effect1_dropShadow" result="effect2_dropShadow"/>
<feColorMatrix in="SourceAlpha" type="matrix" values="0 0 0 0 0 0 0 0 0 0 0 0 0 0 0 0 0 0 127 0"/>
<feOffset/>
<feGaussianBlur stdDeviation="7.29651"/>
<feColorMatrix type="matrix" values="0 0 0 0 1 0 0 0 0 1 0 0 0 0 1 0 0 0 1 0"/>
<feBlend mode="normal" in2="effect2_dropShadow" result="effect3_dropShadow"/>
<feBlend mode="normal" in="SourceGraphic" in2="effect3_dropShadow" result="shape"/>
<feGaussianBlur stdDeviation="1.09448" result="effect4_foregroundBlur"/>
</filter>
<linearGradient id="paint0_linear" x1="22.3197" y1="71.478" x2="36.4007" y2="95.0456" gradientUnits="userSpaceOnUse">
<stop stop-color="#80D8FF"/>
<stop offset="0.0001" stop-color="#4CFEE9"/>
<stop offset="1" stop-color="#EA80FC"/>
</linearGradient>
<linearGradient id="paint1_linear" x1="71.9831" y1="29.4988" x2="96.2238" y2="77.9775" gradientUnits="userSpaceOnUse">
<stop stop-color="#00C4F6"/>
<stop offset="1" stop-color="#151515"/>
</linearGradient>
<linearGradient id="paint2_linear" x1="170.387" y1="39.7047" x2="171.079" y2="39.7047" gradientUnits="userSpaceOnUse">
<stop stop-color="white"/>
<stop offset="1" stop-color="#151515"/>
</linearGradient>
<linearGradient id="paint3_linear" x1="170.387" y1="39.7047" x2="171.079" y2="39.7047" gradientUnits="userSpaceOnUse">
<stop stop-color="white"/>
<stop offset="1" stop-color="#151515"/>
</linearGradient>
<linearGradient id="paint4_linear" x1="170.387" y1="39.7047" x2="171.079" y2="39.7047" gradientUnits="userSpaceOnUse">
<stop stop-color="white"/>
<stop offset="1" stop-color="#151515"/>
</linearGradient>
<linearGradient id="paint5_linear" x1="170.387" y1="39.7047" x2="171.079" y2="39.7047" gradientUnits="userSpaceOnUse">
<stop stop-color="white"/>
<stop offset="1" stop-color="#151515"/>
</linearGradient>
<linearGradient id="paint6_linear" x1="170.387" y1="39.7047" x2="171.079" y2="39.7047" gradientUnits="userSpaceOnUse">
<stop stop-color="white"/>
<stop offset="1" stop-color="#151515"/>
</linearGradient>
<linearGradient id="paint7_linear" x1="170.387" y1="39.7047" x2="171.079" y2="39.7047" gradientUnits="userSpaceOnUse">
<stop stop-color="white"/>
<stop offset="1" stop-color="#151515"/>
</linearGradient>
<linearGradient id="paint8_linear" x1="170.387" y1="39.7047" x2="171.079" y2="39.7047" gradientUnits="userSpaceOnUse">
<stop stop-color="white"/>
<stop offset="1" stop-color="#151515"/>
</linearGradient>
<linearGradient id="paint9_linear" x1="170.387" y1="39.7047" x2="171.079" y2="39.7047" gradientUnits="userSpaceOnUse">
<stop stop-color="white"/>
<stop offset="1" stop-color="#151515"/>
</linearGradient>
<linearGradient id="paint10_linear" x1="170.387" y1="39.7047" x2="171.079" y2="39.7047" gradientUnits="userSpaceOnUse">
<stop stop-color="white"/>
<stop offset="1" stop-color="#151515"/>
</linearGradient>
<linearGradient id="paint11_linear" x1="65.221" y1="31.8863" x2="96.7532" y2="-32.1512" gradientUnits="userSpaceOnUse">
<stop stop-color="#05F9FF"/>
<stop offset="0.401482" stop-color="#AB57FF"/>
<stop offset="1" stop-color="#151515"/>
</linearGradient>
<linearGradient id="paint12_linear" x1="2.10206" y1="41.1621" x2="46.5679" y2="42.7014" gradientUnits="userSpaceOnUse">
<stop stop-color="#05F9FF"/>
<stop offset="0.436913" stop-color="#AB57FF"/>
<stop offset="1" stop-color="#151515"/>
</linearGradient>
<linearGradient id="paint13_linear" x1="2.10206" y1="41.1621" x2="46.5679" y2="42.7014" gradientUnits="userSpaceOnUse">
<stop stop-color="#05F9FF"/>
<stop offset="0.436913" stop-color="#AB57FF"/>
<stop offset="1" stop-color="#151515"/>
</linearGradient>
<linearGradient id="paint14_linear" x1="51.4651" y1="-0.590027" x2="51.5001" y2="33.4927" gradientUnits="userSpaceOnUse">
<stop stop-color="#4CFEE9"/>
<stop offset="0.0001" stop-color="#80D8FF"/>
<stop offset="1" stop-color="#EA80FC"/>
</linearGradient>
</defs>
</svg>
