<svg width="442" height="349" viewBox="0 0 442 349" fill="none" xmlns="http://www.w3.org/2000/svg">
<g filter="url(#filter0_f)">
<circle r="2" transform="matrix(1 0 0 -1 327.885 311.083)" fill="#05F9FF"/>
<circle r="2" transform="matrix(1 0 0 -1 343.885 311.083)" fill="#05F9FF"/>
<circle r="2" transform="matrix(1 0 0 -1 359.885 311.083)" fill="#05F9FF"/>
<circle r="2" transform="matrix(1 0 0 -1 375.885 311.083)" fill="#05F9FF"/>
<circle r="2" transform="matrix(1 0 0 -1 391.885 311.083)" fill="#05F9FF"/>
<circle r="2" transform="matrix(1 0 0 -1 407.885 311.083)" fill="#05F9FF"/>
<circle r="2" transform="matrix(1 0 0 -1 357.885 297.084)" fill="#CF64B5"/>
<circle r="2" transform="matrix(1 0 0 -1 373.885 297.084)" fill="#CF64B5"/>
<circle r="2" transform="matrix(1 0 0 -1 389.885 297.084)" fill="#CF64B5"/>
<circle r="2" transform="matrix(1 0 0 -1 405.885 297.084)" fill="#CF64B5"/>
<circle r="2" transform="matrix(1 0 0 -1 421.885 297.084)" fill="#CF64B5"/>
<circle r="2" transform="matrix(1 0 0 -1 437.885 297.084)" fill="#CF64B5"/>
</g>
<g filter="url(#filter1_f)">
<circle r="2" transform="matrix(1 0 0 -1 327.885 281.083)" fill="#05F9FF"/>
<circle r="2" transform="matrix(1 0 0 -1 343.885 281.083)" fill="#05F9FF"/>
<circle r="2" transform="matrix(1 0 0 -1 359.885 281.083)" fill="#05F9FF"/>
<circle r="2" transform="matrix(1 0 0 -1 375.885 281.083)" fill="#05F9FF"/>
<circle r="2" transform="matrix(1 0 0 -1 391.885 281.083)" fill="#05F9FF"/>
<circle r="2" transform="matrix(1 0 0 -1 407.885 281.083)" fill="#05F9FF"/>
<circle r="2" transform="matrix(1 0 0 -1 357.885 267.084)" fill="#CF64B5"/>
<circle r="2" transform="matrix(1 0 0 -1 373.885 267.084)" fill="#CF64B5"/>
<circle r="2" transform="matrix(1 0 0 -1 389.885 267.084)" fill="#CF64B5"/>
<circle r="2" transform="matrix(1 0 0 -1 405.885 267.084)" fill="#CF64B5"/>
<circle r="2" transform="matrix(1 0 0 -1 421.885 267.084)" fill="#CF64B5"/>
<circle r="2" transform="matrix(1 0 0 -1 437.885 267.084)" fill="#CF64B5"/>
</g>
<g filter="url(#filter2_f)">
<circle r="2" transform="matrix(1 0 0 -1 327.885 251.083)" fill="#05F9FF"/>
<circle r="2" transform="matrix(1 0 0 -1 343.885 251.083)" fill="#05F9FF"/>
<circle r="2" transform="matrix(1 0 0 -1 359.885 251.083)" fill="#05F9FF"/>
<circle r="2" transform="matrix(1 0 0 -1 375.885 251.083)" fill="#05F9FF"/>
<circle r="2" transform="matrix(1 0 0 -1 391.885 251.083)" fill="#05F9FF"/>
<circle r="2" transform="matrix(1 0 0 -1 407.885 251.083)" fill="#05F9FF"/>
<circle r="2" transform="matrix(1 0 0 -1 357.885 237.084)" fill="#CF64B5"/>
<circle r="2" transform="matrix(1 0 0 -1 373.885 237.084)" fill="#CF64B5"/>
<circle r="2" transform="matrix(1 0 0 -1 389.885 237.084)" fill="#CF64B5"/>
<circle r="2" transform="matrix(1 0 0 -1 405.885 237.084)" fill="#CF64B5"/>
<circle r="2" transform="matrix(1 0 0 -1 421.885 237.084)" fill="#CF64B5"/>
<circle r="2" transform="matrix(1 0 0 -1 437.885 237.084)" fill="#CF64B5"/>
</g>
<g filter="url(#filter3_f)">
<circle r="2" transform="matrix(1 0 0 -1 327.885 221.083)" fill="#05F9FF"/>
<circle r="2" transform="matrix(1 0 0 -1 343.885 221.083)" fill="#05F9FF"/>
<circle r="2" transform="matrix(1 0 0 -1 359.885 221.083)" fill="#05F9FF"/>
<circle r="2" transform="matrix(1 0 0 -1 375.885 221.083)" fill="#05F9FF"/>
<circle r="2" transform="matrix(1 0 0 -1 391.885 221.083)" fill="#05F9FF"/>
<circle r="2" transform="matrix(1 0 0 -1 407.885 221.083)" fill="#05F9FF"/>
<circle r="2" transform="matrix(1 0 0 -1 357.885 207.084)" fill="#CF64B5"/>
<circle r="2" transform="matrix(1 0 0 -1 373.885 207.084)" fill="#CF64B5"/>
<circle r="2" transform="matrix(1 0 0 -1 389.885 207.084)" fill="#CF64B5"/>
<circle r="2" transform="matrix(1 0 0 -1 405.885 207.084)" fill="#CF64B5"/>
<circle r="2" transform="matrix(1 0 0 -1 421.885 207.084)" fill="#CF64B5"/>
<circle r="2" transform="matrix(1 0 0 -1 437.885 207.084)" fill="#CF64B5"/>
</g>
<g filter="url(#filter4_f)">
<circle r="2" transform="matrix(1 0 0 -1 54.8848 62.207)" fill="#05F9FF"/>
<circle r="2" transform="matrix(1 0 0 -1 70.8848 62.207)" fill="#05F9FF"/>
<circle r="2" transform="matrix(1 0 0 -1 86.8848 62.207)" fill="#05F9FF"/>
<circle r="2" transform="matrix(1 0 0 -1 102.885 62.207)" fill="#05F9FF"/>
<circle r="2" transform="matrix(1 0 0 -1 118.885 62.207)" fill="#05F9FF"/>
<circle r="2" transform="matrix(1 0 0 -1 134.885 62.207)" fill="#05F9FF"/>
<circle r="2" transform="matrix(1 0 0 -1 84.8848 48.207)" fill="#CF64B5"/>
<circle r="2" transform="matrix(1 0 0 -1 100.885 48.207)" fill="#CF64B5"/>
<circle r="2" transform="matrix(1 0 0 -1 116.885 48.207)" fill="#CF64B5"/>
<circle r="2" transform="matrix(1 0 0 -1 132.885 48.207)" fill="#CF64B5"/>
<circle r="2" transform="matrix(1 0 0 -1 148.885 48.207)" fill="#CF64B5"/>
<circle r="2" transform="matrix(1 0 0 -1 164.885 48.207)" fill="#CF64B5"/>
</g>
<g filter="url(#filter5_f)">
<circle r="2" transform="matrix(1 0 0 -1 4.88477 312.207)" fill="#05F9FF"/>
<circle r="2" transform="matrix(1 0 0 -1 20.8848 312.207)" fill="#05F9FF"/>
<circle r="2" transform="matrix(1 0 0 -1 36.8848 312.207)" fill="#05F9FF"/>
<circle r="2" transform="matrix(1 0 0 -1 52.8848 312.207)" fill="#05F9FF"/>
<circle r="2" transform="matrix(1 0 0 -1 68.8848 312.207)" fill="#05F9FF"/>
<circle r="2" transform="matrix(1 0 0 -1 84.8848 312.207)" fill="#05F9FF"/>
<circle r="2" transform="matrix(1 0 0 -1 34.8848 298.207)" fill="#CF64B5"/>
<circle r="2" transform="matrix(1 0 0 -1 50.8848 298.207)" fill="#CF64B5"/>
<circle r="2" transform="matrix(1 0 0 -1 66.8848 298.207)" fill="#CF64B5"/>
<circle r="2" transform="matrix(1 0 0 -1 82.8848 298.207)" fill="#CF64B5"/>
<circle r="2" transform="matrix(1 0 0 -1 98.8848 298.207)" fill="#CF64B5"/>
<circle r="2" transform="matrix(1 0 0 -1 114.885 298.207)" fill="#CF64B5"/>
</g>
<g filter="url(#filter6_ddf)">
<circle cx="214.825" cy="174.836" r="148.5" stroke="url(#paint0_linear)" stroke-width="3"/>
</g>
<g filter="url(#filter7_dd)">
<circle cx="203.825" cy="174.836" r="150" fill="#151515"/>
<circle cx="203.825" cy="174.836" r="148.5" stroke="url(#paint1_linear)" stroke-width="3"/>
</g>
<path d="M399.288 57.9424H265.288V61.9424H396.628L399.288 57.9424Z" fill="url(#paint2_linear)"/>
<path d="M215.434 44.9424L323.249 44.9424L321.309 46.9424L213.494 46.9424L215.434 44.9424Z" fill="url(#paint3_linear)"/>
<path d="M87.9627 86.4727H38.3242L42.6857 84.4727H92.3242L87.9627 86.4727Z" fill="url(#paint4_linear)"/>
<path d="M380.324 122.443H306.324L310.324 127.443H383.324L380.324 122.443Z" fill="url(#paint5_linear)"/>
<path d="M37.1562 232.725H111.156L107.156 237.725H33.1562L37.1562 232.725Z" fill="url(#paint6_linear)"/>
<path d="M9.3272 220.613H92.6744L89.2349 223.613H5.8877L9.3272 220.613Z" fill="url(#paint7_linear)"/>
<defs>
<filter id="filter0_f" x="323.885" y="293.084" width="118" height="21.9993" filterUnits="userSpaceOnUse" color-interpolation-filters="sRGB">
<feFlood flood-opacity="0" result="BackgroundImageFix"/>
<feBlend mode="normal" in="SourceGraphic" in2="BackgroundImageFix" result="shape"/>
<feGaussianBlur stdDeviation="1" result="effect1_foregroundBlur"/>
</filter>
<filter id="filter1_f" x="323.885" y="263.084" width="118" height="21.9993" filterUnits="userSpaceOnUse" color-interpolation-filters="sRGB">
<feFlood flood-opacity="0" result="BackgroundImageFix"/>
<feBlend mode="normal" in="SourceGraphic" in2="BackgroundImageFix" result="shape"/>
<feGaussianBlur stdDeviation="1" result="effect1_foregroundBlur"/>
</filter>
<filter id="filter2_f" x="323.885" y="233.084" width="118" height="21.9993" filterUnits="userSpaceOnUse" color-interpolation-filters="sRGB">
<feFlood flood-opacity="0" result="BackgroundImageFix"/>
<feBlend mode="normal" in="SourceGraphic" in2="BackgroundImageFix" result="shape"/>
<feGaussianBlur stdDeviation="1" result="effect1_foregroundBlur"/>
</filter>
<filter id="filter3_f" x="323.885" y="203.084" width="118" height="21.9993" filterUnits="userSpaceOnUse" color-interpolation-filters="sRGB">
<feFlood flood-opacity="0" result="BackgroundImageFix"/>
<feBlend mode="normal" in="SourceGraphic" in2="BackgroundImageFix" result="shape"/>
<feGaussianBlur stdDeviation="1" result="effect1_foregroundBlur"/>
</filter>
<filter id="filter4_f" x="50.8848" y="44.207" width="118" height="22" filterUnits="userSpaceOnUse" color-interpolation-filters="sRGB">
<feFlood flood-opacity="0" result="BackgroundImageFix"/>
<feBlend mode="normal" in="SourceGraphic" in2="BackgroundImageFix" result="shape"/>
<feGaussianBlur stdDeviation="1" result="effect1_foregroundBlur"/>
</filter>
<filter id="filter5_f" x="0.884766" y="294.207" width="118" height="22" filterUnits="userSpaceOnUse" color-interpolation-filters="sRGB">
<feFlood flood-opacity="0" result="BackgroundImageFix"/>
<feBlend mode="normal" in="SourceGraphic" in2="BackgroundImageFix" result="shape"/>
<feGaussianBlur stdDeviation="1" result="effect1_foregroundBlur"/>
</filter>
<filter id="filter6_ddf" x="40.8252" y="0.835938" width="348" height="348" filterUnits="userSpaceOnUse" color-interpolation-filters="sRGB">
<feFlood flood-opacity="0" result="BackgroundImageFix"/>
<feColorMatrix in="SourceAlpha" type="matrix" values="0 0 0 0 0 0 0 0 0 0 0 0 0 0 0 0 0 0 127 0"/>
<feOffset dx="4" dy="4"/>
<feGaussianBlur stdDeviation="10"/>
<feColorMatrix type="matrix" values="0 0 0 0 0.917647 0 0 0 0 0.501961 0 0 0 0 0.988235 0 0 0 0.3 0"/>
<feBlend mode="normal" in2="BackgroundImageFix" result="effect1_dropShadow"/>
<feColorMatrix in="SourceAlpha" type="matrix" values="0 0 0 0 0 0 0 0 0 0 0 0 0 0 0 0 0 0 127 0"/>
<feOffset dx="-4" dy="-4"/>
<feGaussianBlur stdDeviation="10"/>
<feColorMatrix type="matrix" values="0 0 0 0 0.501961 0 0 0 0 0.847059 0 0 0 0 1 0 0 0 0.3 0"/>
<feBlend mode="normal" in2="effect1_dropShadow" result="effect2_dropShadow"/>
<feBlend mode="normal" in="SourceGraphic" in2="effect2_dropShadow" result="shape"/>
<feGaussianBlur stdDeviation="5" result="effect3_foregroundBlur"/>
</filter>
<filter id="filter7_dd" x="29.8252" y="0.835938" width="348" height="348" filterUnits="userSpaceOnUse" color-interpolation-filters="sRGB">
<feFlood flood-opacity="0" result="BackgroundImageFix"/>
<feColorMatrix in="SourceAlpha" type="matrix" values="0 0 0 0 0 0 0 0 0 0 0 0 0 0 0 0 0 0 127 0"/>
<feOffset dx="4" dy="4"/>
<feGaussianBlur stdDeviation="10"/>
<feColorMatrix type="matrix" values="0 0 0 0 0.917647 0 0 0 0 0.501961 0 0 0 0 0.988235 0 0 0 0.3 0"/>
<feBlend mode="normal" in2="BackgroundImageFix" result="effect1_dropShadow"/>
<feColorMatrix in="SourceAlpha" type="matrix" values="0 0 0 0 0 0 0 0 0 0 0 0 0 0 0 0 0 0 127 0"/>
<feOffset dx="-4" dy="-4"/>
<feGaussianBlur stdDeviation="10"/>
<feColorMatrix type="matrix" values="0 0 0 0 0.501961 0 0 0 0 0.847059 0 0 0 0 1 0 0 0 0.3 0"/>
<feBlend mode="normal" in2="effect1_dropShadow" result="effect2_dropShadow"/>
<feBlend mode="normal" in="SourceGraphic" in2="effect2_dropShadow" result="shape"/>
</filter>
<linearGradient id="paint0_linear" x1="213.856" y1="19.5509" x2="214.825" y2="324.836" gradientUnits="userSpaceOnUse">
<stop stop-color="#4CFEE9"/>
<stop offset="0.0001" stop-color="#80D8FF"/>
<stop offset="1" stop-color="#EA80FC"/>
</linearGradient>
<linearGradient id="paint1_linear" x1="202.856" y1="19.5509" x2="203.825" y2="324.836" gradientUnits="userSpaceOnUse">
<stop stop-color="#4CFEE9"/>
<stop offset="0.0001" stop-color="#80D8FF"/>
<stop offset="1" stop-color="#EA80FC"/>
</linearGradient>
<linearGradient id="paint2_linear" x1="396.628" y1="59.9424" x2="286.583" y2="59.9424" gradientUnits="userSpaceOnUse">
<stop stop-color="#E04EF9"/>
<stop offset="0.526042" stop-color="#80D8FF"/>
<stop offset="1" stop-color="#151515"/>
</linearGradient>
<linearGradient id="paint3_linear" x1="326.407" y1="45.5329" x2="259.671" y2="54.8436" gradientUnits="userSpaceOnUse">
<stop stop-color="#80D8FF"/>
<stop offset="1" stop-color="#151515"/>
</linearGradient>
<linearGradient id="paint4_linear" x1="27.9429" y1="85.8821" x2="84.0139" y2="81.7406" gradientUnits="userSpaceOnUse">
<stop offset="0.489583" stop-color="#80D8FF"/>
<stop offset="1" stop-color="#151515"/>
</linearGradient>
<linearGradient id="paint5_linear" x1="323.783" y1="134.876" x2="330.835" y2="148.227" gradientUnits="userSpaceOnUse">
<stop stop-color="#151515"/>
<stop offset="0.447917" stop-color="#4CFEE9"/>
<stop offset="1" stop-color="#9E8AE7"/>
</linearGradient>
<linearGradient id="paint6_linear" x1="93.6973" y1="245.157" x2="86.6451" y2="258.508" gradientUnits="userSpaceOnUse">
<stop stop-color="#151515"/>
<stop offset="0.515625" stop-color="#9E8AE7"/>
<stop offset="1" stop-color="#4CFEE9"/>
</linearGradient>
<linearGradient id="paint7_linear" x1="73.8708" y1="228.073" x2="71.2299" y2="237.585" gradientUnits="userSpaceOnUse">
<stop stop-color="#151515"/>
<stop offset="0.515625" stop-color="#9E8AE7"/>
<stop offset="1" stop-color="#4CFEE9"/>
</linearGradient>
</defs>
</svg>
