<svg width="69" height="82" viewBox="0 0 69 82" fill="none" xmlns="http://www.w3.org/2000/svg">
<path d="M35.6323 26.6532C34.859 25.3103 32.92 25.3224 32.1604 26.6748L12.9844 60.8133C12.612 61.4764 13.0841 62.2963 13.8431 62.3044L23.1377 62.4043C23.1466 62.4044 23.1547 62.3997 23.159 62.392C23.1634 62.3843 23.1715 62.3795 23.1804 62.3796L54.659 62.7179C55.433 62.7262 55.9229 61.8875 55.5363 61.2161L51.3812 54.0009C51.0286 53.3887 50.3797 53.0086 49.6739 53.001L30.2475 52.7922C29.4885 52.7841 29.0164 51.9642 29.3889 51.3011L38.9217 34.33C39.268 33.7134 39.2642 32.9599 38.9116 32.3477L35.6323 26.6532Z" fill="url(#paint0_linear)"/>
<path d="M40.6002 50.773C41.4674 50.9891 42.3729 50.6017 42.8176 49.8244L59.0313 21.4856C59.4127 20.819 58.9342 19.989 58.1676 19.9876L48.9627 19.9711C48.9539 19.9711 48.9457 19.9758 48.9414 19.9834C48.937 19.9911 48.9289 19.9958 48.9201 19.9958L17.5951 19.9397C16.825 19.9384 16.342 20.7737 16.7267 21.4417L20.7713 28.465C21.1271 29.0828 21.7843 29.4638 22.4965 29.465L41.761 29.4995C42.528 29.5009 43.0065 30.3318 42.6242 30.9984L33.7669 46.4426C33.1057 47.5955 33.728 49.0607 35.0148 49.3814L40.6002 50.773Z" fill="url(#paint1_linear)"/>
<defs>
<linearGradient id="paint0_linear" x1="34.8578" y1="63.3455" x2="35.0022" y2="43.4924" gradientUnits="userSpaceOnUse">
<stop stop-color="#E465DF"/>
<stop offset="1" stop-color="#151515"/>
</linearGradient>
<linearGradient id="paint1_linear" x1="38.1941" y1="20.1962" x2="38.2183" y2="41.6416" gradientUnits="userSpaceOnUse">
<stop stop-color="#37C2FF"/>
<stop offset="1" stop-color="#141414"/>
</linearGradient>
</defs>
</svg>
